<?xml version="1.0" encoding="UTF-8"?>
<!DOCTYPE svg PUBLIC "-//W3C//DTD SVG 1.1//EN" "http://www.w3.org/Graphics/SVG/1.1/DTD/svg11.dtd">
<!-- Creator: CorelDRAW 2019 (64-Bit) -->
<svg xmlns="http://www.w3.org/2000/svg" xml:space="preserve" width="86.7266mm" height="36.858mm" version="1.1" style="shape-rendering:geometricPrecision; text-rendering:geometricPrecision; image-rendering:optimizeQuality; fill-rule:evenodd; clip-rule:evenodd"
viewBox="0 0 1615.01 686.36"
 xmlns:xlink="http://www.w3.org/1999/xlink">
 <defs>
  <style type="text/css">
   <![CDATA[
    .fil0 {fill:#ED3237}
    .fil1 {fill:#ED3237;fill-rule:nonzero}
   ]]>
  </style>
 </defs>
 <g id="Capa_x0020_1">
  <metadata id="CorelCorpID_0Corel-Layer"/>
  <g id="_2260619014432">
   <path class="fil0" d="M181.3 0c64.37,-0.19 116.71,54.16 116.91,121.39 0.2,67.23 -51.83,121.88 -116.19,122.07 -64.37,0.19 -116.71,-54.16 -116.91,-121.39 -0.2,-67.23 51.83,-121.88 116.19,-122.07z"/>
   <path class="fil0" d="M79.93 236.42c44.27,-0.13 80.27,35.99 80.4,80.68 0.13,44.69 -35.66,81.02 -79.93,81.15 -44.28,0.13 -80.27,-35.99 -80.4,-80.68 -0.13,-44.69 35.66,-81.02 79.93,-81.15z"/>
   <path class="fil0" d="M103.72 419.38c34.02,-0.1 61.69,28.37 61.79,63.6 0.1,35.22 -27.39,63.86 -61.42,63.95 -34.02,0.1 -61.69,-28.37 -61.79,-63.6 -0.1,-35.22 27.39,-63.86 61.42,-63.95z"/>
   <path class="fil0" d="M182.87 541.2c26.41,-0.08 47.89,22.02 47.97,49.37 0.08,27.34 -21.27,49.57 -47.68,49.65 -26.41,0.08 -47.89,-22.02 -47.97,-49.37 -0.08,-27.34 21.27,-49.57 47.68,-49.65z"/>
   <path class="fil0" d="M275.23 617.26c17.61,-0.05 31.93,15.38 31.98,34.46 0.06,19.08 -14.17,34.59 -31.78,34.65 -17.61,0.05 -31.93,-15.38 -31.98,-34.46 -0.06,-19.08 14.17,-34.59 31.78,-34.64z"/>
   <path class="fil0" d="M385.64 275.88l-6.07 42.65 -121.71 0.36 -1.31 20.63c36.21,-0.1 72.43,-0.21 108.64,-0.32 38.6,9.84 22.31,133.25 -34.71,123.19l-143.02 0.42 6.76 -41.28 134.77 0.98 6.07 -42.65c-35.07,0.1 -70.14,0.2 -105.2,0.31 -43.58,3.33 -27.07,-103.07 16.88,-104.57l138.9 0.28z"/>
   <path class="fil0" d="M407.73 307.45l50.88 -0.15 -17.55 111.44 84.58 -0.25 17.55 -110.76 50.2 -0.15 -25.68 154.79 -47.44 0.14 2.03 -11.01c-4.8,3.45 -9.61,6.9 -14.41,10.36 -85.04,0.3 -119.49,14.11 -118.36,-31.97l18.21 -122.45z"/>
   <polygon class="fil0" points="610.31,275.06 659.81,274.91 630.45,462.03 580.94,462.18 "/>
   <polygon class="fil0" points="671.84,275.58 719.29,275.44 692.32,461.52 642.81,461.66 "/>
   <path class="fil0" d="M743.43 306.66c-2.02,14.44 -4.04,28.89 -6.06,43.34 39.54,0.23 79.08,0.46 118.62,0.69 -0.1,3.44 -0.21,6.88 -0.31,10.31 -35.98,0.11 -71.97,0.21 -107.96,0.31 -43.11,15.38 -51.41,98.25 -11.05,100.43 50.66,-0.15 101.31,-0.3 151.96,-0.44 5.96,-38.75 11.92,-77.51 17.88,-116.26 3.53,-23.51 -9.09,-35.84 -34.84,-39.09 -42.75,0.24 -85.49,0.48 -128.24,0.72zm19.31 97.21l85.26 -0.25 -3.73 16.86 -85.26 0.25 3.73 -16.86z"/>
   <path class="fil0" d="M902.49 462.94c8.1,-52.05 16.2,-104.11 24.3,-156.16 52.03,-0.15 104.06,-0.3 156.08,-0.46 18.66,0.99 24.59,15.85 18.71,50.83 -5.17,34.39 -10.34,68.79 -15.52,103.19 -16.27,0.05 -32.55,0.09 -48.82,0.14 5.62,-36.92 11.24,-73.84 16.87,-110.76 -28.19,0.08 -56.38,0.17 -84.57,0.25 -6.61,37.61 -13.22,75.22 -19.83,112.83 -15.74,0.05 -31.49,0.09 -47.23,0.14z"/>
   <path class="fil0" d="M1135.51 305.52c-2.02,14.45 -4.04,28.89 -6.06,43.34 39.54,0.23 79.08,0.46 118.62,0.69 -0.1,3.44 -0.21,6.88 -0.31,10.31 -35.98,0.1 -71.97,0.21 -107.96,0.31 -43.11,15.38 -51.41,98.25 -11.05,100.43 50.66,-0.15 101.31,-0.3 151.96,-0.45 5.96,-38.75 11.92,-77.51 17.88,-116.26 3.53,-23.5 -9.09,-35.84 -34.84,-39.09 -42.75,0.24 -85.49,0.48 -128.24,0.72zm19.31 97.21l85.26 -0.25 -3.73 16.86 -85.26 0.25 3.73 -16.86z"/>
   <path class="fil1" d="M348.18 241.43l9.59 -45.67 -16.26 0.05 1.95 -9.29 43.57 -0.13 -1.95 9.29 -16.19 0.05 -9.59 45.67 -11.12 0.03zm40.25 -0.12l-10.51 0.03 8.36 -39.84 9.74 -0.03 -1.19 5.65c2.24,-2.68 4.11,-4.44 5.63,-5.27 1.52,-0.84 3.12,-1.25 4.82,-1.25 2.4,-0.01 4.58,0.65 6.53,1.96l-5.19 9.2c-1.54,-1.15 -3.06,-1.72 -4.58,-1.71 -1.48,0 -2.82,0.42 -4.01,1.23 -1.19,0.82 -2.31,2.28 -3.34,4.41 -1.03,2.12 -2.26,6.58 -3.68,13.35l-2.58 12.28zm33.42 -27.64l-9.16 -1.66c1.89,-3.89 4.35,-6.78 7.36,-8.65 3.01,-1.88 7.11,-2.82 12.27,-2.84 4.69,-0.01 8.08,0.53 10.15,1.63 2.05,1.11 3.38,2.51 3.96,4.22 0.57,1.71 0.39,4.84 -0.57,9.42l-2.73 12.28c-0.73,3.49 -1.11,6.08 -1.13,7.74 -0.02,1.66 0.24,3.44 0.76,5.33l-10.43 0.03c-0.12,-0.69 -0.26,-1.71 -0.37,-3.07 -0.03,-0.63 -0.08,-1.04 -0.11,-1.23 -2.16,1.77 -4.36,3.09 -6.59,3.98 -2.23,0.89 -4.5,1.34 -6.81,1.35 -4.08,0.01 -7.07,-1.09 -8.95,-3.31 -1.89,-2.21 -2.47,-5.02 -1.76,-8.42 0.47,-2.24 1.43,-4.25 2.87,-6.02 1.44,-1.76 3.22,-3.12 5.36,-4.06 2.13,-0.94 5.09,-1.77 8.88,-2.48 5.1,-0.93 8.7,-1.82 10.76,-2.61l0.22 -1.06c0.43,-2.05 0.24,-3.5 -0.58,-4.39 -0.83,-0.87 -2.63,-1.3 -5.4,-1.29 -1.88,0.01 -3.42,0.38 -4.62,1.14 -1.22,0.74 -2.34,2.07 -3.38,3.95zm12.33 8.48c-1.44,0.45 -3.68,0.99 -6.74,1.63 -3.05,0.64 -5.09,1.26 -6.11,1.85 -1.58,0.99 -2.52,2.22 -2.84,3.72 -0.31,1.48 -0.03,2.75 0.85,3.82 0.87,1.07 2.15,1.61 3.85,1.6 1.89,-0.01 3.84,-0.64 5.83,-1.88 1.47,-0.96 2.55,-2.12 3.24,-3.5 0.46,-0.9 0.96,-2.61 1.49,-5.13l0.44 -2.1zm52.94 18.87l-10.51 0.03 4.26 -20.3c0.9,-4.3 1.26,-7.07 1.07,-8.33 -0.2,-1.26 -0.72,-2.23 -1.6,-2.93 -0.87,-0.7 -2.03,-1.04 -3.46,-1.04 -1.84,0.01 -3.6,0.51 -5.26,1.51 -1.68,1 -2.96,2.34 -3.84,3.97 -0.9,1.65 -1.8,4.7 -2.74,9.15l-3.78 18.01 -10.51 0.03 8.36 -39.84 9.74 -0.03 -1.23 5.85c4.43,-4.47 9.28,-6.71 14.59,-6.73 2.33,-0.01 4.37,0.41 6.13,1.23 1.77,0.84 3,1.9 3.71,3.19 0.72,1.3 1.1,2.77 1.14,4.42 0.05,1.65 -0.25,4 -0.9,7.07l-5.19 24.73zm9.24 -11.23l10.93 -1.64c0.02,2.03 0.6,3.58 1.76,4.62 1.14,1.06 2.96,1.58 5.43,1.57 2.72,-0.01 4.88,-0.51 6.47,-1.52 1.07,-0.71 1.73,-1.65 1.97,-2.83 0.17,-0.79 0.05,-1.46 -0.34,-1.98 -0.42,-0.5 -1.5,-0.97 -3.22,-1.38 -8.11,-1.86 -13.13,-3.55 -15.08,-5.1 -2.7,-2.15 -3.65,-5.14 -2.85,-8.97 0.73,-3.47 2.71,-6.38 5.92,-8.74 3.22,-2.36 7.69,-3.55 13.4,-3.57 5.45,-0.02 9.31,0.87 11.58,2.64 2.27,1.78 3.55,4.41 3.81,7.9l-10.28 1.87c-0.09,-1.56 -0.66,-2.76 -1.67,-3.59 -1.01,-0.83 -2.63,-1.23 -4.84,-1.23 -2.79,0.01 -4.86,0.4 -6.24,1.18 -0.92,0.55 -1.47,1.27 -1.65,2.14 -0.16,0.76 0.05,1.39 0.65,1.92 0.81,0.7 3.89,1.68 9.25,2.94 5.36,1.26 8.96,2.81 10.79,4.66 1.82,1.86 2.37,4.48 1.66,7.83 -0.77,3.65 -2.95,6.8 -6.55,9.43 -3.59,2.63 -8.38,3.96 -14.37,3.98 -5.42,0.01 -9.49,-1.07 -12.2,-3.25 -2.7,-2.18 -4.15,-5.14 -4.33,-8.9zm52.13 -28.77l9.82 -0.03 -1.23 5.85c1.7,-2 3.75,-3.62 6.18,-4.86 2.43,-1.23 4.98,-1.86 7.63,-1.86 4.61,-0.01 8.16,1.79 10.62,5.42 2.46,3.61 3.01,8.67 1.65,15.15 -1.4,6.67 -4.11,11.84 -8.13,15.55 -4.02,3.71 -8.35,5.56 -12.98,5.58 -2.2,0.01 -4.1,-0.42 -5.71,-1.3 -1.59,-0.86 -3.17,-2.36 -4.7,-4.47l-4.18 19.93 -10.51 0.03 11.54 -54.96zm6.3 19.28c-0.94,4.49 -0.76,7.8 0.57,9.94 1.32,2.13 3.25,3.2 5.78,3.19 2.44,-0.01 4.68,-1 6.72,-2.97 2.04,-1.98 3.52,-5.2 4.46,-9.69 0.88,-4.2 0.7,-7.3 -0.55,-9.33 -1.23,-2.03 -3.09,-3.03 -5.56,-3.03 -2.57,0.01 -4.92,1.01 -7.02,3.01 -2.12,2 -3.58,4.96 -4.41,8.87zm34.33 0.03c0.74,-3.5 2.3,-6.9 4.72,-10.18 2.42,-3.29 5.38,-5.8 8.9,-7.53 3.52,-1.74 7.22,-2.62 11.12,-2.63 6.02,-0.02 10.53,1.93 13.56,5.83 3.02,3.92 3.9,8.85 2.65,14.84 -1.27,6.04 -4.26,11.05 -8.97,15.02 -4.72,3.98 -10.02,5.98 -15.91,5.99 -3.64,0.01 -6.95,-0.81 -9.91,-2.45 -2.95,-1.64 -4.96,-4.05 -6.02,-7.25 -1.06,-3.18 -1.1,-7.07 -0.14,-11.65zm10.7 0.53c-0.83,3.95 -0.53,6.98 0.89,9.07 1.44,2.11 3.52,3.15 6.27,3.14 2.74,-0.01 5.26,-1.06 7.55,-3.18 2.29,-2.1 3.87,-5.16 4.71,-9.17 0.82,-3.9 0.52,-6.91 -0.9,-9 -1.41,-2.11 -3.49,-3.15 -6.23,-3.14 -2.75,0.01 -5.27,1.06 -7.59,3.18 -2.31,2.1 -3.88,5.14 -4.71,9.09zm44.38 19.7l-10.51 0.03 8.36 -39.84 9.74 -0.03 -1.19 5.66c2.24,-2.68 4.11,-4.44 5.63,-5.27 1.52,-0.84 3.12,-1.25 4.82,-1.26 2.4,-0.01 4.58,0.65 6.53,1.96l-5.19 9.2c-1.53,-1.15 -3.06,-1.72 -4.58,-1.71 -1.48,0.01 -2.82,0.42 -4.01,1.23 -1.2,0.82 -2.31,2.28 -3.34,4.41 -1.04,2.12 -2.26,6.58 -3.68,13.35l-2.58 12.28zm46.35 -39.95l-1.76 8.37 -7.21 0.02 -3.39 16.13c-0.69,3.28 -1.02,5.18 -1,5.72 0.03,0.54 0.24,0.98 0.66,1.34 0.41,0.34 0.96,0.52 1.67,0.52 0.99,-0 2.46,-0.34 4.46,-1.02l-0.84 8.18c-2.66,1.06 -5.53,1.59 -8.63,1.6 -1.89,0 -3.53,-0.31 -4.91,-0.95 -1.39,-0.64 -2.32,-1.46 -2.82,-2.47 -0.5,-1.02 -0.7,-2.39 -0.61,-4.13 0.04,-1.23 0.45,-3.71 1.23,-7.46l3.66 -17.44 -4.83 0.01 1.76 -8.37 4.83 -0.01 1.66 -7.91 11.82 -6.25 -2.96 14.12 7.21 -0.02zm24.66 27.16l10.14 1.73c-2.15,3.86 -4.9,6.79 -8.23,8.82 -3.34,2.02 -7.19,3.04 -11.55,3.05 -6.92,0.02 -11.57,-2.23 -13.93,-6.75 -1.86,-3.63 -2.21,-8.2 -1.05,-13.74 1.39,-6.6 4.2,-11.79 8.42,-15.53 4.23,-3.76 8.98,-5.64 14.25,-5.66 5.91,-0.02 10.16,1.93 12.77,5.83 2.59,3.9 2.97,9.9 1.12,17.99l-26.31 0.08c-0.58,3.12 -0.25,5.55 1.01,7.28 1.25,1.74 3.08,2.6 5.49,2.59 1.65,-0 3.12,-0.46 4.42,-1.36 1.31,-0.9 2.46,-2.35 3.45,-4.34zm2.85 -10.67c0.57,-3.06 0.27,-5.38 -0.89,-6.96 -1.16,-1.6 -2.81,-2.38 -4.96,-2.38 -2.29,0.01 -4.36,0.86 -6.21,2.54 -1.85,1.68 -3.06,3.97 -3.63,6.85l15.69 -0.05zm12.75 12.01l10.93 -1.64c0.02,2.03 0.6,3.58 1.76,4.62 1.15,1.06 2.96,1.58 5.43,1.57 2.72,-0.01 4.87,-0.51 6.46,-1.52 1.07,-0.71 1.73,-1.65 1.97,-2.83 0.17,-0.79 0.05,-1.46 -0.34,-1.98 -0.42,-0.5 -1.5,-0.97 -3.22,-1.39 -8.11,-1.85 -13.13,-3.55 -15.08,-5.09 -2.7,-2.15 -3.65,-5.14 -2.85,-8.97 0.73,-3.47 2.71,-6.38 5.92,-8.74 3.22,-2.36 7.68,-3.55 13.4,-3.57 5.45,-0.01 9.31,0.87 11.58,2.64 2.27,1.78 3.55,4.42 3.81,7.9l-10.28 1.87c-0.09,-1.56 -0.66,-2.76 -1.67,-3.59 -1.01,-0.83 -2.63,-1.23 -4.84,-1.23 -2.79,0.01 -4.86,0.4 -6.24,1.18 -0.92,0.55 -1.47,1.27 -1.65,2.14 -0.16,0.75 0.05,1.39 0.64,1.92 0.81,0.7 3.89,1.68 9.25,2.94 5.36,1.26 8.96,2.81 10.79,4.66 1.82,1.86 2.37,4.48 1.66,7.83 -0.77,3.65 -2.95,6.8 -6.55,9.43 -3.59,2.63 -8.38,3.96 -14.37,3.98 -5.42,0.02 -9.49,-1.07 -12.2,-3.25 -2.7,-2.18 -4.15,-5.14 -4.33,-8.9z"/>
   <path class="fil1" d="M897.29 611.83l7.48 -0.02 -0.93 4.45c1.29,-1.52 2.86,-2.75 4.71,-3.7 1.85,-0.94 3.79,-1.41 5.8,-1.42 3.51,-0.01 6.21,1.36 8.09,4.12 1.87,2.75 2.29,6.6 1.26,11.53 -1.07,5.07 -3.13,9.01 -6.19,11.84 -3.06,2.82 -6.36,4.23 -9.88,4.25 -1.67,0 -3.12,-0.32 -4.34,-0.99 -1.21,-0.66 -2.42,-1.8 -3.58,-3.41l-3.19 15.17 -8 0.02 8.78 -41.85zm4.8 14.68c-0.72,3.42 -0.58,5.94 0.43,7.57 1,1.62 2.47,2.44 4.4,2.43 1.86,-0 3.57,-0.76 5.12,-2.26 1.55,-1.5 2.68,-3.96 3.4,-7.38 0.67,-3.2 0.53,-5.56 -0.42,-7.11 -0.94,-1.54 -2.36,-2.31 -4.23,-2.3 -1.96,0.01 -3.74,0.77 -5.35,2.29 -1.61,1.52 -2.73,3.77 -3.35,6.76zm32.4 15.53l-8 0.02 6.37 -30.33 7.42 -0.02 -0.9 4.31c1.7,-2.04 3.13,-3.38 4.29,-4.01 1.15,-0.64 2.38,-0.95 3.67,-0.96 1.83,-0.01 3.49,0.5 4.97,1.5l-3.95 7c-1.17,-0.87 -2.33,-1.31 -3.49,-1.3 -1.13,0 -2.15,0.32 -3.06,0.93 -0.91,0.63 -1.76,1.74 -2.54,3.36 -0.79,1.62 -1.72,5.01 -2.8,10.16l-1.96 9.35zm16.47 -15.58c0.56,-2.67 1.75,-5.25 3.59,-7.75 1.84,-2.51 4.1,-4.41 6.78,-5.74 2.68,-1.32 5.5,-1.99 8.47,-2 4.59,-0.01 8.02,1.47 10.33,4.44 2.3,2.98 2.97,6.74 2.02,11.29 -0.97,4.6 -3.24,8.41 -6.83,11.44 -3.59,3.03 -7.63,4.55 -12.12,4.56 -2.77,0.01 -5.29,-0.62 -7.55,-1.87 -2.25,-1.25 -3.78,-3.08 -4.58,-5.52 -0.8,-2.42 -0.83,-5.38 -0.1,-8.87zm8.15 0.41c-0.63,3.01 -0.4,5.32 0.68,6.91 1.09,1.61 2.68,2.4 4.77,2.39 2.08,-0.01 4,-0.81 5.75,-2.42 1.75,-1.6 2.95,-3.93 3.59,-6.98 0.62,-2.97 0.39,-5.26 -0.68,-6.85 -1.07,-1.6 -2.66,-2.4 -4.74,-2.39 -2.09,0.01 -4.01,0.81 -5.78,2.42 -1.76,1.6 -2.95,3.91 -3.58,6.92zm29 -15.3l4.44 -0.01 0.48 -2.29c0.54,-2.55 1.21,-4.46 2.02,-5.72 0.81,-1.27 2.03,-2.29 3.65,-3.09 1.64,-0.79 3.57,-1.2 5.81,-1.2 2.29,-0.01 4.46,0.33 6.52,1l-2.19 5.58c-1.24,-0.3 -2.46,-0.45 -3.67,-0.45 -1.19,0 -2.09,0.28 -2.72,0.82 -0.63,0.55 -1.11,1.6 -1.44,3.16l-0.45 2.16 6.02 -0.02 -1.33 6.31 -6.02 0.02 -5.04 24.02 -8 0.02 5.04 -24.02 -4.44 0.01 1.32 -6.31zm36.12 20.63l7.72 1.32c-1.64,2.93 -3.73,5.17 -6.26,6.72 -2.54,1.54 -5.48,2.31 -8.8,2.32 -5.27,0.01 -8.81,-1.7 -10.61,-5.14 -1.42,-2.76 -1.69,-6.25 -0.8,-10.46 1.05,-5.03 3.2,-8.97 6.41,-11.83 3.22,-2.86 6.83,-4.29 10.85,-4.31 4.5,-0.01 7.74,1.47 9.72,4.44 1.97,2.97 2.26,7.54 0.85,13.69l-20.04 0.06c-0.44,2.38 -0.19,4.23 0.77,5.55 0.95,1.32 2.35,1.98 4.18,1.97 1.26,-0 2.38,-0.35 3.37,-1.03 1,-0.69 1.87,-1.79 2.63,-3.31zm2.17 -8.13c0.43,-2.33 0.21,-4.1 -0.68,-5.3 -0.88,-1.21 -2.14,-1.81 -3.77,-1.81 -1.74,0.01 -3.32,0.65 -4.72,1.93 -1.41,1.28 -2.33,3.02 -2.77,5.22l11.94 -0.04zm9.71 9.14l8.32 -1.25c0.02,1.55 0.46,2.72 1.34,3.52 0.87,0.8 2.26,1.2 4.14,1.19 2.07,-0.01 3.71,-0.39 4.92,-1.15 0.81,-0.54 1.31,-1.26 1.5,-2.16 0.13,-0.6 0.04,-1.11 -0.26,-1.51 -0.32,-0.38 -1.14,-0.74 -2.45,-1.05 -6.18,-1.41 -10,-2.71 -11.48,-3.88 -2.06,-1.64 -2.78,-3.92 -2.17,-6.83 0.55,-2.64 2.06,-4.85 4.51,-6.65 2.45,-1.8 5.85,-2.7 10.2,-2.72 4.15,-0.01 7.09,0.66 8.82,2.01 1.73,1.36 2.7,3.36 2.9,6.02l-7.83 1.42c-0.07,-1.19 -0.5,-2.1 -1.28,-2.73 -0.77,-0.63 -2,-0.94 -3.69,-0.93 -2.12,0.01 -3.7,0.3 -4.75,0.9 -0.7,0.42 -1.12,0.97 -1.26,1.63 -0.12,0.58 0.04,1.06 0.49,1.46 0.62,0.53 2.96,1.28 7.04,2.24 4.08,0.96 6.82,2.14 8.22,3.55 1.39,1.42 1.8,3.41 1.27,5.96 -0.58,2.77 -2.24,5.18 -4.99,7.18 -2.74,2 -6.39,3.02 -10.94,3.03 -4.13,0.01 -7.22,-0.82 -9.29,-2.47 -2.05,-1.66 -3.16,-3.91 -3.29,-6.78zm40.78 -26l1.56 -7.42 8 -0.02 -1.56 7.42 -8 0.02zm-7.23 34.43l6.37 -30.33 8 -0.02 -6.37 30.33 -8 0.02zm17.62 -15.58c0.56,-2.67 1.75,-5.25 3.59,-7.75 1.84,-2.51 4.1,-4.41 6.78,-5.73 2.68,-1.32 5.5,-1.99 8.47,-2 4.59,-0.01 8.02,1.47 10.33,4.44 2.3,2.98 2.97,6.74 2.02,11.3 -0.96,4.6 -3.25,8.41 -6.83,11.44 -3.59,3.03 -7.63,4.55 -12.12,4.56 -2.77,0.01 -5.29,-0.62 -7.55,-1.87 -2.25,-1.25 -3.78,-3.09 -4.58,-5.52 -0.81,-2.42 -0.84,-5.38 -0.1,-8.87zm8.15 0.4c-0.63,3.01 -0.41,5.32 0.68,6.91 1.09,1.6 2.68,2.4 4.77,2.39 2.08,-0.01 4,-0.81 5.75,-2.42 1.75,-1.6 2.95,-3.93 3.59,-6.98 0.62,-2.97 0.39,-5.26 -0.68,-6.85 -1.07,-1.6 -2.66,-2.4 -4.74,-2.39 -2.09,0.01 -4.01,0.81 -5.78,2.42 -1.76,1.6 -2.95,3.91 -3.58,6.92zm53.71 14.94l-8 0.02 3.25 -15.46c0.69,-3.27 0.96,-5.39 0.82,-6.34 -0.15,-0.96 -0.55,-1.7 -1.21,-2.24 -0.67,-0.53 -1.55,-0.79 -2.63,-0.79 -1.4,0.01 -2.74,0.39 -4.01,1.15 -1.28,0.77 -2.25,1.78 -2.92,3.03 -0.68,1.26 -1.37,3.58 -2.09,6.97l-2.88 13.71 -8 0.02 6.37 -30.33 7.42 -0.02 -0.93 4.45c3.37,-3.41 7.07,-5.11 11.11,-5.12 1.77,-0.01 3.33,0.31 4.67,0.94 1.34,0.64 2.28,1.44 2.83,2.42 0.55,0.99 0.84,2.11 0.87,3.37 0.04,1.26 -0.19,3.05 -0.68,5.39l-3.95 18.83zm18.47 -21.02l-6.97 -1.26c1.44,-2.96 3.31,-5.16 5.61,-6.59 2.3,-1.43 5.41,-2.15 9.35,-2.16 3.57,-0.01 6.15,0.4 7.73,1.24 1.57,0.84 2.58,1.91 3.01,3.21 0.44,1.3 0.3,3.69 -0.44,7.17l-2.08 9.35c-0.56,2.66 -0.85,4.63 -0.86,5.89 -0.01,1.26 0.18,2.62 0.58,4.06l-7.94 0.02c-0.09,-0.53 -0.19,-1.31 -0.28,-2.34 -0.03,-0.48 -0.06,-0.79 -0.09,-0.93 -1.64,1.35 -3.31,2.36 -5.01,3.03 -1.7,0.68 -3.43,1.02 -5.19,1.03 -3.11,0.01 -5.38,-0.83 -6.82,-2.52 -1.44,-1.68 -1.88,-3.82 -1.34,-6.41 0.36,-1.71 1.09,-3.24 2.19,-4.58 1.1,-1.34 2.45,-2.37 4.08,-3.09 1.62,-0.72 3.87,-1.35 6.76,-1.89 3.89,-0.71 6.63,-1.38 8.19,-1.99l0.17 -0.81c0.33,-1.56 0.18,-2.67 -0.44,-3.34 -0.63,-0.66 -2,-0.99 -4.12,-0.98 -1.43,0 -2.6,0.29 -3.52,0.87 -0.93,0.57 -1.78,1.57 -2.58,3.01zm9.39 6.45c-1.09,0.34 -2.81,0.76 -5.14,1.24 -2.32,0.48 -3.88,0.95 -4.65,1.4 -1.2,0.75 -1.92,1.69 -2.16,2.83 -0.24,1.13 -0.02,2.09 0.64,2.91 0.67,0.82 1.64,1.22 2.93,1.22 1.44,-0 2.92,-0.49 4.44,-1.43 1.12,-0.73 1.94,-1.61 2.47,-2.66 0.35,-0.68 0.73,-1.99 1.13,-3.91l0.34 -1.6zm12.74 14.45l8.79 -41.85 8 -0.02 -8.79 41.85 -8 0.02zm22.01 -30.38l7.36 -0.02 -0.87 4.14c3.31,-3.19 6.79,-4.8 10.44,-4.81 1.94,-0.01 3.54,0.39 4.79,1.18 1.26,0.8 2.18,2 2.74,3.61 1.67,-1.62 3.37,-2.83 5.07,-3.64 1.71,-0.8 3.44,-1.21 5.19,-1.21 2.22,-0.01 4,0.44 5.36,1.34 1.35,0.9 2.22,2.22 2.61,3.97 0.28,1.28 0.12,3.38 -0.49,6.27l-4.07 19.37 -8 0.02 3.63 -17.31c0.63,-3.01 0.77,-4.95 0.39,-5.81 -0.5,-1.14 -1.53,-1.71 -3.07,-1.71 -1.12,0 -2.25,0.35 -3.39,1.03 -1.13,0.69 -2.06,1.7 -2.77,3.02 -0.72,1.32 -1.37,3.41 -1.97,6.26l-3.05 14.54 -8 0.02 3.48 -16.6c0.62,-2.94 0.87,-4.85 0.77,-5.7 -0.1,-0.85 -0.41,-1.5 -0.92,-1.91 -0.51,-0.42 -1.28,-0.62 -2.3,-0.62 -1.24,0 -2.42,0.34 -3.54,1 -1.13,0.67 -2.03,1.63 -2.73,2.89 -0.69,1.26 -1.34,3.34 -1.95,6.25l-3.09 14.72 -8 0.02 6.37 -30.33zm65.69 20.54l7.72 1.32c-1.64,2.93 -3.73,5.17 -6.26,6.72 -2.54,1.54 -5.47,2.31 -8.8,2.32 -5.26,0.01 -8.81,-1.7 -10.61,-5.14 -1.41,-2.76 -1.69,-6.25 -0.8,-10.47 1.05,-5.03 3.2,-8.97 6.41,-11.83 3.22,-2.86 6.84,-4.29 10.85,-4.31 4.5,-0.01 7.74,1.47 9.72,4.44 1.97,2.97 2.26,7.54 0.85,13.69l-20.04 0.06c-0.44,2.38 -0.19,4.23 0.77,5.55 0.95,1.32 2.35,1.98 4.18,1.97 1.26,-0 2.38,-0.35 3.37,-1.03 1,-0.68 1.87,-1.79 2.63,-3.31zm2.17 -8.12c0.43,-2.33 0.21,-4.1 -0.68,-5.3 -0.88,-1.22 -2.14,-1.82 -3.77,-1.81 -1.74,0 -3.32,0.65 -4.73,1.93 -1.41,1.28 -2.33,3.03 -2.77,5.22l11.95 -0.03zm38.35 17.59l-8 0.02 3.25 -15.46c0.69,-3.27 0.96,-5.39 0.82,-6.34 -0.15,-0.96 -0.55,-1.7 -1.21,-2.23 -0.67,-0.53 -1.55,-0.8 -2.64,-0.79 -1.4,0 -2.74,0.39 -4.01,1.15 -1.28,0.76 -2.25,1.78 -2.92,3.03 -0.68,1.26 -1.37,3.58 -2.09,6.97l-2.88 13.71 -8 0.02 6.37 -30.33 7.42 -0.02 -0.93 4.45c3.37,-3.41 7.07,-5.11 11.11,-5.12 1.77,-0.01 3.33,0.31 4.67,0.94 1.34,0.64 2.28,1.44 2.83,2.43 0.55,0.99 0.84,2.11 0.87,3.36 0.04,1.26 -0.19,3.05 -0.68,5.39l-3.95 18.83zm28.32 -30.4l-1.34 6.37 -5.49 0.02 -2.58 12.28c-0.52,2.49 -0.78,3.94 -0.76,4.35 0.02,0.41 0.18,0.75 0.51,1.02 0.31,0.26 0.73,0.4 1.27,0.39 0.75,-0 1.87,-0.26 3.39,-0.78l-0.64 6.23c-2.03,0.8 -4.21,1.21 -6.57,1.22 -1.44,0.01 -2.69,-0.23 -3.74,-0.72 -1.06,-0.48 -1.77,-1.11 -2.14,-1.88 -0.38,-0.78 -0.53,-1.82 -0.47,-3.14 0.03,-0.94 0.34,-2.82 0.94,-5.68l2.79 -13.28 -3.68 0.01 1.34 -6.37 3.68 -0.01 1.26 -6.02 9 -4.76 -2.26 10.75 5.49 -0.02zm18.77 20.68l7.72 1.32c-1.64,2.93 -3.73,5.17 -6.26,6.72 -2.54,1.53 -5.48,2.31 -8.8,2.32 -5.27,0.02 -8.81,-1.7 -10.61,-5.14 -1.42,-2.76 -1.69,-6.24 -0.8,-10.46 1.05,-5.03 3.2,-8.98 6.41,-11.83 3.22,-2.86 6.84,-4.29 10.85,-4.31 4.5,-0.01 7.74,1.47 9.72,4.44 1.97,2.97 2.26,7.54 0.85,13.7l-20.04 0.06c-0.44,2.38 -0.19,4.23 0.77,5.55 0.95,1.32 2.35,1.98 4.18,1.97 1.26,-0 2.38,-0.35 3.37,-1.03 1,-0.68 1.87,-1.79 2.63,-3.31zm2.17 -8.13c0.43,-2.33 0.21,-4.1 -0.68,-5.3 -0.88,-1.21 -2.14,-1.81 -3.77,-1.81 -1.74,0.01 -3.32,0.65 -4.73,1.93 -1.41,1.28 -2.33,3.02 -2.77,5.22l11.94 -0.04zm32.79 -12.71l7.36 -0.02 -0.87 4.14c3.31,-3.19 6.79,-4.8 10.44,-4.81 1.94,-0.01 3.54,0.39 4.79,1.18 1.26,0.8 2.18,2 2.74,3.61 1.67,-1.62 3.37,-2.83 5.07,-3.64 1.71,-0.8 3.43,-1.21 5.19,-1.21 2.22,-0.01 4.01,0.44 5.36,1.34 1.35,0.9 2.22,2.22 2.61,3.97 0.28,1.28 0.12,3.38 -0.49,6.27l-4.07 19.36 -8 0.02 3.63 -17.31c0.63,-3.01 0.77,-4.95 0.39,-5.81 -0.5,-1.14 -1.53,-1.71 -3.07,-1.71 -1.12,0 -2.25,0.35 -3.39,1.03 -1.13,0.69 -2.06,1.7 -2.77,3.02 -0.72,1.33 -1.37,3.41 -1.97,6.26l-3.05 14.54 -8 0.02 3.48 -16.6c0.62,-2.94 0.87,-4.85 0.77,-5.7 -0.1,-0.85 -0.4,-1.5 -0.92,-1.91 -0.51,-0.42 -1.28,-0.62 -2.3,-0.62 -1.24,0 -2.42,0.34 -3.54,1 -1.13,0.67 -2.04,1.63 -2.73,2.89 -0.69,1.26 -1.34,3.34 -1.95,6.25l-3.09 14.72 -8 0.02 6.37 -30.33zm65.69 20.54l7.72 1.32c-1.64,2.94 -3.73,5.17 -6.26,6.72 -2.54,1.54 -5.48,2.31 -8.8,2.32 -5.27,0.01 -8.81,-1.7 -10.61,-5.14 -1.42,-2.76 -1.69,-6.24 -0.8,-10.46 1.06,-5.03 3.2,-8.98 6.41,-11.83 3.22,-2.86 6.84,-4.29 10.85,-4.31 4.5,-0.01 7.74,1.47 9.72,4.44 1.97,2.97 2.26,7.54 0.85,13.7l-20.04 0.06c-0.44,2.38 -0.19,4.23 0.77,5.55 0.95,1.32 2.35,1.98 4.18,1.97 1.26,-0 2.38,-0.35 3.37,-1.03 1,-0.69 1.87,-1.79 2.63,-3.31zm2.17 -8.12c0.43,-2.33 0.21,-4.1 -0.68,-5.3 -0.88,-1.21 -2.14,-1.82 -3.77,-1.81 -1.74,0.01 -3.32,0.65 -4.73,1.93 -1.41,1.28 -2.33,3.02 -2.77,5.22l11.94 -0.03zm17.83 -16.76l1.56 -7.42 8 -0.02 -1.56 7.42 -8 0.02zm7.14 4.07l-6.17 29.37c-0.81,3.86 -1.63,6.58 -2.47,8.17 -0.83,1.59 -2.07,2.84 -3.69,3.73 -1.62,0.9 -3.54,1.35 -5.77,1.36 -0.8,0 -1.64,-0.06 -2.53,-0.21 -0.9,-0.13 -1.85,-0.34 -2.85,-0.63l2.81 -6.82c0.36,0.07 0.71,0.13 1.04,0.18 0.32,0.05 0.63,0.07 0.92,0.07 0.82,-0 1.54,-0.18 2.14,-0.53 0.6,-0.35 1.04,-0.78 1.31,-1.28 0.28,-0.5 0.68,-1.98 1.2,-4.45l6.07 -28.93 8 -0.02zm3.43 14.78c0.56,-2.67 1.75,-5.25 3.59,-7.75 1.84,-2.51 4.1,-4.41 6.78,-5.73 2.68,-1.32 5.5,-1.99 8.47,-2 4.58,-0.01 8.02,1.47 10.33,4.44 2.3,2.98 2.97,6.74 2.01,11.3 -0.96,4.6 -3.24,8.41 -6.83,11.44 -3.59,3.03 -7.63,4.55 -12.12,4.56 -2.77,0.01 -5.29,-0.62 -7.55,-1.87 -2.25,-1.25 -3.78,-3.09 -4.58,-5.52 -0.8,-2.42 -0.83,-5.38 -0.1,-8.87zm8.15 0.4c-0.63,3.01 -0.41,5.32 0.68,6.91 1.09,1.6 2.68,2.4 4.77,2.39 2.08,-0.01 4,-0.81 5.75,-2.42 1.75,-1.6 2.95,-3.93 3.58,-6.98 0.62,-2.97 0.39,-5.26 -0.68,-6.85 -1.07,-1.6 -2.66,-2.4 -4.74,-2.39 -2.09,0.01 -4.01,0.81 -5.78,2.42 -1.76,1.6 -2.95,3.91 -3.58,6.92zm33.79 15l-8 0.02 6.37 -30.33 7.42 -0.02 -0.91 4.31c1.7,-2.04 3.13,-3.38 4.29,-4.01 1.15,-0.64 2.38,-0.95 3.67,-0.96 1.83,-0.01 3.49,0.5 4.97,1.49l-3.95 7c-1.17,-0.87 -2.33,-1.31 -3.49,-1.3 -1.13,0 -2.15,0.32 -3.06,0.93 -0.91,0.63 -1.76,1.74 -2.54,3.36 -0.79,1.62 -1.72,5.01 -2.8,10.16l-1.96 9.35zm34.62 -9.68l7.72 1.32c-1.64,2.93 -3.73,5.17 -6.26,6.72 -2.54,1.54 -5.48,2.31 -8.8,2.32 -5.27,0.01 -8.81,-1.7 -10.61,-5.14 -1.42,-2.76 -1.69,-6.25 -0.8,-10.46 1.06,-5.03 3.2,-8.98 6.41,-11.83 3.22,-2.86 6.84,-4.29 10.85,-4.31 4.5,-0.01 7.74,1.47 9.72,4.44 1.97,2.97 2.26,7.54 0.85,13.69l-20.04 0.06c-0.44,2.38 -0.19,4.23 0.77,5.55 0.95,1.32 2.35,1.98 4.18,1.97 1.26,-0 2.38,-0.35 3.37,-1.03 1,-0.69 1.87,-1.79 2.63,-3.31zm2.17 -8.12c0.43,-2.33 0.21,-4.1 -0.68,-5.3 -0.88,-1.21 -2.14,-1.82 -3.77,-1.81 -1.74,0.01 -3.32,0.65 -4.73,1.93 -1.41,1.28 -2.33,3.02 -2.77,5.22l11.94 -0.04zm9.71 9.14l8.32 -1.25c0.01,1.55 0.46,2.72 1.34,3.52 0.87,0.81 2.26,1.2 4.14,1.2 2.07,-0.01 3.71,-0.39 4.92,-1.15 0.81,-0.54 1.31,-1.26 1.5,-2.16 0.13,-0.61 0.04,-1.11 -0.26,-1.51 -0.32,-0.38 -1.14,-0.74 -2.45,-1.05 -6.17,-1.41 -10,-2.71 -11.48,-3.88 -2.06,-1.64 -2.78,-3.92 -2.17,-6.83 0.55,-2.64 2.06,-4.85 4.51,-6.65 2.45,-1.8 5.85,-2.7 10.2,-2.72 4.15,-0.01 7.09,0.66 8.82,2.01 1.73,1.36 2.7,3.36 2.9,6.02l-7.83 1.42c-0.07,-1.19 -0.5,-2.1 -1.27,-2.73 -0.77,-0.63 -2,-0.94 -3.69,-0.93 -2.12,0.01 -3.7,0.3 -4.75,0.9 -0.7,0.42 -1.12,0.97 -1.26,1.63 -0.12,0.58 0.04,1.06 0.49,1.46 0.62,0.53 2.96,1.28 7.04,2.24 4.08,0.96 6.82,2.14 8.22,3.55 1.39,1.42 1.8,3.41 1.27,5.96 -0.58,2.78 -2.24,5.18 -4.99,7.18 -2.74,2 -6.38,3.02 -10.94,3.03 -4.13,0.01 -7.22,-0.82 -9.29,-2.47 -2.06,-1.66 -3.16,-3.91 -3.3,-6.78z"/>
   <path class="fil0" d="M996.61 483.95l-4.06 23.05 -76.67 0.22 -2.04 8.6 68.76 -0.2 -4.05 24.42 -69.11 0.2 -3.38 20.98 78.39 -0.23 -4.4 23.74c-30.03,0.09 -60.05,0.18 -90.08,0.26 -13.59,0.45 -14,-9.95 -12.44,-21.97 2.92,-20.18 5.84,-40.36 8.76,-60.54 2.27,-12.74 10.13,-18.59 22.98,-18.29l87.33 -0.26z"/>
   <polygon class="fil0" points="1030.35,500.1 1044.2,533.41 1071.6,499.3 1102.2,499.21 1070.34,538.15 1087.66,582.79 1059.12,582.88 1045.62,550.6 1017.53,583.68 985.55,583.78 1019.13,545.17 1001.12,500.19 "/>
   <path class="fil0" d="M1107.02 499.88l-16.55 101.13 27.85 -0.08 4.07 -18.58c20.86,-0.06 41.71,-0.12 62.57,-0.18 11.16,-0.21 16.84,-6.95 18.85,-19.65 2.14,-13.42 4.28,-26.83 6.42,-40.24 2.36,-14.13 -3.38,-22.09 -17.95,-23.33l-85.26 0.94zm74.33 24.19l-6.09 35.09 -50.88 0.15 7.8 -35.09 49.17 -0.14z"/>
   <polygon class="fil0" points="1220.32,500.59 1249.2,500.5 1249.9,505.66 1255.04,499.45 1278.07,499.39 1274.02,524.15 1245.14,524.24 1236.03,583.05 1205.77,583.14 "/>
   <path class="fil0" d="M1383.78 552.37l-79.42 0.23 0.02 8.25 70.48 -0.2 -4.75 22.36c-25.56,0.07 -51.12,0.15 -76.67,0.22 -14.56,-0.18 -19.15,-7.05 -17.93,-17.82 2.82,-15.94 5.64,-31.88 8.46,-47.81 1.85,-10.55 7.92,-17.79 22.64,-18.29 22,-0.06 44.01,-0.13 66.01,-0.19 12.14,0.33 17.34,8.18 14.86,24.37l-3.7 28.89zm-74.25 -29.26l50.71 -0.15 0.02 5.85 -50.71 0.15 -0.02 -5.84z"/>
   <path class="fil0" d="M1498.21 499.36l-4.4 24.25 -70.31 0.2 0.01 4.99 77.87 -0.23c-1.69,10.61 -3.38,21.21 -5.07,31.82 -3.66,16.04 -14.44,22.92 -30.53,22.95l-80.97 0.24 5.43 -23.57 77.36 -0.23 -0.02 -8.25c-19.94,0.06 -39.88,0.12 -59.82,0.18 -19.97,0.16 -15.77,-50.02 11.36,-52.12l79.08 -0.23z"/>
   <path class="fil0" d="M1610.98 499.03l-4.4 24.25 -70.31 0.21 0.01 4.99 77.87 -0.23c-1.69,10.61 -3.38,21.21 -5.07,31.82 -3.66,16.04 -14.44,22.92 -30.53,22.95l-80.97 0.24 5.43 -23.57 77.36 -0.23 -0.02 -8.25c-19.94,0.06 -39.88,0.12 -59.82,0.17 -19.96,0.16 -15.77,-50.01 11.36,-52.12l79.07 -0.23z"/>
  </g>
 </g>
</svg>
