<?xml version="1.0" encoding="UTF-8"?>
<!DOCTYPE svg PUBLIC "-//W3C//DTD SVG 1.1//EN" "http://www.w3.org/Graphics/SVG/1.1/DTD/svg11.dtd">
<!-- Creator: CorelDRAW 2019 (64-Bit) -->
<svg xmlns="http://www.w3.org/2000/svg" xml:space="preserve" width="32.3479mm" height="15.2738mm" version="1.1" style="shape-rendering:geometricPrecision; text-rendering:geometricPrecision; image-rendering:optimizeQuality; fill-rule:evenodd; clip-rule:evenodd"
viewBox="0 0 3066.95 1448.13"
 xmlns:xlink="http://www.w3.org/1999/xlink">
 <defs>
  <style type="text/css">
   <![CDATA[
    .fil0 {fill:#FEFEFE}
    .fil1 {fill:#FEFEFE;fill-rule:nonzero}
   ]]>
  </style>
 </defs>
 <g id="Capa_x0020_1">
  <metadata id="CorelCorpID_0Corel-Layer"/>
  <g id="_1821131602512">
   <path class="fil0" d="M139.7 239.55c0,84.28 38.59,171.64 102.59,215.8 80.65,55.65 168.61,69.46 258.08,24.65 104.01,-52.09 162.47,-169.59 137.8,-287.33 -57.81,-275.96 -498.46,-251.23 -498.46,46.87z"/>
   <path class="fil0" d="M493.82 798.36l220.93 0 -12.86 74.85c-4.16,12.92 -4.15,10.08 -22.59,9.9l-247.53 -0.62c-12.98,0.17 -15.93,-1.62 -20.47,8.77l-11.69 82.53c33.56,7.82 223.74,3.24 272.9,3.24 61.33,0 104.24,-15.96 127.01,-54.92 12.24,-20.92 12.35,-44.09 17.33,-73.64 2.51,-14.88 3.66,-24.09 6.02,-39.47 2.03,-13.24 5.58,-21.99 5.58,-39.89 0,-33.85 -27.61,-61.73 -61.72,-61.73l-214.43 0c0,-16.29 3.24,-20.01 3.24,-38.99 38.98,-8.26 230.87,10.69 259.92,-3.25 4.64,-9.66 6.64,-38.03 8.86,-49.61 2.47,-12.92 15.31,-44.6 -2.37,-44.6l-266.41 0c-53.33,0 -99.14,36.33 -108.18,93.25 -2.66,16.8 -14.02,69.93 -10.44,86.88 5.5,25.96 27.63,47.3 56.89,47.3z"/>
   <path class="fil0" d="M1799.88 882.83l-162.44 0c-16.01,0 -8.13,-32.49 6.49,-32.49l168.94 0c0,12.75 -0.68,32.49 -13,32.49zm-224.17 -149.45c0,12.41 125.94,6.5 139.7,6.5 24.92,0 49.83,-0.04 74.75,0.01 30.33,0.07 51,-9.41 35.71,19.48 -31.94,-7.45 -165.53,-3.25 -207.92,-3.25 -36.74,0 -64.03,21.4 -78.7,44.76 -17.09,27.19 -22.02,79.66 -22.02,114.44 0,20.28 22.8,38.94 36.99,47.48 18.35,11.05 42.27,14.24 70.23,14.24l259.91 0c21.23,0 22.02,-14.07 24.69,-33.79 6.71,-49.47 43.1,-220.67 32.48,-250.78 -8.33,-23.6 -39.91,-50.06 -70.16,-50.06l-272.9 0c-15.13,0 -13.5,25.75 -15.77,39.46 -2.9,17.56 -6.98,32.59 -6.98,51.5z"/>
   <path class="fil0" d="M2641.35 882.83l-168.94 0c0,-12.74 0.67,-32.49 12.99,-32.49l168.94 0c0,12.75 -0.67,32.49 -12.99,32.49zm-224.18 -149.45c0,16.05 223.09,-0.61 256.66,6.5 -0.6,26.79 -8.08,16.24 -22.74,16.24l-188.44 0c-37.92,0 -67.01,20.92 -81.63,45.07 -9.66,15.96 -11.71,30.44 -14.92,50.06 -5.46,33.39 -18.4,70.56 11.19,97.44 3.82,3.47 12.43,9.93 16.55,12.69 5.64,3.78 13.46,7.18 19.89,9.36 34.78,11.79 245.03,5.25 308.49,5.46 15.26,0.05 10,0.64 23.09,-2.4l31.51 -192.67c4.76,-33.38 17.06,-67.04 3.26,-95.52 -12.69,-26.18 -39.39,-43.2 -70.5,-43.2l-269.66 0c-14.89,0 -12.46,25.44 -14.78,40.44 -2.8,18.04 -7.96,33.17 -7.96,50.52z"/>
   <path class="fil0" d="M-0 688.79c1.72,17.34 7.37,33.11 23.75,63.07 46.84,85.63 175.8,128 266.22,37.56 43.99,-44 54.41,-75.53 54.41,-140.52 0,-122.7 -154.02,-214.93 -265.08,-138.38 -22.7,15.65 -41.66,36.73 -56.03,60.94 -4.86,8.18 -23.27,48.11 -23.27,57.95l0 59.38z"/>
   <path class="fil0" d="M909.69 977.04c34.44,0 145.5,3.25 171.46,-3.98 11.18,-3.11 15.83,-9.35 26.73,-12.26 10.44,21.76 -8.86,16.24 90.97,16.24 8.77,0 8.95,-1.55 16.24,-3.24 8.27,-17.25 34.96,-206.1 43.12,-252.53 2.15,-12.24 4.24,-25.81 6.97,-41.77 7.76,-45.28 25.03,-37.08 -95.57,-37.08 -15.06,0 -13.98,35.51 -16.7,51.53l-28.79 182.39 -167.95 1.66c-16.98,0.64 -10.23,-4.31 -5.19,-38.34l29.21 -176.04c4.79,-29.97 -3.69,-21.2 -99.74,-21.2 -13.97,0 -13.29,30.89 -15.28,43.2 -7.74,47.79 -41.91,220.23 -32.32,251.3 9.47,30.7 37.88,40.13 76.84,40.13z"/>
   <path class="fil0" d="M1926.58 973.8c24.47,5.7 82.74,5.7 107.21,0 6.38,-13.28 28.48,-161.07 32.98,-187.96 9.62,-57.72 3.63,-45.96 22.26,-45.96l165.69 0 -38.99 233.92c24.47,5.7 82.74,5.7 107.21,0 5.79,-12.07 45.95,-265.56 43.93,-277.59 -4.82,-28.84 -25.52,-53.8 -56.92,-53.8l-321.64 0c-13.75,0 -12.28,20.01 -14.37,34.35l-20.92 125.29c-4.81,28.58 -8.4,57.19 -12.96,84.5 -2.53,15.11 -4.58,27.31 -6.99,41.75 -2.32,14 -6.49,30.4 -6.49,45.49z"/>
   <path class="fil0" d="M87.72 1012.78c0,76.61 64.38,139.69 126.71,139.69 44,0 73.97,-10.6 103.49,-42.7 10.66,-11.6 19.64,-23.81 26.51,-38.47 59.29,-126.57 -102.82,-265.39 -215.34,-153.61 -23.29,23.13 -41.36,59.97 -41.36,95.1z"/>
   <path class="fil0" d="M1436.01 574.19l-59.87 372.23c-2.05,9.99 -4.3,14.4 -5.11,24.13 21.45,11.35 55.17,6.02 85.07,5.62 5.53,-0.08 17.08,-0.44 25.39,-2.37 10.58,-45.42 51.82,-306.57 58.63,-357.23 7.3,-54.36 29.54,-45.63 -87.87,-45.63 -5.12,0 -12.32,1.72 -16.24,3.25z"/>
   <path class="fil0" d="M1241.08 973.8c28.25,6.58 61.58,3.24 90.96,3.24 23.91,0 19.39,-15.97 23.62,-38.11 15.25,-79.92 28.65,-181.12 42.71,-265.93l13.92 -80.86c4.77,-29.7 -3.2,-21.2 -96.49,-21.2 -16.17,0 -15.15,24.4 -17.63,40.86 -2.73,18.22 -5.91,33.28 -8.19,50.28l-16.84 103.37c-5.63,32.73 -10.96,68.54 -17.23,102.97 -3.21,17.63 -4.6,36.27 -7.48,51.01 -3.34,17.02 -7.36,35.77 -7.36,54.36z"/>
   <path class="fil0" d="M289.15 1230.45c0,44.54 19.38,83.61 57.27,101.93 29.52,14.28 56.14,16.25 86.79,3.14 60.92,-26.05 88.82,-115.95 35.57,-170.97 -37.63,-38.88 -93.71,-49.18 -136.47,-14.39 -23.28,18.93 -43.16,44.51 -43.16,80.3z"/>
   <path class="fil0" d="M2030.55 1175.22c-77.35,0 -61.73,-22.7 -61.73,-97.47 46.54,0 152.69,-13.1 152.69,42.24 0,43.87 -46.61,55.23 -90.96,55.23zm-94.22 -129.96c-7.53,32.32 -3.25,177.15 -3.25,220.93 0,7.68 8.23,24.93 35.74,6.49l0 -74.72c21.31,1.77 11.72,9.75 77.97,9.75 15.47,0 15.38,-7.61 26.15,6.19 5.34,6.85 10.71,18.29 16.05,26.33 26.04,39.2 26.58,46.4 58.52,38.95 0,-23.16 -1.5,-11.73 -20.14,-41.59 -9.03,-14.48 -16.35,-26.2 -25.35,-39.62 100.51,-67.31 35.52,-148.36 -22.82,-152.62 -42.54,-3.09 -110.49,-3.47 -142.87,-0.09z"/>
   <path class="fil0" d="M2527.63 1168.73c0,-35.92 -1.75,-49.06 28.37,-75.59 44.35,-39.06 153.58,-20.33 153.58,56.1 0,29.36 0.24,53.84 -21.77,75.71 -45.57,45.25 -160.17,33.36 -160.17,-56.21zm-35.73 -13c0,37.12 9.86,66.02 31.58,88.62 70.8,73.67 221.83,43.89 221.83,-88.62 0,-98.72 -132.54,-157.35 -214.01,-84.05l-14 15.24c-5.04,6.75 -8.75,12.66 -12.52,19.98 -6.39,12.43 -12.88,29.79 -12.88,48.84z"/>
   <path class="fil0" d="M2205.99 1145.98c0,50.41 -3.38,65.98 39.74,106.45 56.28,52.82 184.44,25.46 184.44,0.76 0,-55.83 8.73,-90.97 -16.24,-90.97 -31.24,0 -17.99,53.86 -16.25,74.73 -41.4,27.72 -159.2,20.29 -159.2,-74.73 0,-25.24 12.82,-49.3 25.74,-61.98 48.62,-47.7 138.51,-15.99 146.45,-15.99 11.23,0 14.09,-10.23 16.24,-19.49 -12.58,-18.79 -67.93,-25.99 -90.96,-25.99 -58.67,0 -129.96,49.78 -129.96,107.21z"/>
   <path class="fil0" d="M1682.92 1184.97c0.95,-4.05 47.99,-98.66 55.23,-103.96 3.94,8.21 5.11,14.39 9.85,22.64l36.25 68.31c11.95,21.55 -3.53,12.88 -36.29,12.97 -22.31,0.07 -52.19,2.76 -65.03,0.04zm-77.97 84.47c0,11.56 6.33,9.75 19.49,9.75 17.44,0 28.14,-37.45 36.89,-50.83 11.36,-17.36 40.19,-10.89 80.07,-10.89 13.79,0 28.79,0.56 42.44,-0.17 31.81,-1.7 19.51,-4.15 43.05,41.39 16.4,31.72 41.21,20.15 41.21,14.01 0,-9.57 -22.12,-47.44 -28.14,-59.57l-60.43 -115.02c-22.31,-44.55 -20.52,-52.84 -51.13,-52.84 -15.54,0 -51.06,84.09 -64.25,107.93l-59.2 116.24z"/>
   <path class="fil0" d="M510.08 1370.16c0,32.25 23.83,53.39 44.6,69.12 5.78,4.38 12.29,7.28 19.24,8.86l27.91 0 2.04 -0.43c9.6,-2.12 27.57,-18.44 33.83,-24.65 61.7,-61.2 -5.45,-130.87 -49.64,-130.87 -39.67,0 -77.97,39.24 -77.97,77.97z"/>
   <path class="fil0" d="M1468.49 1282.44c25.03,0 94.21,0.49 94.21,-29.24 0,-7.8 -5.26,-9.55 -9.75,-16.24 -20.92,1.74 -90.65,35.2 -145.33,-10.62 -51.43,-43.12 -29.84,-151.83 64.11,-151.83 17.05,0 30.18,-0.82 45.92,2.82 21.65,5.02 41.8,20.74 41.8,-19.06 -13.96,-3.73 -43.34,-19.49 -77.97,-19.49 -37.05,0 -70.29,15.09 -91.52,31.94 -41.7,33.08 -54.51,92.13 -37.24,135.81 18.17,45.96 67.2,75.92 115.76,75.92z"/>
   <path class="fil0" d="M2797.29 1233.7c0,7.6 5.39,13 12.99,13l256.66 0 0 -0.85 0 -17.43c-0.63,-5.33 -2.85,-7.72 -9.75,-7.72l-240.41 0c-9.98,0 -19.49,3.01 -19.49,13z"/>
   <path class="fil0" d="M2797.29 1087.5c0.72,8.77 1.52,8.84 3.24,16.24l266.41 0 0 -22.74 -256.66 0c-5.27,0 -10.33,3.9 -12.99,6.49z"/>
   <path class="fil0" d="M2797.29 1162.23c1.96,7.37 3.12,13 12.99,13l142.96 0c13.34,0 20.42,-23.82 -2.83,-24.58l-107.64 1.84c-24.13,-0.08 -35.53,-5.1 -45.47,9.75z"/>
   <path class="fil1" d="M672.79 489.09l26.1 -124.36 -44.28 0.13 5.31 -25.3 118.64 -0.34 -5.31 25.29 -44.07 0.13 -26.11 124.36 -30.28 0.09zm109.59 -0.32l-28.61 0.09 22.76 -108.47 26.54 -0.08 -3.23 15.4c6.09,-7.3 11.2,-12.08 15.32,-14.35 4.13,-2.28 8.51,-3.4 13.14,-3.42 6.54,-0.02 12.47,1.78 17.77,5.35l-14.13 25.04c-4.18,-3.12 -8.34,-4.67 -12.49,-4.66 -4.03,0.01 -7.68,1.14 -10.92,3.34 -3.25,2.24 -6.29,6.22 -9.1,12 -2.82,5.78 -6.16,17.91 -10.03,36.34l-7.02 33.44zm90.98 -75.25l-24.94 -4.52c5.15,-10.6 11.84,-18.45 20.04,-23.56 8.21,-5.1 19.36,-7.68 33.43,-7.72 12.77,-0.04 22,1.43 27.63,4.45 5.59,3.01 9.22,6.83 10.77,11.49 1.56,4.66 1.06,13.19 -1.55,25.67l-7.44 33.44c-1.99,9.51 -3.01,16.54 -3.06,21.07 -0.05,4.53 0.64,9.37 2.07,14.52l-28.41 0.08c-0.34,-1.88 -0.69,-4.66 -1,-8.35 -0.09,-1.7 -0.21,-2.82 -0.31,-3.34 -5.88,4.83 -11.86,8.43 -17.93,10.85 -6.08,2.42 -12.25,3.66 -18.55,3.68 -11.1,0.03 -19.24,-2.98 -24.38,-9.02 -5.14,-6.01 -6.73,-13.66 -4.79,-22.93 1.28,-6.1 3.89,-11.57 7.82,-16.38 3.93,-4.78 8.78,-8.49 14.6,-11.05 5.79,-2.56 13.85,-4.81 24.18,-6.75 13.89,-2.55 23.68,-4.94 29.29,-7.12l0.61 -2.89c1.18,-5.57 0.64,-9.54 -1.56,-11.94 -2.25,-2.36 -7.16,-3.53 -14.71,-3.51 -5.12,0.02 -9.3,1.04 -12.59,3.1 -3.31,2.03 -6.36,5.62 -9.22,10.75zm33.56 23.09c-3.91,1.23 -10.03,2.71 -18.36,4.44 -8.3,1.74 -13.87,3.42 -16.65,5.03 -4.29,2.69 -6.86,6.04 -7.73,10.12 -0.84,4.04 -0.08,7.48 2.31,10.4 2.37,2.92 5.86,4.37 10.5,4.35 5.15,-0.01 10.45,-1.74 15.86,-5.12 3.99,-2.63 6.95,-5.76 8.82,-9.54 1.24,-2.44 2.61,-7.11 4.05,-13.97l1.19 -5.72zm144.15 51.39l-28.62 0.08 11.6 -55.27c2.47,-11.71 3.42,-19.27 2.92,-22.68 -0.53,-3.44 -1.95,-6.09 -4.34,-7.99 -2.38,-1.91 -5.53,-2.83 -9.42,-2.83 -5.02,0.01 -9.79,1.38 -14.33,4.11 -4.58,2.73 -8.05,6.35 -10.46,10.82 -2.44,4.5 -4.91,12.79 -7.45,24.92l-10.3 49.05 -28.61 0.09 22.77 -108.47 26.53 -0.08 -3.35 15.92c12.06,-12.19 25.28,-18.29 39.72,-18.33 6.34,-0.02 11.91,1.12 16.7,3.37 4.81,2.28 8.16,5.16 10.11,8.67 1.97,3.55 3.01,7.55 3.11,12.04 0.14,4.49 -0.68,10.9 -2.44,19.26l-14.14 67.34zm25.16 -30.58l29.75 -4.48c0.06,5.54 1.64,9.75 4.81,12.59 3.11,2.88 8.07,4.29 14.79,4.28 7.41,-0.02 13.27,-1.39 17.6,-4.12 2.91,-1.92 4.7,-4.5 5.38,-7.71 0.46,-2.16 0.14,-3.97 -0.92,-5.39 -1.14,-1.36 -4.07,-2.64 -8.77,-3.77 -22.08,-5.05 -35.75,-9.67 -41.07,-13.87 -7.36,-5.86 -9.93,-14 -7.75,-24.41 1.98,-9.44 7.37,-17.36 16.13,-23.8 8.76,-6.43 20.92,-9.67 36.48,-9.71 14.84,-0.05 25.36,2.36 31.54,7.18 6.19,4.85 9.66,12.02 10.38,21.52l-28.01 5.1c-0.26,-4.25 -1.79,-7.52 -4.56,-9.78 -2.76,-2.26 -7.16,-3.36 -13.18,-3.34 -7.58,0.02 -13.24,1.08 -16.99,3.21 -2.51,1.51 -4,3.46 -4.49,5.83 -0.43,2.06 0.14,3.79 1.75,5.21 2.21,1.91 10.6,4.57 25.18,8 14.59,3.44 24.39,7.66 29.38,12.7 4.96,5.06 6.45,12.2 4.53,21.32 -2.09,9.94 -8.02,18.52 -17.84,25.67 -9.78,7.17 -22.83,10.79 -39.12,10.84 -14.76,0.05 -25.84,-2.91 -33.21,-8.85 -7.35,-5.94 -11.29,-13.99 -11.79,-24.23zm141.94 -78.32l26.74 -0.08 -3.34 15.92c4.62,-5.45 10.2,-9.85 16.83,-13.25 6.63,-3.37 13.56,-5.05 20.76,-5.07 12.56,-0.04 22.21,4.87 28.92,14.74 6.7,9.83 8.19,23.62 4.49,41.24 -3.81,18.15 -11.19,32.24 -22.15,42.32 -10.95,10.1 -22.74,15.14 -35.34,15.18 -5.98,0.02 -11.17,-1.15 -15.54,-3.54 -4.34,-2.35 -8.64,-6.42 -12.78,-12.18l-11.4 54.27 -28.61 0.09 31.41 -149.65zm17.17 52.48c-2.57,12.23 -2.07,21.25 1.55,27.09 3.58,5.8 8.86,8.71 15.75,8.68 6.65,-0.02 12.75,-2.71 18.3,-8.09 5.55,-5.39 9.58,-14.16 12.15,-26.4 2.4,-11.42 1.92,-19.88 -1.48,-25.41 -3.37,-5.53 -8.43,-8.26 -15.15,-8.24 -7,0.02 -13.38,2.75 -19.11,8.2 -5.77,5.45 -9.76,13.5 -11.99,24.16zm93.46 0.08c2.01,-9.54 6.28,-18.78 12.85,-27.71 6.58,-8.96 14.66,-15.78 24.24,-20.5 9.59,-4.73 19.65,-7.13 30.27,-7.16 16.39,-0.05 28.68,5.24 36.93,15.87 8.23,10.67 10.63,24.09 7.21,40.4 -3.45,16.44 -11.6,30.07 -24.41,40.9 -12.86,10.83 -27.29,16.27 -43.34,16.32 -9.92,0.03 -18.91,-2.21 -26.98,-6.67 -8.04,-4.47 -13.52,-11.04 -16.39,-19.72 -2.87,-8.67 -2.99,-19.25 -0.37,-31.72zm29.14 1.45c-2.27,10.76 -1.45,19.01 2.43,24.71 3.92,5.74 9.58,8.57 17.07,8.55 7.45,-0.02 14.32,-2.89 20.57,-8.66 6.24,-5.73 10.53,-14.06 12.82,-24.96 2.23,-10.63 1.41,-18.81 -2.44,-24.5 -3.84,-5.74 -9.51,-8.58 -16.96,-8.55 -7.48,0.02 -14.35,2.89 -20.68,8.66 -6.28,5.73 -10.55,13.99 -12.81,24.76zm120.84 53.64l-28.61 0.09 22.77 -108.48 26.53 -0.08 -3.23 15.4c6.09,-7.29 11.2,-12.08 15.33,-14.35 4.13,-2.28 8.5,-3.4 13.14,-3.41 6.54,-0.02 12.47,1.77 17.77,5.35l-14.13 25.04c-4.18,-3.13 -8.34,-4.68 -12.49,-4.66 -4.04,0.01 -7.69,1.14 -10.93,3.34 -3.25,2.24 -6.28,6.21 -9.09,12 -2.82,5.78 -6.16,17.91 -10.03,36.34l-7.03 33.44zm126.21 -108.78l-4.79 22.78 -19.64 0.06 -9.22 43.93c-1.88,8.91 -2.79,14.11 -2.72,15.57 0.09,1.46 0.66,2.67 1.81,3.65 1.13,0.94 2.63,1.42 4.54,1.41 2.68,-0.01 6.7,-0.92 12.14,-2.79l-2.28 22.29c-7.25,2.87 -15.07,4.32 -23.49,4.35 -5.16,0.02 -9.6,-0.84 -13.38,-2.57 -3.77,-1.74 -6.33,-3.99 -7.67,-6.73 -1.37,-2.79 -1.91,-6.5 -1.68,-11.24 0.11,-3.34 1.22,-10.1 3.37,-20.31l9.96 -47.47 -13.16 0.04 4.78 -22.78 13.16 -0.04 4.52 -21.53 32.17 -17.01 -8.07 38.46 19.64 -0.06zm67.14 73.95l27.61 4.72c-5.86,10.51 -13.35,18.5 -22.4,24.03 -9.08,5.49 -19.59,8.27 -31.46,8.31 -18.83,0.06 -31.5,-6.07 -37.92,-18.37 -5.06,-9.88 -6.03,-22.34 -2.86,-37.41 3.77,-17.99 11.43,-32.1 22.93,-42.3 11.51,-10.23 24.45,-15.35 38.79,-15.4 16.09,-0.05 27.68,5.25 34.77,15.88 7.06,10.63 8.09,26.95 3.04,48.98l-71.65 0.21c-1.57,8.5 -0.66,15.1 2.76,19.83 3.39,4.72 8.4,7.07 14.94,7.05 4.49,-0.01 8.5,-1.24 12.05,-3.69 3.57,-2.45 6.7,-6.39 9.41,-11.83zm7.77 -29.06c1.54,-8.31 0.74,-14.65 -2.43,-18.96 -3.16,-4.34 -7.64,-6.49 -13.49,-6.48 -6.24,0.02 -11.87,2.34 -16.9,6.91 -5.02,4.58 -8.32,10.82 -9.9,18.66l42.72 -0.13zm34.71 32.7l29.75 -4.48c0.05,5.54 1.64,9.75 4.8,12.59 3.12,2.87 8.08,4.29 14.8,4.28 7.41,-0.03 13.26,-1.4 17.6,-4.13 2.91,-1.92 4.7,-4.5 5.38,-7.71 0.46,-2.15 0.14,-3.96 -0.92,-5.39 -1.14,-1.35 -4.08,-2.63 -8.78,-3.76 -22.07,-5.05 -35.75,-9.68 -41.06,-13.88 -7.37,-5.86 -9.94,-13.99 -7.75,-24.41 1.98,-9.44 7.37,-17.36 16.13,-23.79 8.76,-6.43 20.92,-9.67 36.48,-9.72 14.83,-0.04 25.35,2.36 31.54,7.19 6.18,4.85 9.65,12.02 10.37,21.52l-28 5.09c-0.26,-4.25 -1.8,-7.51 -4.56,-9.77 -2.76,-2.26 -7.16,-3.36 -13.18,-3.35 -7.59,0.03 -13.25,1.09 -16.99,3.22 -2.51,1.51 -4,3.46 -4.49,5.82 -0.44,2.06 0.14,3.8 1.75,5.22 2.21,1.91 10.59,4.56 25.18,8 14.58,3.43 24.38,7.65 29.38,12.7 4.95,5.06 6.45,12.19 4.53,21.32 -2.09,9.93 -8.03,18.51 -17.84,25.67 -9.79,7.17 -22.83,10.79 -39.13,10.84 -14.76,0.05 -25.83,-2.92 -33.21,-8.86 -7.35,-5.93 -11.29,-13.99 -11.79,-24.22z"/>
  </g>
 </g>
</svg>
