<?xml version="1.0" encoding="UTF-8"?>
<!DOCTYPE svg PUBLIC "-//W3C//DTD SVG 1.1//EN" "http://www.w3.org/Graphics/SVG/1.1/DTD/svg11.dtd">
<!-- Creator: CorelDRAW 2019 (64-Bit) -->
<svg xmlns="http://www.w3.org/2000/svg" xml:space="preserve" width="43.5997mm" height="33.1269mm" version="1.1" style="shape-rendering:geometricPrecision; text-rendering:geometricPrecision; image-rendering:optimizeQuality; fill-rule:evenodd; clip-rule:evenodd"
viewBox="0 0 1640.53 1246.47"
 xmlns:xlink="http://www.w3.org/1999/xlink">
 <defs>
  <style type="text/css">
   <![CDATA[
    .fil0 {fill:white}
   ]]>
  </style>
 </defs>
 <g id="Capa_x0020_1">
  <metadata id="CorelCorpID_0Corel-Layer"/>
  <g id="_2259809160880">
   <path class="fil0" d="M691.6 1190.17c-65.19,0 -128.67,-47.71 -128.67,-104.54 0,-81.12 13.79,-152.8 128.67,-152.8 34.28,0 64.23,11.59 82.69,29.89 77.52,76.92 33.67,227.44 -82.69,227.44zm20.27 56.29l-60.49 0c-52.12,0 -134.24,-73.17 -152.79,-152.8l-128.67 0c-5.2,62.43 -19.31,63.67 -54.14,98.66 -43.02,43.23 -68.83,52.49 -106.01,54.14l-56.98 0c-58.68,0 -152.8,-94.12 -152.8,-152.8l0 -788.09c0,-31.4 30.69,-72.38 56.3,-72.38l1069.56 0c63.48,0 120.18,37.43 159.67,73.54 17.23,15.76 29.55,21.68 56.35,72.32 27.62,52.21 25.33,73.59 25.24,151.67l-0.15 450.5c2.19,45.34 44.2,105.33 -34.17,198.74 -52.17,62.17 -96.19,66.28 -149.78,66.49l-2.77 0 -8.45 0 -5.73 0c-75.72,0 -154.92,-81.78 -160.83,-152.8l-136.71 0c-0.91,40.61 -27.58,81.97 -50.37,102.44 -43.58,39.14 -71.54,48.48 -106.28,50.36zm478.32 -56.29c-68.34,0 -128.66,-53.61 -128.66,-112.58 0,-44.96 -0.44,-78.25 38.6,-114.19 69.43,-63.91 218.73,-29.54 218.73,98.11 0,67.63 -61.03,128.66 -128.67,128.66zm-1133.89 -120.63c0,-141.08 145.55,-165.72 214.34,-109.79 124.32,101.07 -31.5,319.87 -172.28,196.39 -15.37,-13.49 -42.06,-62.91 -42.06,-86.61zm1198.23 -193l56.29 0 0 40.22c-20.97,-14.05 -42.51,-21.41 -56.29,-40.22zm-498.59 0l369.92 0c-11.74,10.2 -2.12,3.16 -19.02,13.15 -51.31,30.28 -100.04,69.49 -101.6,139.65l-112.58 0c-29.06,0 -7.37,2.9 -19.25,-12.92l-9.89 -22.28c-0.76,-1.78 -1.5,-3.99 -2.28,-5.76 -13.49,-30.49 -36.61,-61.13 -63.85,-80.9 -23.85,-17.32 -24.05,-7.18 -41.45,-30.94zm-506.63 0l369.93 0c-23.68,32.32 -94.91,42.41 -120.63,152.8l-128.67 0c-0.89,-40.15 -21.16,-72.36 -41.91,-94.8 -33.22,-35.95 -35.23,-29.29 -64.72,-47.86 -14.98,-9.43 -5.64,-2.87 -14,-10.13zm-184.97 32.17c3.57,-42.91 9.78,-32.17 56.3,-32.17 -14.05,19.17 -29.33,25.89 -56.3,32.17zm1125.85 -426.21l120.62 0 0 120.63c-37.56,-43.22 -77.41,-83.07 -120.62,-120.63zm-40.2 32.17c0,22.25 6.2,19.34 24.12,24.13l0 16.08c-104.89,2.33 19.32,112.58 40.21,112.58 26.38,0 30.17,-16.22 32.17,-40.2 44.62,10.67 27.32,16.74 64.33,-8.05 0,89.91 33.77,72.38 -217.13,72.38 -28.17,0 -18.49,-12.33 -20.1,-24.49 -6.57,-49.99 2.86,-155.04 -4.03,-184.6l91.69 11.27c-14.08,18.26 -11.27,-11.34 -11.27,20.91zm-136.71 -64.34c0,82.47 -9.2,223.58 8.03,297.55 50.94,0 101.87,0 152.8,0 137.88,-0.02 136.71,-15.52 136.71,48.25 0,18.53 -5.59,24.13 -24.12,24.13l-1198.23 0c-18.52,0 -24.13,-5.6 -24.13,-24.13l0 -498.59 1061.52 0c35.87,0 85.62,20.56 106.74,38 34.35,28.38 41.95,44.47 62.14,82.62 -50.93,0 -101.87,0.06 -152.8,-0.01 -45.4,-0.06 -128.66,-12.1 -128.66,32.17z"/>
   <path class="fil0" d="M434.26 667.46l0 -184.96 120.62 0 0 176.91c0,35.26 37.6,32.17 -96.5,32.17 -18.53,0 -24.12,-5.6 -24.12,-24.13zm-64.33 -209.08c0,353.82 -53.86,289.5 233.21,289.5 32.98,-49.24 16.19,-43.85 16.08,-176.92 -0.14,-170.33 42.52,-152.79 -209.08,-152.79 -18.75,0 -40.2,21.46 -40.2,40.21z"/>
   <path class="fil0" d="M144.76 482.5l128.67 0 0 209.09c-162.44,0 -120.62,4.53 -120.62,-32.17l0 -152.79c0,-30.75 2.47,-2.92 -8.04,-24.13zm-48.25 -56.29c-14.37,61.7 -14.37,259.97 0,321.67l216.63 -0.22c13.3,-5.9 24.63,-12.1 24.63,-31.95l0 -257.33c0,-59.04 -114.59,-40.21 -201.05,-40.21 -12.66,0 -30.47,4.26 -40.21,8.04z"/>
   <path class="fil0" d="M715.72 667.46l0 -184.96 128.67 0 0 209.09 -104.55 0c-18.53,0 -24.13,-5.6 -24.13,-24.13zm-24.12 80.42c265.09,0 217.13,54.6 217.13,-273.42 0,-78.9 -72.41,-56.29 -217.13,-56.29 -48.12,0 -32.21,92.28 -32.17,168.88 0.03,60 -22.71,160.83 32.17,160.83z"/>
   <path class="fil0" d="M1174.1 1013.26l56.3 8.04c12.59,54.06 18.45,88.47 -56.3,88.47 -47.44,0 -48.7,-96.5 0,-96.5zm-96.5 32.16c0,41.54 0.2,67.09 36.51,100.19 78.5,71.61 188.66,-7.36 188.66,-76.07 0,-102.55 -115.41,-162.69 -193.39,-88.83 -18.82,17.83 -31.78,37.34 -31.78,64.71z"/>
   <path class="fil0" d="M635.3 1069.55c0,-77.74 104.55,-77.74 104.55,0 0,54.38 -104.55,54.38 -104.55,0zm48.25 104.55c146.17,0 161.79,-225.17 -8.04,-225.17 -135.15,0 -130.24,225.17 8.04,225.17z"/>
   <path class="fil0" d="M1286.69 56.29c160.32,0 281.96,101.11 295.9,250.95 3.68,39.65 -6.61,54.63 33.82,54.63 11.81,0 19.98,-8.86 24.12,-23.82l0 -59.91c-14.48,-82.91 -80.07,-205.03 -212.32,-258.83 -37.59,-15.29 -56.55,-18.69 -87.98,-19.32l-50.22 0 -3.31 0c-8.58,36.82 -8.58,19.47 0,56.29z"/>
   <path class="fil0" d="M136.71 1069.55c0,-44.7 -0.59,-56.29 64.34,-56.29 45.38,0 45.38,96.5 0,96.5 -26.52,0 -64.34,-3.18 -64.34,-40.22zm-64.33 -16.08c0,149.75 225.17,176.77 225.17,-16.08 0,-20.22 -40.61,-88.47 -120.63,-88.47 -49.97,0 -104.54,56.64 -104.54,104.55z"/>
   <path class="fil0" d="M1278.65 120.62c31.77,8.48 8.59,8.96 41.65,14.64 68.72,11.81 126.01,25.05 166.59,106.83 10.93,22.05 0.47,-6.39 10.14,22.03 14.31,42.01 -1.3,52.06 22.87,97.76l40.2 0c35.27,-151.35 -105.66,-289.5 -257.33,-289.5 -19.92,0 -23.62,25.72 -24.13,48.25z"/>
   <path class="fil0" d="M1463.61 361.88c56.11,0 9.1,-131.62 -34.1,-166.94 -51.56,-42.16 -90.22,-42.14 -142.82,-42.14 -24.28,104.21 101.33,22.05 139.19,142.27 9.53,30.3 0.06,66.81 37.74,66.81z"/>
   <path class="fil0" d="M1383.2 361.88c68.85,0 19.26,-136.71 -72.39,-136.71 -20.78,0 -65.9,36.87 7.96,64.36 29.17,10.86 20.48,-1.52 33.35,31.05 8.55,21.65 1.9,41.3 31.08,41.3z"/>
  </g>
 </g>
</svg>
