<?xml version="1.0" encoding="UTF-8"?>
<!DOCTYPE svg PUBLIC "-//W3C//DTD SVG 1.1//EN" "http://www.w3.org/Graphics/SVG/1.1/DTD/svg11.dtd">
<!-- Creator: CorelDRAW 2019 (64-Bit) -->
<svg xmlns="http://www.w3.org/2000/svg" xml:space="preserve" width="32.4858mm" height="32.6996mm" version="1.1" style="shape-rendering:geometricPrecision; text-rendering:geometricPrecision; image-rendering:optimizeQuality; fill-rule:evenodd; clip-rule:evenodd"
viewBox="0 0 1359.29 1368.24"
 xmlns:xlink="http://www.w3.org/1999/xlink">
 <defs>
  <style type="text/css">
   <![CDATA[
    .fil0 {fill:white}
   ]]>
  </style>
 </defs>
 <g id="Capa_x0020_1">
  <metadata id="CorelCorpID_0Corel-Layer"/>
  <g id="_2259810207632">
   <path class="fil0" d="M366.65 169.91c-93.3,0 -84.03,-82.89 -179.06,-0.21 -71.35,62.07 -40.96,89.42 -25.36,124.15 34.63,77.12 12.49,147.04 -46.38,197.59 -85.51,73.46 -115.85,-28.76 -115.85,170.32 0,50.6 80.57,51.39 114.72,82.02 127.73,114.64 28.37,205.91 28.37,257.81 0,33.54 73.28,98.37 107.31,98.37 51.67,0 51.31,-35.78 116.25,-35.78 51.08,0 123.7,40.02 145.09,69.54 23.12,31.9 15.47,109.32 114.25,109.32 21.04,0 45.63,-10.69 59.53,-20.95 45.34,-33.5 28.88,-116.86 128.26,-140.01 -4.56,-54.91 -55.4,-61.03 -98.36,-125.21 -124.01,10.32 -215.99,30.11 -342.13,-96.05 -243.39,-243.38 -19.51,-592.53 225.89,-592.53 225.66,0 375.58,145.78 375.58,366.65 0,42.43 -10.01,64.6 -17.88,98.38 15.01,22.42 31.13,35.55 51.41,55.91 21.54,21.65 33.06,42.92 64.85,51.41 12.13,-25.29 12.03,-77.19 70.39,-108.46 88.97,-47.68 99.51,3.53 99.51,-159.82 0,-48.99 -77.79,-51.36 -109.94,-77.85 -36.43,-30.04 -68.91,-87.07 -68.91,-145.72 0,-51.68 35.77,-51.32 35.77,-116.26 0,-31.93 -75.8,-98.37 -98.38,-98.37 -63.18,0 -83.73,74.09 -208.38,11.65 -23.82,-11.94 -38.3,-23.42 -54.63,-43.75 -55.25,-68.82 2.62,-102.04 -139.4,-102.04 -75.87,0 -58.71,67.04 -91.43,105.32 -23.3,27.27 -91.17,64.6 -141.09,64.6z"/>
   <path class="fil0" d="M1243.03 1305.63c-51.76,0 -70.46,-98.36 8.95,-98.36 59.71,0 59.22,98.36 -8.95,98.36zm116.26 -90.41c0,116.3 -8.73,153.02 -152.02,153.02 -40.01,0 -355.6,-333.25 -404.66,-382.3 -136.75,-136.75 -79.87,-92.4 -194.34,-100.77 -119.83,-8.77 -223.73,-117.09 -223.73,-268.11 0,-90.13 36.89,-70.89 44.71,-71.54 8.31,31.15 120.67,131.02 152.02,152.02 33.86,-22.68 79.91,-75.78 107.31,-107.31l-121.76 -128.63c-26.53,-25.83 -30.07,-16.01 -39.21,-50.22 47.14,-23.37 76.61,-17.89 134.14,-17.89 93.05,0 191.02,94.77 210.82,173.72 14.48,57.74 -13.56,130.45 20.51,167.29l430.32 428.18c26.03,27.69 33.85,33.37 35.88,52.55z"/>
  </g>
 </g>
</svg>
