<?xml version="1.0" encoding="UTF-8"?>
<!DOCTYPE svg PUBLIC "-//W3C//DTD SVG 1.1//EN" "http://www.w3.org/Graphics/SVG/1.1/DTD/svg11.dtd">
<!-- Creator: CorelDRAW 2019 (64-Bit) -->
<svg xmlns="http://www.w3.org/2000/svg" xml:space="preserve" width="33.1005mm" height="32.6996mm" version="1.1" style="shape-rendering:geometricPrecision; text-rendering:geometricPrecision; image-rendering:optimizeQuality; fill-rule:evenodd; clip-rule:evenodd"
viewBox="0 0 426.73 421.56"
 xmlns:xlink="http://www.w3.org/1999/xlink">
 <defs>
  <style type="text/css">
   <![CDATA[
    .fil0 {fill:white}
   ]]>
  </style>
 </defs>
 <g id="Capa_x0020_1">
  <metadata id="CorelCorpID_0Corel-Layer"/>
  <g id="_2259811585280">
   <path class="fil0" d="M264.51 394.01l0 -11.02c22.87,0 76.6,-6.4 96.43,-11.02 18.95,28.31 11.23,19.2 -24.79,19.28 -18.23,0.04 -59.74,-1.86 -71.65,2.76zm37.08 -394.01l13.75 0 1.52 0c54.83,0 133.1,72.11 103.32,161.18 -4.06,12.12 -5.67,15.22 -10.01,25.8l-62.47 117.1c-11.65,19.34 -3.82,10.02 7.75,10.02 11.58,0 16.65,14.04 21.12,22.97 9.63,19.21 41.3,68.59 45.01,84.49l-405.03 0c0.3,-13.6 6.7,-17.44 11.83,-29.5 4.66,-10.97 6.88,-16.23 12.05,-26.52 4.89,-9.72 8.02,-15.97 12.86,-25.72 11.76,-23.72 5.86,-18.17 15.62,-22.96 18.19,-8.93 166.66,2.79 192.87,-2.76 -29.46,-44 -85.41,-136.71 -85.41,-198.38 0,-32.78 18.97,-61.87 36.09,-79.63l14.28 -13.27c25.12,-20.39 48.72,-22.63 74.87,-22.82zm-56.36 360.94c-2.06,8.86 -5.28,20.02 -5.51,30.31l-74.39 0c-5.03,0 -8.74,4.23 -11.44,-0.92 -0.01,-0.02 2.36,-43.16 14.2,-43.16l110.21 0c7.76,0 5.1,1.19 8.26,5.51 -6.62,9.03 -4.17,4.69 -18.92,5.87 -9.02,0.72 -11.94,2.39 -22.41,2.39zm-115.72 30.31l-68.88 0c9.74,-14.55 16.41,-30.99 24.8,-46.84 16.42,3.83 32.26,2.76 52.35,2.76 -2.84,12.2 -8.27,30.51 -8.27,44.09zm187.36 -38.58c7.74,-10.56 13.08,-8.27 30.31,-8.27l0 5.51c-11.99,0.27 -15.03,2.75 -30.31,2.75zm-107.45 -223.18c0,-14.32 0.76,-36.57 11.02,-44.08 0,21.99 -0.52,44.48 -0.25,66.38 0.23,18.68 0.91,14.89 13.69,19.38 19.72,6.92 2.88,13.44 25.14,13.44 8.85,0 13.04,-7.66 13.78,-16.53 31.6,7.36 50.79,-1.5 62.36,1.25 14.18,3.38 6.68,15.28 20.3,15.28 13.07,0 16.79,-5.82 19.28,-16.53l8.26 0c-2.26,27.14 -53.35,61.62 -98.91,52.3 -41.4,-8.48 -74.67,-41.07 -74.67,-90.87zm129.5 -24.8l8.27 0c5.55,0 12.53,6.51 14.51,10.85 5.67,12.45 -2.5,5.68 -9,5.68l-13.78 0 0 -16.53zm-35.82 -71.64c32.88,0 68.83,26.27 80.94,51.32 7.65,15.83 17.61,57.56 4.48,72.67 0,-45.59 0.02,-22.19 -27.56,-63.37l-35.82 0c1.68,-20.16 5.51,-19.42 -35.81,-19.29 -21.12,0.06 -42.25,0 -63.38,0 5.62,-21.06 49.4,-41.33 77.15,-41.33z"/>
   <path class="fil0" d="M90.92 212.16c0.38,-17.17 11.75,-30.33 23.45,-37.34 7.41,-4.44 20.63,-10.47 20.63,4.28 0,4.06 -6.22,20.77 -15.07,26.27 -21.5,13.37 -21.85,8.46 -29.02,6.79zm-90.92 1.42l0 -6.27c1.76,-4.08 6.76,-6.93 10.08,-9.87 9.15,-8.11 20.77,-25.57 31.25,-29.36 -0.76,-9.1 -3.59,-16.53 -5.51,-24.8 16.17,-24.16 30.06,-35.12 49.6,-22.05 6.2,-9.26 37.1,-41.54 47.47,-44.72l16.56 17.84 -44.75 43.41c3.57,13.36 7.35,5.4 0,19.29 11.7,-2.72 14.55,-7.01 26.54,-2 23.12,9.66 15.6,43.64 5.57,56.16 -10.84,13.54 -73.64,33.38 -59.67,-26.6 -21.05,10.1 -0.35,-15 -32.38,17.22 -9.55,9.6 -17.42,19.62 -28.24,26.86 -6.14,-3.24 -4.66,-1.61 -9.99,-6.54 -3.58,-3.31 -5.6,-6.12 -6.54,-8.57z"/>
   <path class="fil0" d="M104.7 264.51c18.33,10.3 47.12,-7.37 58.66,-18.49 21.35,-20.6 24,-34.9 24,-61.41l-13.77 0c0,30.82 -18.46,57.05 -45.38,64.83 -15.24,4.4 -22.19,-0.77 -23.51,15.07z"/>
   <path class="fil0" d="M104.7 236.95c5.41,20.24 31.78,3.61 39.1,-2.23 7.95,-6.34 35.74,-40.24 20.04,-49.05 -14.51,-8.15 -9.29,14.58 -19.78,27.28 -20.1,24.36 -30.19,11.48 -39.37,24z"/>
   <path class="fil0" d="M104.7 195.62c0,2.45 3.06,5.51 5.51,5.51 9.81,0 10.8,-6.53 11.02,-16.53 -11.22,0 -16.53,0.17 -16.53,11.02z"/>
  </g>
 </g>
</svg>
