<?xml version="1.0" encoding="UTF-8"?>
<!DOCTYPE svg PUBLIC "-//W3C//DTD SVG 1.1//EN" "http://www.w3.org/Graphics/SVG/1.1/DTD/svg11.dtd">
<!-- Creator: CorelDRAW 2019 (64-Bit) -->
<svg xmlns="http://www.w3.org/2000/svg" xml:space="preserve" width="36.1703mm" height="15.3721mm" version="1.1" style="shape-rendering:geometricPrecision; text-rendering:geometricPrecision; image-rendering:optimizeQuality; fill-rule:evenodd; clip-rule:evenodd"
viewBox="0 0 788.1 334.94"
 xmlns:xlink="http://www.w3.org/1999/xlink">
 <defs>
  <style type="text/css">
   <![CDATA[
    .fil0 {fill:#FEFEFE}
    .fil1 {fill:#FEFEFE;fill-rule:nonzero}
   ]]>
  </style>
 </defs>
 <g id="Capa_x0020_1">
  <metadata id="CorelCorpID_0Corel-Layer"/>
  <g id="_1821330936016">
   <path class="fil0" d="M88.47 0c31.41,-0.09 56.95,26.43 57.05,59.24 0.09,32.81 -25.29,59.48 -56.7,59.57 -31.41,0.09 -56.95,-26.43 -57.05,-59.24 -0.1,-32.81 25.29,-59.48 56.7,-59.57z"/>
   <path class="fil0" d="M39.01 115.37c21.6,-0.06 39.17,17.56 39.23,39.37 0.06,21.81 -17.4,39.54 -39.01,39.6 -21.6,0.06 -39.17,-17.56 -39.23,-39.37 -0.06,-21.81 17.4,-39.54 39.01,-39.6z"/>
   <path class="fil0" d="M50.62 204.65c16.6,-0.05 30.1,13.85 30.15,31.03 0.05,17.19 -13.37,31.16 -29.97,31.21 -16.6,0.05 -30.1,-13.85 -30.15,-31.03 -0.05,-17.19 13.37,-31.16 29.97,-31.21z"/>
   <path class="fil0" d="M89.24 264.1c12.89,-0.04 23.37,10.75 23.41,24.09 0.04,13.34 -10.38,24.19 -23.27,24.23 -12.89,0.04 -23.37,-10.75 -23.41,-24.09 -0.04,-13.34 10.38,-24.19 23.27,-24.23z"/>
   <path class="fil0" d="M134.31 301.21c8.59,-0.03 15.58,7.5 15.61,16.81 0.03,9.31 -6.92,16.88 -15.51,16.91 -8.59,0.03 -15.58,-7.5 -15.61,-16.81 -0.03,-9.31 6.92,-16.88 15.51,-16.91z"/>
   <path class="fil0" d="M188.19 134.63l-2.96 20.81 -59.39 0.17 -0.64 10.07c17.67,-0.05 35.34,-0.1 53.02,-0.15 18.84,4.8 10.89,65.03 -16.94,60.11l-69.79 0.2 3.3 -20.14 65.77 0.48 2.96 -20.81c-17.11,0.05 -34.23,0.1 -51.34,0.15 -21.27,1.63 -13.21,-50.29 8.24,-51.03l67.78 0.14z"/>
   <path class="fil0" d="M198.97 150.03l24.83 -0.07 -8.57 54.38 41.27 -0.12 8.57 -54.05 24.49 -0.07 -12.53 75.53 -23.15 0.07 0.99 -5.37c-2.34,1.69 -4.69,3.37 -7.03,5.05 -41.5,0.14 -58.31,6.89 -57.76,-15.6l8.89 -59.75z"/>
   <polygon class="fil0" points="297.82,134.23 321.98,134.15 307.65,225.47 283.49,225.54 "/>
   <polygon class="fil0" points="327.85,134.48 351,134.41 337.84,225.22 313.68,225.29 "/>
   <path class="fil0" d="M362.79 149.65c-0.99,7.05 -1.97,14.1 -2.96,21.15 19.29,0.11 38.59,0.22 57.88,0.34 -0.05,1.68 -0.1,3.36 -0.15,5.03 -17.56,0.05 -35.12,0.1 -52.68,0.15 -21.04,7.5 -25.09,47.94 -5.39,49 24.72,-0.07 49.44,-0.14 74.16,-0.22 2.91,-18.91 5.82,-37.82 8.73,-56.73 1.72,-11.47 -4.44,-17.49 -17,-19.08 -20.86,0.12 -41.72,0.23 -62.58,0.35zm9.42 47.44l41.61 -0.12 -1.82 8.23 -41.61 0.12 1.82 -8.23z"/>
   <path class="fil0" d="M440.4 225.91c3.95,-25.4 7.9,-50.8 11.86,-76.2 25.39,-0.07 50.78,-0.15 76.17,-0.22 9.11,0.48 12,7.73 9.13,24.8 -2.53,16.78 -5.05,33.57 -7.57,50.35 -7.94,0.02 -15.88,0.05 -23.82,0.07 2.74,-18.01 5.49,-36.03 8.23,-54.04 -13.76,0.04 -27.51,0.08 -41.27,0.12 -3.22,18.35 -6.45,36.71 -9.67,55.06 -7.68,0.02 -15.37,0.04 -23.05,0.07z"/>
   <path class="fil0" d="M554.11 149.09c-0.98,7.05 -1.97,14.1 -2.96,21.15 19.29,0.11 38.59,0.22 57.88,0.34 -0.05,1.68 -0.1,3.36 -0.15,5.03 -17.56,0.05 -35.12,0.1 -52.68,0.15 -21.04,7.5 -25.09,47.95 -5.39,49.01 24.72,-0.07 49.44,-0.14 74.16,-0.22 2.91,-18.91 5.82,-37.82 8.72,-56.73 1.72,-11.47 -4.43,-17.49 -17,-19.07 -20.86,0.12 -41.72,0.23 -62.58,0.35zm9.42 47.44l41.61 -0.12 -1.82 8.23 -41.61 0.12 1.82 -8.23z"/>
   <path class="fil1" d="M169.91 117.82l4.68 -22.29 -7.94 0.02 0.95 -4.53 21.26 -0.06 -0.95 4.53 -7.9 0.02 -4.68 22.29 -5.43 0.02zm19.64 -0.06l-5.13 0.02 4.08 -19.44 4.75 -0.01 -0.58 2.76c1.09,-1.31 2.01,-2.16 2.75,-2.57 0.74,-0.41 1.53,-0.61 2.36,-0.61 1.17,-0 2.23,0.32 3.18,0.96l-2.53 4.49c-0.75,-0.56 -1.49,-0.84 -2.24,-0.83 -0.72,0 -1.38,0.2 -1.96,0.6 -0.58,0.4 -1.12,1.11 -1.63,2.15 -0.5,1.04 -1.1,3.21 -1.8,6.51l-1.26 5.99zm16.31 -13.49l-4.47 -0.81c0.92,-1.9 2.12,-3.31 3.59,-4.22 1.47,-0.92 3.47,-1.38 5.99,-1.38 2.29,-0.01 3.94,0.26 4.95,0.8 1,0.54 1.65,1.22 1.93,2.06 0.28,0.83 0.19,2.36 -0.28,4.6l-1.33 5.99c-0.36,1.71 -0.54,2.97 -0.55,3.78 -0.01,0.81 0.12,1.68 0.37,2.6l-5.09 0.02c-0.06,-0.34 -0.12,-0.84 -0.18,-1.5 -0.02,-0.31 -0.04,-0.51 -0.06,-0.6 -1.05,0.87 -2.12,1.51 -3.21,1.94 -1.09,0.43 -2.19,0.66 -3.32,0.66 -1.99,0.01 -3.45,-0.53 -4.37,-1.61 -0.92,-1.08 -1.21,-2.45 -0.86,-4.11 0.23,-1.09 0.7,-2.07 1.4,-2.94 0.7,-0.86 1.57,-1.52 2.62,-1.98 1.04,-0.46 2.48,-0.86 4.33,-1.21 2.49,-0.46 4.25,-0.88 5.25,-1.27l0.11 -0.52c0.21,-1 0.12,-1.71 -0.28,-2.14 -0.4,-0.42 -1.28,-0.63 -2.64,-0.63 -0.92,0 -1.67,0.19 -2.26,0.56 -0.59,0.36 -1.14,1.01 -1.65,1.93zm6.01 4.14c-0.7,0.22 -1.8,0.49 -3.29,0.8 -1.49,0.31 -2.49,0.61 -2.98,0.9 -0.77,0.48 -1.23,1.09 -1.38,1.81 -0.15,0.72 -0.02,1.34 0.41,1.87 0.43,0.52 1.05,0.78 1.88,0.78 0.92,-0 1.87,-0.31 2.84,-0.92 0.72,-0.47 1.25,-1.03 1.58,-1.71 0.22,-0.44 0.47,-1.27 0.73,-2.5l0.21 -1.02zm25.83 9.21l-5.13 0.02 2.08 -9.91c0.44,-2.1 0.61,-3.45 0.52,-4.06 -0.09,-0.62 -0.35,-1.09 -0.78,-1.43 -0.43,-0.34 -0.99,-0.51 -1.69,-0.51 -0.9,0 -1.75,0.25 -2.57,0.74 -0.82,0.49 -1.44,1.14 -1.87,1.94 -0.44,0.81 -0.88,2.29 -1.34,4.47l-1.85 8.79 -5.13 0.02 4.08 -19.44 4.75 -0.01 -0.6 2.85c2.16,-2.18 4.53,-3.27 7.12,-3.28 1.14,-0 2.14,0.2 2.99,0.6 0.86,0.41 1.46,0.93 1.81,1.55 0.35,0.64 0.54,1.35 0.56,2.16 0.03,0.81 -0.12,1.95 -0.44,3.45l-2.53 12.07zm4.51 -5.48l5.33 -0.8c0.01,0.99 0.29,1.75 0.86,2.26 0.56,0.52 1.45,0.77 2.65,0.77 1.33,-0 2.38,-0.25 3.15,-0.74 0.52,-0.34 0.84,-0.81 0.97,-1.38 0.08,-0.39 0.02,-0.71 -0.17,-0.97 -0.2,-0.24 -0.73,-0.47 -1.57,-0.68 -3.96,-0.91 -6.41,-1.73 -7.36,-2.49 -1.32,-1.05 -1.78,-2.51 -1.39,-4.38 0.36,-1.69 1.32,-3.11 2.89,-4.26 1.57,-1.15 3.75,-1.73 6.54,-1.74 2.66,-0.01 4.54,0.42 5.65,1.29 1.11,0.87 1.73,2.15 1.86,3.86l-5.02 0.91c-0.05,-0.76 -0.32,-1.35 -0.82,-1.75 -0.49,-0.41 -1.28,-0.6 -2.36,-0.6 -1.36,0 -2.37,0.19 -3.04,0.58 -0.45,0.27 -0.72,0.62 -0.81,1.04 -0.08,0.37 0.03,0.68 0.32,0.93 0.39,0.34 1.9,0.82 4.51,1.43 2.61,0.62 4.37,1.37 5.26,2.27 0.89,0.91 1.16,2.19 0.81,3.82 -0.37,1.78 -1.44,3.32 -3.2,4.6 -1.75,1.29 -4.09,1.93 -7.01,1.94 -2.65,0.01 -4.63,-0.52 -5.95,-1.59 -1.32,-1.06 -2.02,-2.51 -2.11,-4.34zm25.44 -14.04l4.79 -0.01 -0.6 2.85c0.83,-0.98 1.83,-1.76 3.02,-2.37 1.19,-0.6 2.43,-0.91 3.72,-0.91 2.25,-0.01 3.98,0.88 5.18,2.64 1.2,1.76 1.47,4.23 0.81,7.39 -0.68,3.25 -2.01,5.78 -3.97,7.59 -1.96,1.81 -4.07,2.71 -6.33,2.72 -1.07,0 -2,-0.21 -2.78,-0.64 -0.78,-0.42 -1.55,-1.15 -2.29,-2.18l-2.04 9.73 -5.13 0.02 5.63 -26.82zm3.08 9.41c-0.46,2.19 -0.37,3.81 0.28,4.85 0.64,1.04 1.59,1.56 2.82,1.56 1.19,-0 2.28,-0.49 3.28,-1.45 0.99,-0.97 1.72,-2.54 2.18,-4.73 0.43,-2.05 0.34,-3.56 -0.27,-4.55 -0.6,-0.99 -1.51,-1.48 -2.71,-1.48 -1.26,0 -2.4,0.49 -3.43,1.47 -1.03,0.98 -1.75,2.42 -2.15,4.33zm16.75 0.01c0.36,-1.71 1.12,-3.37 2.3,-4.97 1.18,-1.61 2.63,-2.83 4.34,-3.68 1.72,-0.85 3.52,-1.28 5.43,-1.28 2.94,-0.01 5.14,0.94 6.62,2.85 1.48,1.91 1.9,4.32 1.29,7.24 -0.62,2.95 -2.08,5.39 -4.38,7.33 -2.3,1.94 -4.89,2.92 -7.77,2.92 -1.78,0.01 -3.39,-0.39 -4.84,-1.2 -1.44,-0.8 -2.42,-1.98 -2.94,-3.53 -0.52,-1.55 -0.54,-3.45 -0.07,-5.68zm5.22 0.26c-0.41,1.93 -0.26,3.41 0.44,4.43 0.7,1.03 1.72,1.54 3.06,1.53 1.34,-0 2.56,-0.52 3.69,-1.55 1.12,-1.03 1.89,-2.52 2.3,-4.48 0.4,-1.9 0.25,-3.37 -0.44,-4.39 -0.69,-1.03 -1.7,-1.54 -3.04,-1.53 -1.34,0 -2.57,0.52 -3.71,1.55 -1.12,1.03 -1.89,2.51 -2.3,4.44zm21.66 9.62l-5.13 0.01 4.08 -19.44 4.75 -0.01 -0.58 2.76c1.09,-1.31 2.01,-2.17 2.75,-2.57 0.74,-0.41 1.52,-0.61 2.35,-0.61 1.17,-0 2.24,0.32 3.19,0.96l-2.53 4.49c-0.75,-0.56 -1.5,-0.84 -2.24,-0.83 -0.72,0 -1.38,0.2 -1.96,0.6 -0.58,0.4 -1.13,1.12 -1.63,2.15 -0.5,1.04 -1.1,3.21 -1.8,6.51l-1.26 5.99zm22.62 -19.5l-0.86 4.08 -3.52 0.01 -1.65 7.87c-0.34,1.6 -0.5,2.53 -0.49,2.79 0.01,0.26 0.12,0.48 0.32,0.65 0.2,0.17 0.47,0.25 0.81,0.25 0.48,0 1.2,-0.17 2.17,-0.5l-0.41 3.99c-1.3,0.52 -2.7,0.78 -4.21,0.78 -0.92,0 -1.72,-0.15 -2.4,-0.46 -0.68,-0.31 -1.14,-0.71 -1.37,-1.21 -0.24,-0.5 -0.34,-1.17 -0.3,-2.02 0.02,-0.6 0.22,-1.81 0.6,-3.64l1.79 -8.51 -2.36 0.01 0.86 -4.08 2.36 -0.01 0.81 -3.86 5.77 -3.05 -1.45 6.89 3.52 -0.01zm12.03 13.25l4.95 0.85c-1.05,1.88 -2.39,3.31 -4.01,4.3 -1.63,0.98 -3.51,1.48 -5.64,1.49 -3.38,0.01 -5.65,-1.09 -6.8,-3.29 -0.91,-1.77 -1.08,-4 -0.51,-6.7 0.68,-3.22 2.05,-5.75 4.11,-7.58 2.06,-1.83 4.38,-2.75 6.95,-2.76 2.88,-0.01 4.96,0.94 6.23,2.85 1.26,1.91 1.45,4.83 0.54,8.78l-12.84 0.04c-0.28,1.52 -0.12,2.71 0.49,3.55 0.61,0.85 1.5,1.27 2.68,1.27 0.8,-0 1.52,-0.22 2.16,-0.66 0.64,-0.44 1.2,-1.14 1.68,-2.12zm1.39 -5.21c0.28,-1.49 0.14,-2.63 -0.43,-3.4 -0.57,-0.78 -1.37,-1.16 -2.42,-1.16 -1.12,0 -2.13,0.42 -3.03,1.24 -0.9,0.82 -1.49,1.94 -1.77,3.34l7.65 -0.02zm6.22 5.86l5.33 -0.8c0.01,0.99 0.29,1.75 0.86,2.26 0.56,0.52 1.45,0.77 2.65,0.77 1.33,-0 2.38,-0.25 3.15,-0.74 0.52,-0.34 0.84,-0.81 0.97,-1.38 0.08,-0.39 0.02,-0.71 -0.17,-0.97 -0.2,-0.24 -0.73,-0.47 -1.57,-0.68 -3.96,-0.9 -6.41,-1.73 -7.36,-2.49 -1.32,-1.05 -1.78,-2.51 -1.39,-4.38 0.36,-1.69 1.32,-3.11 2.89,-4.26 1.57,-1.15 3.75,-1.73 6.54,-1.74 2.66,-0.01 4.55,0.42 5.65,1.29 1.11,0.87 1.73,2.15 1.86,3.86l-5.02 0.91c-0.05,-0.76 -0.32,-1.35 -0.82,-1.75 -0.49,-0.4 -1.28,-0.6 -2.36,-0.6 -1.36,0 -2.37,0.19 -3.05,0.58 -0.45,0.27 -0.71,0.62 -0.8,1.05 -0.08,0.37 0.02,0.68 0.31,0.93 0.4,0.34 1.9,0.82 4.51,1.43 2.61,0.62 4.37,1.37 5.27,2.27 0.89,0.91 1.15,2.19 0.81,3.82 -0.37,1.78 -1.44,3.32 -3.2,4.6 -1.75,1.28 -4.09,1.93 -7.01,1.94 -2.65,0.01 -4.63,-0.52 -5.95,-1.59 -1.32,-1.06 -2.02,-2.51 -2.11,-4.34z"/>
   <path class="fil1" d="M437.86 298.57l3.65 -0.01 -0.46 2.17c0.63,-0.74 1.39,-1.34 2.3,-1.81 0.9,-0.46 1.85,-0.69 2.83,-0.69 1.71,-0.01 3.03,0.66 3.95,2.01 0.91,1.34 1.12,3.22 0.61,5.63 -0.52,2.48 -1.53,4.4 -3.02,5.78 -1.49,1.38 -3.1,2.07 -4.82,2.07 -0.82,0 -1.52,-0.16 -2.12,-0.48 -0.59,-0.32 -1.18,-0.88 -1.75,-1.66l-1.55 7.41 -3.9 0.01 4.29 -20.42zm2.34 7.16c-0.35,1.67 -0.28,2.9 0.21,3.7 0.49,0.79 1.21,1.19 2.15,1.19 0.91,-0 1.74,-0.37 2.5,-1.1 0.76,-0.73 1.31,-1.93 1.66,-3.6 0.33,-1.56 0.26,-2.71 -0.2,-3.47 -0.46,-0.75 -1.15,-1.13 -2.07,-1.12 -0.96,0 -1.83,0.37 -2.61,1.12 -0.79,0.74 -1.33,1.84 -1.64,3.3zm15.81 7.58l-3.9 0.01 3.11 -14.8 3.62 -0.01 -0.44 2.1c0.83,-1 1.53,-1.65 2.09,-1.96 0.56,-0.31 1.16,-0.46 1.79,-0.47 0.89,-0 1.7,0.24 2.43,0.73l-1.93 3.42c-0.57,-0.43 -1.14,-0.64 -1.7,-0.64 -0.55,0 -1.05,0.15 -1.49,0.46 -0.44,0.31 -0.86,0.85 -1.24,1.64 -0.39,0.79 -0.84,2.44 -1.37,4.96l-0.96 4.56zm8.04 -7.6c0.27,-1.3 0.86,-2.56 1.75,-3.78 0.9,-1.22 2,-2.15 3.31,-2.8 1.31,-0.64 2.68,-0.97 4.13,-0.98 2.24,-0.01 3.91,0.71 5.04,2.17 1.12,1.45 1.45,3.29 0.98,5.51 -0.47,2.24 -1.58,4.1 -3.33,5.58 -1.75,1.48 -3.72,2.22 -5.91,2.22 -1.36,0 -2.58,-0.3 -3.68,-0.91 -1.1,-0.61 -1.84,-1.51 -2.24,-2.69 -0.39,-1.18 -0.41,-2.63 -0.05,-4.33zm3.97 0.2c-0.31,1.47 -0.2,2.6 0.33,3.37 0.53,0.78 1.31,1.17 2.33,1.17 1.02,-0 1.95,-0.39 2.81,-1.18 0.85,-0.78 1.44,-1.92 1.75,-3.41 0.31,-1.45 0.19,-2.56 -0.33,-3.34 -0.53,-0.78 -1.3,-1.17 -2.31,-1.17 -1.02,0 -1.96,0.4 -2.82,1.18 -0.86,0.78 -1.44,1.91 -1.75,3.38zm14.15 -7.47l2.17 -0.01 0.24 -1.12c0.26,-1.25 0.59,-2.18 0.98,-2.79 0.4,-0.62 0.99,-1.12 1.78,-1.51 0.8,-0.39 1.74,-0.58 2.83,-0.59 1.12,-0 2.18,0.16 3.18,0.49l-1.07 2.72c-0.61,-0.15 -1.2,-0.22 -1.79,-0.22 -0.58,0 -1.02,0.14 -1.33,0.4 -0.31,0.27 -0.54,0.78 -0.7,1.54l-0.22 1.05 2.93 -0.01 -0.65 3.08 -2.93 0.01 -2.46 11.72 -3.9 0.01 2.46 -11.72 -2.17 0.01 0.65 -3.08zm17.63 10.07l3.77 0.64c-0.8,1.43 -1.82,2.52 -3.06,3.28 -1.24,0.75 -2.67,1.13 -4.29,1.13 -2.57,0.01 -4.3,-0.83 -5.17,-2.51 -0.69,-1.35 -0.82,-3.05 -0.39,-5.11 0.51,-2.45 1.56,-4.38 3.13,-5.77 1.57,-1.4 3.34,-2.09 5.29,-2.1 2.2,-0.01 3.78,0.71 4.75,2.17 0.96,1.45 1.1,3.68 0.41,6.68l-9.78 0.03c-0.21,1.16 -0.09,2.06 0.38,2.71 0.46,0.64 1.15,0.97 2.04,0.96 0.61,-0 1.16,-0.17 1.64,-0.5 0.49,-0.34 0.92,-0.87 1.29,-1.61zm1.06 -3.97c0.21,-1.14 0.1,-2 -0.33,-2.59 -0.43,-0.59 -1.04,-0.88 -1.84,-0.88 -0.85,0 -1.62,0.32 -2.31,0.94 -0.69,0.62 -1.14,1.48 -1.35,2.54l5.83 -0.02zm4.74 4.46l4.06 -0.61c0.01,0.76 0.22,1.33 0.66,1.72 0.42,0.39 1.1,0.59 2.02,0.58 1.01,-0 1.81,-0.19 2.4,-0.56 0.4,-0.26 0.64,-0.61 0.73,-1.05 0.06,-0.29 0.02,-0.54 -0.12,-0.73 -0.16,-0.19 -0.56,-0.36 -1.2,-0.52 -3.01,-0.69 -4.88,-1.32 -5.6,-1.89 -1,-0.8 -1.36,-1.91 -1.06,-3.33 0.27,-1.29 1,-2.37 2.2,-3.24 1.2,-0.88 2.85,-1.32 4.98,-1.33 2.02,-0.01 3.46,0.32 4.31,0.98 0.84,0.66 1.32,1.64 1.41,2.94l-3.82 0.7c-0.03,-0.58 -0.25,-1.03 -0.62,-1.33 -0.38,-0.31 -0.98,-0.46 -1.8,-0.46 -1.04,0 -1.81,0.15 -2.32,0.44 -0.34,0.21 -0.54,0.47 -0.61,0.8 -0.06,0.28 0.02,0.52 0.24,0.71 0.3,0.26 1.45,0.62 3.44,1.09 1.99,0.47 3.33,1.05 4.01,1.73 0.68,0.69 0.88,1.66 0.62,2.91 -0.29,1.36 -1.1,2.53 -2.44,3.5 -1.33,0.98 -3.11,1.47 -5.34,1.48 -2.01,0.01 -3.52,-0.4 -4.53,-1.21 -1,-0.81 -1.54,-1.91 -1.61,-3.31zm19.9 -12.69l0.76 -3.62 3.9 -0.01 -0.76 3.62 -3.9 0.01zm-3.53 16.8l3.11 -14.8 3.9 -0.01 -3.11 14.8 -3.9 0.01zm8.6 -7.6c0.27,-1.3 0.86,-2.56 1.75,-3.78 0.9,-1.22 2,-2.15 3.31,-2.8 1.31,-0.65 2.68,-0.97 4.13,-0.98 2.24,-0.01 3.91,0.72 5.04,2.17 1.12,1.46 1.45,3.29 0.98,5.51 -0.47,2.24 -1.58,4.1 -3.33,5.58 -1.75,1.48 -3.72,2.22 -5.91,2.23 -1.36,0 -2.58,-0.3 -3.68,-0.91 -1.1,-0.61 -1.84,-1.51 -2.24,-2.69 -0.39,-1.18 -0.41,-2.63 -0.05,-4.33zm3.97 0.2c-0.31,1.47 -0.2,2.6 0.33,3.37 0.53,0.78 1.31,1.17 2.33,1.17 1.02,-0 1.95,-0.39 2.81,-1.18 0.85,-0.78 1.44,-1.92 1.75,-3.41 0.31,-1.45 0.19,-2.56 -0.33,-3.34 -0.53,-0.78 -1.3,-1.17 -2.31,-1.17 -1.02,0 -1.96,0.4 -2.82,1.18 -0.86,0.78 -1.44,1.91 -1.75,3.38zm26.21 7.29l-3.91 0.01 1.58 -7.54c0.34,-1.6 0.47,-2.63 0.4,-3.09 -0.07,-0.47 -0.27,-0.83 -0.59,-1.09 -0.32,-0.26 -0.75,-0.39 -1.29,-0.39 -0.68,0 -1.34,0.19 -1.96,0.56 -0.62,0.37 -1.1,0.87 -1.42,1.48 -0.33,0.61 -0.67,1.75 -1.02,3.4l-1.41 6.69 -3.9 0.01 3.11 -14.8 3.62 -0.01 -0.46 2.17c1.65,-1.66 3.45,-2.49 5.42,-2.5 0.87,-0 1.63,0.15 2.28,0.46 0.66,0.31 1.11,0.71 1.38,1.19 0.27,0.48 0.41,1.03 0.42,1.64 0.02,0.61 -0.09,1.49 -0.33,2.63l-1.93 9.19zm9.01 -10.26l-3.4 -0.62c0.7,-1.45 1.61,-2.52 2.73,-3.21 1.12,-0.7 2.64,-1.05 4.56,-1.05 1.75,-0 3,0.2 3.77,0.61 0.76,0.41 1.26,0.93 1.47,1.57 0.21,0.64 0.14,1.8 -0.21,3.5l-1.02 4.56c-0.27,1.3 -0.41,2.26 -0.42,2.88 -0.01,0.62 0.09,1.28 0.28,1.98l-3.88 0.01c-0.05,-0.26 -0.09,-0.64 -0.14,-1.14 -0.01,-0.23 -0.03,-0.38 -0.04,-0.46 -0.8,0.66 -1.62,1.15 -2.45,1.48 -0.83,0.33 -1.67,0.5 -2.53,0.5 -1.52,0 -2.63,-0.41 -3.33,-1.23 -0.7,-0.82 -0.92,-1.87 -0.65,-3.13 0.18,-0.83 0.53,-1.58 1.07,-2.24 0.54,-0.65 1.2,-1.16 1.99,-1.51 0.79,-0.35 1.89,-0.66 3.3,-0.92 1.9,-0.35 3.23,-0.68 4,-0.97l0.08 -0.39c0.16,-0.76 0.09,-1.3 -0.21,-1.63 -0.31,-0.32 -0.98,-0.48 -2.01,-0.48 -0.7,0 -1.27,0.14 -1.72,0.42 -0.45,0.28 -0.87,0.77 -1.26,1.47zm4.58 3.15c-0.53,0.17 -1.37,0.37 -2.51,0.61 -1.13,0.24 -1.89,0.47 -2.27,0.69 -0.58,0.37 -0.94,0.83 -1.05,1.38 -0.12,0.55 -0.01,1.02 0.32,1.42 0.32,0.4 0.8,0.6 1.43,0.59 0.7,-0 1.43,-0.24 2.17,-0.7 0.54,-0.36 0.95,-0.79 1.2,-1.3 0.17,-0.33 0.36,-0.97 0.55,-1.91l0.16 -0.78zm6.21 7.05l4.29 -20.42 3.9 -0.01 -4.29 20.42 -3.91 0.01zm10.74 -14.82l3.59 -0.01 -0.42 2.02c1.61,-1.56 3.31,-2.34 5.09,-2.35 0.95,-0 1.73,0.19 2.34,0.58 0.62,0.39 1.06,0.98 1.34,1.76 0.82,-0.79 1.64,-1.38 2.48,-1.78 0.83,-0.39 1.68,-0.59 2.53,-0.59 1.08,-0 1.95,0.21 2.62,0.65 0.66,0.44 1.08,1.09 1.27,1.94 0.14,0.63 0.06,1.65 -0.24,3.06l-1.98 9.45 -3.91 0.01 1.77 -8.45c0.31,-1.47 0.37,-2.41 0.19,-2.84 -0.24,-0.55 -0.75,-0.83 -1.5,-0.83 -0.54,0 -1.1,0.17 -1.65,0.5 -0.55,0.34 -1.01,0.83 -1.36,1.47 -0.35,0.65 -0.67,1.66 -0.96,3.06l-1.49 7.1 -3.9 0.01 1.7 -8.1c0.3,-1.43 0.43,-2.37 0.37,-2.78 -0.05,-0.42 -0.2,-0.73 -0.45,-0.93 -0.25,-0.2 -0.63,-0.3 -1.12,-0.3 -0.6,0 -1.18,0.16 -1.73,0.49 -0.55,0.33 -0.99,0.8 -1.33,1.41 -0.34,0.61 -0.66,1.63 -0.95,3.05l-1.51 7.18 -3.9 0.01 3.11 -14.8zm32.06 10.02l3.77 0.64c-0.8,1.43 -1.82,2.52 -3.06,3.28 -1.24,0.75 -2.67,1.13 -4.29,1.13 -2.57,0.01 -4.3,-0.83 -5.17,-2.51 -0.69,-1.35 -0.82,-3.05 -0.39,-5.11 0.51,-2.45 1.56,-4.38 3.13,-5.77 1.57,-1.4 3.34,-2.1 5.29,-2.1 2.2,-0 3.78,0.72 4.74,2.17 0.96,1.45 1.1,3.68 0.42,6.68l-9.78 0.03c-0.22,1.16 -0.09,2.06 0.38,2.71 0.46,0.64 1.15,0.97 2.04,0.96 0.61,0 1.16,-0.17 1.64,-0.5 0.49,-0.33 0.92,-0.87 1.28,-1.61zm1.06 -3.96c0.21,-1.14 0.1,-2 -0.33,-2.59 -0.43,-0.59 -1.04,-0.89 -1.84,-0.88 -0.85,0 -1.62,0.32 -2.31,0.94 -0.69,0.63 -1.14,1.48 -1.35,2.54l5.83 -0.02zm18.71 8.58l-3.9 0.01 1.58 -7.55c0.34,-1.6 0.47,-2.63 0.4,-3.09 -0.07,-0.47 -0.27,-0.83 -0.59,-1.09 -0.33,-0.26 -0.75,-0.39 -1.29,-0.39 -0.68,0 -1.34,0.19 -1.95,0.56 -0.63,0.37 -1.1,0.87 -1.42,1.48 -0.33,0.61 -0.67,1.75 -1.02,3.4l-1.41 6.69 -3.91 0.01 3.11 -14.8 3.62 -0.01 -0.46 2.17c1.65,-1.66 3.45,-2.49 5.42,-2.5 0.87,-0 1.63,0.15 2.28,0.46 0.66,0.31 1.12,0.7 1.38,1.18 0.27,0.48 0.41,1.03 0.42,1.64 0.02,0.61 -0.1,1.49 -0.33,2.63l-1.93 9.19zm13.82 -14.83l-0.65 3.11 -2.68 0.01 -1.26 5.99c-0.25,1.22 -0.38,1.92 -0.37,2.12 0.01,0.2 0.09,0.37 0.25,0.5 0.15,0.13 0.36,0.19 0.62,0.19 0.37,0 0.92,-0.13 1.66,-0.38l-0.31 3.04c-0.99,0.39 -2.05,0.59 -3.21,0.59 -0.7,0 -1.31,-0.12 -1.83,-0.35 -0.51,-0.24 -0.86,-0.54 -1.05,-0.92 -0.19,-0.38 -0.26,-0.89 -0.23,-1.53 0.02,-0.46 0.17,-1.38 0.46,-2.77l1.36 -6.48 -1.8 0.01 0.65 -3.11 1.8 -0.01 0.62 -2.94 4.39 -2.32 -1.1 5.25 2.68 -0.01zm9.16 10.09l3.77 0.64c-0.8,1.43 -1.82,2.52 -3.06,3.28 -1.24,0.75 -2.67,1.13 -4.29,1.13 -2.57,0.01 -4.3,-0.83 -5.17,-2.51 -0.69,-1.35 -0.82,-3.05 -0.39,-5.11 0.52,-2.45 1.56,-4.38 3.13,-5.77 1.57,-1.39 3.34,-2.09 5.29,-2.1 2.19,-0.01 3.78,0.72 4.74,2.17 0.96,1.45 1.1,3.68 0.42,6.68l-9.78 0.03c-0.22,1.16 -0.09,2.06 0.38,2.71 0.46,0.64 1.14,0.97 2.04,0.96 0.61,-0 1.16,-0.17 1.65,-0.5 0.49,-0.33 0.92,-0.87 1.28,-1.61zm1.06 -3.97c0.21,-1.14 0.1,-2 -0.33,-2.59 -0.43,-0.59 -1.04,-0.88 -1.84,-0.88 -0.85,0 -1.62,0.32 -2.31,0.94 -0.69,0.62 -1.14,1.48 -1.35,2.54l5.83 -0.02zm16 -6.2l3.59 -0.01 -0.42 2.02c1.61,-1.56 3.31,-2.34 5.09,-2.35 0.95,-0 1.73,0.19 2.34,0.58 0.62,0.39 1.06,0.98 1.34,1.76 0.82,-0.79 1.64,-1.38 2.48,-1.78 0.83,-0.39 1.68,-0.59 2.53,-0.59 1.09,-0 1.95,0.21 2.62,0.65 0.66,0.44 1.08,1.09 1.27,1.94 0.14,0.63 0.06,1.65 -0.24,3.06l-1.98 9.45 -3.91 0.01 1.77 -8.45c0.31,-1.47 0.37,-2.41 0.19,-2.84 -0.24,-0.55 -0.75,-0.83 -1.49,-0.83 -0.55,0 -1.1,0.17 -1.65,0.5 -0.55,0.34 -1.01,0.83 -1.35,1.47 -0.35,0.65 -0.67,1.66 -0.96,3.06l-1.49 7.1 -3.9 0.01 1.7 -8.1c0.3,-1.43 0.43,-2.37 0.37,-2.78 -0.05,-0.42 -0.2,-0.73 -0.45,-0.93 -0.25,-0.2 -0.63,-0.3 -1.12,-0.3 -0.6,0 -1.18,0.17 -1.73,0.49 -0.55,0.33 -0.99,0.8 -1.33,1.41 -0.34,0.61 -0.66,1.63 -0.95,3.05l-1.51 7.18 -3.9 0.01 3.11 -14.8zm32.06 10.02l3.77 0.64c-0.8,1.43 -1.82,2.52 -3.06,3.28 -1.24,0.75 -2.67,1.13 -4.29,1.14 -2.57,0.01 -4.3,-0.83 -5.17,-2.51 -0.69,-1.35 -0.82,-3.05 -0.39,-5.11 0.51,-2.45 1.56,-4.38 3.13,-5.77 1.57,-1.4 3.34,-2.1 5.29,-2.1 2.2,-0.01 3.78,0.72 4.74,2.17 0.96,1.45 1.1,3.68 0.42,6.68l-9.78 0.03c-0.21,1.16 -0.09,2.06 0.38,2.71 0.46,0.64 1.15,0.97 2.04,0.96 0.61,0 1.16,-0.17 1.64,-0.5 0.49,-0.33 0.92,-0.87 1.28,-1.61zm1.06 -3.96c0.21,-1.14 0.1,-2 -0.33,-2.59 -0.43,-0.59 -1.04,-0.89 -1.84,-0.88 -0.85,0 -1.62,0.32 -2.31,0.94 -0.69,0.63 -1.14,1.48 -1.35,2.54l5.83 -0.02zm8.7 -8.18l0.76 -3.62 3.9 -0.01 -0.76 3.62 -3.9 0.01zm3.49 1.99l-3.01 14.33c-0.39,1.88 -0.8,3.21 -1.21,3.99 -0.41,0.78 -1.01,1.39 -1.8,1.82 -0.79,0.44 -1.73,0.66 -2.82,0.66 -0.39,0 -0.8,-0.03 -1.24,-0.1 -0.44,-0.07 -0.9,-0.17 -1.39,-0.31l1.37 -3.33c0.18,0.03 0.35,0.07 0.51,0.09 0.15,0.02 0.31,0.03 0.45,0.03 0.4,0 0.75,-0.09 1.04,-0.26 0.29,-0.17 0.51,-0.38 0.64,-0.62 0.14,-0.24 0.33,-0.97 0.58,-2.17l2.97 -14.12 3.9 -0.01zm1.67 7.21c0.27,-1.3 0.86,-2.56 1.75,-3.78 0.9,-1.22 2,-2.15 3.31,-2.8 1.31,-0.64 2.68,-0.97 4.13,-0.98 2.24,-0.01 3.91,0.71 5.04,2.17 1.12,1.46 1.45,3.29 0.98,5.51 -0.47,2.24 -1.58,4.1 -3.33,5.58 -1.75,1.48 -3.72,2.22 -5.91,2.23 -1.35,0 -2.58,-0.3 -3.68,-0.91 -1.1,-0.61 -1.85,-1.51 -2.24,-2.69 -0.39,-1.18 -0.41,-2.63 -0.05,-4.33zm3.98 0.2c-0.31,1.47 -0.2,2.6 0.33,3.37 0.53,0.78 1.31,1.17 2.33,1.17 1.02,-0 1.95,-0.39 2.81,-1.18 0.85,-0.78 1.44,-1.92 1.75,-3.41 0.31,-1.45 0.19,-2.56 -0.33,-3.34 -0.52,-0.78 -1.3,-1.17 -2.31,-1.17 -1.02,0 -1.96,0.4 -2.82,1.18 -0.86,0.78 -1.44,1.91 -1.75,3.38zm16.49 7.32l-3.9 0.01 3.11 -14.8 3.62 -0.01 -0.44 2.1c0.83,-1 1.53,-1.65 2.09,-1.96 0.56,-0.31 1.16,-0.47 1.79,-0.47 0.89,-0 1.7,0.24 2.43,0.73l-1.93 3.42c-0.57,-0.42 -1.14,-0.64 -1.7,-0.64 -0.55,0 -1.05,0.16 -1.49,0.46 -0.44,0.31 -0.86,0.85 -1.24,1.64 -0.39,0.79 -0.84,2.44 -1.37,4.96l-0.96 4.56zm16.89 -4.72l3.77 0.64c-0.8,1.43 -1.82,2.52 -3.06,3.28 -1.24,0.75 -2.67,1.13 -4.29,1.14 -2.57,0.01 -4.3,-0.83 -5.17,-2.51 -0.69,-1.35 -0.82,-3.05 -0.39,-5.11 0.51,-2.45 1.56,-4.38 3.13,-5.77 1.57,-1.4 3.34,-2.1 5.29,-2.1 2.2,-0.01 3.78,0.72 4.75,2.17 0.96,1.45 1.1,3.68 0.41,6.68l-9.78 0.03c-0.21,1.16 -0.09,2.06 0.38,2.71 0.46,0.64 1.15,0.97 2.04,0.96 0.61,0 1.16,-0.17 1.64,-0.5 0.49,-0.33 0.92,-0.87 1.28,-1.61zm1.06 -3.97c0.21,-1.14 0.1,-2 -0.33,-2.59 -0.43,-0.59 -1.04,-0.89 -1.84,-0.88 -0.85,0 -1.62,0.32 -2.31,0.94 -0.69,0.63 -1.14,1.48 -1.35,2.54l5.83 -0.02zm4.74 4.46l4.06 -0.61c0.01,0.76 0.22,1.33 0.66,1.72 0.42,0.39 1.1,0.58 2.02,0.58 1.01,-0 1.81,-0.19 2.4,-0.56 0.4,-0.26 0.64,-0.61 0.73,-1.05 0.06,-0.29 0.02,-0.54 -0.12,-0.74 -0.16,-0.19 -0.56,-0.36 -1.2,-0.51 -3.01,-0.69 -4.88,-1.32 -5.6,-1.89 -1,-0.8 -1.36,-1.91 -1.06,-3.33 0.27,-1.29 1,-2.37 2.2,-3.25 1.2,-0.88 2.85,-1.32 4.98,-1.33 2.02,-0 3.46,0.32 4.31,0.98 0.84,0.66 1.32,1.64 1.41,2.94l-3.82 0.7c-0.03,-0.58 -0.25,-1.02 -0.62,-1.33 -0.38,-0.31 -0.98,-0.46 -1.8,-0.46 -1.04,0 -1.81,0.15 -2.32,0.44 -0.34,0.2 -0.54,0.47 -0.61,0.8 -0.06,0.28 0.02,0.52 0.24,0.71 0.3,0.26 1.45,0.62 3.44,1.09 1.99,0.47 3.33,1.04 4.01,1.73 0.68,0.69 0.88,1.66 0.62,2.91 -0.29,1.36 -1.1,2.53 -2.44,3.5 -1.34,0.98 -3.11,1.47 -5.34,1.48 -2.01,0.01 -3.52,-0.4 -4.53,-1.21 -1,-0.81 -1.54,-1.91 -1.61,-3.31z"/>
   <path class="fil0" d="M486.33 236.16l-1.98 11.25 -37.42 0.11 -0.99 4.2 33.55 -0.1 -1.98 11.92 -33.72 0.1 -1.65 10.24 38.25 -0.11 -2.15 11.58c-14.65,0.04 -29.3,0.08 -43.95,0.13 -6.63,0.22 -6.83,-4.85 -6.07,-10.72 1.42,-9.85 2.85,-19.69 4.28,-29.54 1.11,-6.21 4.94,-9.07 11.21,-8.92l42.61 -0.12z"/>
   <polygon class="fil0" points="502.8,244.05 509.55,260.3 522.93,243.65 537.86,243.61 522.31,262.61 530.76,284.4 516.84,284.44 510.25,268.68 496.54,284.83 480.94,284.88 497.32,266.04 488.54,244.09 "/>
   <path class="fil0" d="M540.21 243.94l-8.08 49.35 13.59 -0.04 1.99 -9.07c10.18,-0.03 20.35,-0.06 30.53,-0.09 5.44,-0.1 8.22,-3.39 9.2,-9.59 1.04,-6.55 2.09,-13.09 3.13,-19.64 1.15,-6.89 -1.65,-10.78 -8.76,-11.38l-41.61 0.46zm36.27 11.81l-2.97 17.12 -24.83 0.07 3.81 -17.12 23.99 -0.07z"/>
   <polygon class="fil0" points="595.5,244.28 609.59,244.24 609.93,246.75 612.44,243.73 623.68,243.69 621.7,255.78 607.61,255.82 603.17,284.52 588.4,284.57 "/>
   <path class="fil0" d="M675.26 269.55l-38.76 0.11 0.01 4.02 34.39 -0.1 -2.32 10.91c-12.47,0.03 -24.94,0.07 -37.42,0.11 -7.1,-0.09 -9.35,-3.44 -8.75,-8.7 1.37,-7.78 2.75,-15.55 4.13,-23.33 0.9,-5.15 3.87,-8.68 11.05,-8.92 10.74,-0.03 21.47,-0.06 32.21,-0.09 5.92,0.16 8.46,3.99 7.25,11.89l-1.8 14.1zm-36.23 -14.28l24.75 -0.07 0.01 2.85 -24.75 0.07 -0.01 -2.85z"/>
   <path class="fil0" d="M731.11 243.68l-2.15 11.84 -34.31 0.1 0.01 2.43 38 -0.11c-0.82,5.18 -1.65,10.35 -2.47,15.53 -1.79,7.83 -7.05,11.18 -14.9,11.2l-39.51 0.12 2.65 -11.5 37.75 -0.11 -0.01 -4.03c-9.73,0.03 -19.46,0.06 -29.19,0.08 -9.74,0.08 -7.7,-24.41 5.55,-25.43l38.59 -0.11z"/>
   <path class="fil0" d="M786.13 243.52l-2.14 11.83 -34.31 0.1 0.01 2.43 38 -0.11c-0.82,5.17 -1.65,10.35 -2.47,15.52 -1.79,7.83 -7.04,11.19 -14.9,11.2l-39.51 0.12 2.65 -11.5 37.75 -0.11 -0.01 -4.03c-9.73,0.03 -19.46,0.06 -29.19,0.08 -9.74,0.08 -7.7,-24.41 5.55,-25.43l38.59 -0.11z"/>
  </g>
 </g>
</svg>
