<?xml version="1.0" encoding="UTF-8"?>
<!DOCTYPE svg PUBLIC "-//W3C//DTD SVG 1.1//EN" "http://www.w3.org/Graphics/SVG/1.1/DTD/svg11.dtd">
<!-- Creator: CorelDRAW 2019 (64-Bit) -->
<svg xmlns="http://www.w3.org/2000/svg" xml:space="preserve" width="38.8044mm" height="16.1571mm" version="1.1" style="shape-rendering:geometricPrecision; text-rendering:geometricPrecision; image-rendering:optimizeQuality; fill-rule:evenodd; clip-rule:evenodd"
viewBox="0 0 1670.78 695.67"
 xmlns:xlink="http://www.w3.org/1999/xlink">
 <defs>
  <style type="text/css">
   <![CDATA[
    .fil1 {fill:#FEFEFE}
    .fil0 {fill:#FEFEFE;fill-rule:nonzero}
   ]]>
  </style>
 </defs>
 <g id="Capa_x0020_1">
  <metadata id="CorelCorpID_0Corel-Layer"/>
  <g id="_1821196549648">
   <g>
    <path class="fil0" d="M1326.14 88.3l56.95 58.57 -2.85 2.76 -56.95 -58.57 0 -2.76 2.85 0zm-2.85 2.76l-1.34 -1.38 1.34 -1.38 0 2.76zm59.8 -58.57l-56.95 58.57 -2.85 -2.76 56.95 -58.57 2.85 0 0 2.76zm-2.85 -2.76l1.43 -1.46 1.43 1.46 -2.85 0zm56.95 61.33l-56.95 -58.57 2.85 -2.76 56.95 58.57 0 2.76 -2.85 0zm2.85 -2.76l1.34 1.38 -1.34 1.38 0 -2.76zm-59.8 58.57l56.95 -58.57 2.85 2.76 -56.95 58.57 -2.85 0 0 -2.76zm2.85 2.76l-1.43 1.46 -1.43 -1.46 2.85 0z"/>
   </g>
   <g>
    <path class="fil0" d="M1349.44 88.3l33.66 34.61 -2.85 2.76 -33.66 -34.61 0 -2.76 2.85 0zm-2.85 2.76l-1.34 -1.38 1.34 -1.38 0 2.76zm36.51 -34.61l-33.66 34.61 -2.85 -2.76 33.66 -34.61 2.85 0 0 2.76zm-2.85 -2.76l1.43 -1.46 1.43 1.46 -2.85 0zm33.66 37.37l-33.66 -34.61 2.85 -2.76 33.66 34.61 0 2.76 -2.85 0zm2.85 -2.76l1.34 1.38 -1.34 1.38 0 -2.76zm-36.51 34.61l33.66 -34.61 2.85 2.76 -33.66 34.61 -2.85 0 0 -2.76zm2.85 2.76l-1.43 1.46 -1.43 -1.46 2.85 0z"/>
   </g>
   <g>
    <path class="fil0" d="M1134.17 306.43l45.97 47.27 -2.85 2.76 -45.97 -47.27 0 -2.76 2.85 0zm-2.85 2.76l-1.34 -1.38 1.34 -1.38 0 2.76zm48.82 -47.27l-45.97 47.27 -2.85 -2.76 45.97 -47.27 2.85 0 0 2.76zm-2.85 -2.76l1.43 -1.46 1.43 1.46 -2.85 0zm45.97 50.03l-45.97 -47.28 2.85 -2.76 45.97 47.28 0 2.76 -2.85 0zm2.85 -2.76l1.34 1.38 -1.34 1.38 0 -2.76zm-48.82 47.27l45.97 -47.27 2.85 2.76 -45.97 47.27 -2.85 0 0 -2.76zm2.85 2.76l-1.43 1.46 -1.43 -1.46 2.85 0z"/>
   </g>
   <g>
    <path class="fil0" d="M1153.38 306.43l26.76 27.52 -2.85 2.76 -26.76 -27.52 0 -2.76 2.85 0zm-2.85 2.76l-1.34 -1.38 1.34 -1.38 0 2.76zm29.61 -27.52l-26.76 27.52 -2.85 -2.76 26.76 -27.52 2.85 0 0 2.76zm-2.85 -2.76l1.43 -1.46 1.43 1.46 -2.85 0zm26.76 30.28l-26.76 -27.52 2.85 -2.76 26.76 27.52 0 2.76 -2.85 0zm2.85 -2.76l1.34 1.38 -1.34 1.38 0 -2.76zm-29.61 27.52l26.76 -27.52 2.85 2.76 -26.76 27.52 -2.85 0 0 -2.76zm2.85 2.76l-1.43 1.46 -1.43 -1.46 2.85 0z"/>
   </g>
   <g>
    <path class="fil0" d="M1538.45 306.43l47.6 48.95 -2.85 2.76 -47.6 -48.95 0 -2.76 2.85 0zm-2.85 2.76l-1.34 -1.38 1.34 -1.38 0 2.76zm50.45 -48.95l-47.6 48.95 -2.85 -2.76 47.6 -48.95 2.85 0 0 2.76zm-2.85 -2.76l1.43 -1.46 1.43 1.46 -2.85 0zm47.6 51.71l-47.6 -48.96 2.85 -2.76 47.6 48.96 0 2.76 -2.85 0zm2.85 -2.76l1.34 1.38 -1.34 1.38 0 -2.76zm-50.45 48.95l47.6 -48.95 2.85 2.76 -47.6 48.95 -2.85 0 0 -2.76zm2.85 2.76l-1.43 1.46 -1.43 -1.46 2.85 0z"/>
   </g>
   <g>
    <path class="fil0" d="M1559.7 306.43l26.35 27.1 -2.85 2.76 -26.35 -27.1 0 -2.76 2.85 0zm-2.85 2.76l-1.34 -1.38 1.34 -1.38 0 2.76zm29.2 -27.1l-26.35 27.1 -2.85 -2.76 26.35 -27.1 2.85 0 0 2.76zm-2.85 -2.76l1.43 -1.46 1.43 1.46 -2.85 0zm26.35 29.86l-26.35 -27.1 2.85 -2.76 26.35 27.1 0 2.76 -2.85 0zm2.85 -2.76l1.34 1.38 -1.34 1.38 0 -2.76zm-29.21 27.1l26.35 -27.1 2.85 2.76 -26.35 27.1 -2.85 0 0 -2.76zm2.85 2.76l-1.43 1.46 -1.43 -1.46 2.85 0z"/>
   </g>
   <g>
    <polygon class="fil0" points="1330.39,172.67 1239.63,264.66 1236.8,261.87 1327.56,169.88 "/>
   </g>
   <g>
    <polygon class="fil0" points="1328.82,441.77 1325.99,444.56 1235.23,352.57 1238.06,349.78 "/>
   </g>
   <g>
    <polygon class="fil0" points="1279.72,185.59 1222.03,244.06 1219.2,241.27 1276.9,182.8 "/>
   </g>
   <g>
    <polygon class="fil0" points="1278.15,428.84 1275.32,431.63 1217.64,373.16 1220.46,370.37 "/>
   </g>
   <g>
    <polygon class="fil0" points="1431.86,171.88 1434.69,169.09 1525.44,261.08 1522.62,263.87 "/>
   </g>
   <g>
    <polygon class="fil0" points="1430.29,442.56 1521.05,350.57 1523.87,353.36 1433.12,445.35 "/>
   </g>
   <g>
    <polygon class="fil0" points="1482.53,184.8 1485.35,182.01 1543.04,240.48 1540.22,243.27 "/>
   </g>
   <g>
    <polygon class="fil0" points="1480.96,429.63 1538.65,371.16 1541.47,373.95 1483.78,432.42 "/>
   </g>
   <g>
    <polygon class="fil0" points="1180.52,191.8 1215.5,226.79 1212.69,229.59 1177.71,194.61 "/>
   </g>
   <g>
    <polygon class="fil0" points="1180.52,421.47 1177.71,418.66 1212.69,383.68 1215.5,386.49 "/>
   </g>
   <g>
    <polygon class="fil0" points="1182.67,157.61 1234.88,209.82 1232.07,212.63 1179.86,160.42 "/>
   </g>
   <g>
    <polygon class="fil0" points="1182.67,455.66 1179.86,452.86 1232.07,400.64 1234.88,403.45 "/>
   </g>
   <path class="fil1" d="M1239.31 175.03c4.41,0 7.98,3.58 7.98,7.99 0,4.41 -3.57,7.98 -7.98,7.98 -4.41,0 -7.98,-3.57 -7.98,-7.98 0,-4.41 3.57,-7.99 7.98,-7.99z"/>
   <path class="fil1" d="M1239.31 438.24c4.41,0 7.98,-3.58 7.98,-7.99 0,-4.41 -3.57,-7.98 -7.98,-7.98 -4.41,0 -7.98,3.57 -7.98,7.98 0,4.41 3.57,7.99 7.98,7.99z"/>
   <g>
    <polygon class="fil0" points="1582.37,191.8 1585.18,194.61 1550.19,229.59 1547.39,226.78 "/>
   </g>
   <g>
    <polygon class="fil0" points="1582.37,421.47 1547.39,386.49 1550.19,383.68 1585.18,418.66 "/>
   </g>
   <g>
    <polygon class="fil0" points="1580.22,157.6 1583.02,160.41 1530.81,212.63 1528.01,209.82 "/>
   </g>
   <g>
    <polygon class="fil0" points="1580.22,455.67 1528.01,403.45 1530.81,400.64 1583.02,452.86 "/>
   </g>
   <path class="fil1" d="M1523.58 175.03c-4.41,0 -7.98,3.57 -7.98,7.98 0,4.41 3.57,7.99 7.98,7.99 4.41,0 7.99,-3.58 7.99,-7.99 0,-4.41 -3.58,-7.98 -7.99,-7.98z"/>
   <path class="fil1" d="M1523.58 438.24c-4.41,0 -7.98,-3.57 -7.98,-7.98 0,-4.41 3.57,-7.98 7.98,-7.98 4.41,0 7.99,3.57 7.99,7.98 0,4.41 -3.58,7.98 -7.99,7.98z"/>
   <g>
    <path class="fil0" d="M1254.68 305.16l129.73 133.41 -5.49 5.3 -129.73 -133.41 0 -5.3 5.49 0zm-5.49 5.3l-2.58 -2.65 2.58 -2.65 0 5.3zm135.23 -133.41l-129.73 133.41 -5.49 -5.3 129.73 -133.41 5.49 0 0 5.3zm-5.49 -5.3l2.75 -2.82 2.75 2.82 -5.49 0zm129.73 138.73l-129.73 -133.42 5.49 -5.3 129.73 133.42 0 5.3 -5.49 0zm5.49 -5.3l2.58 2.65 -2.58 2.65 0 -5.3zm-135.22 133.41l129.73 -133.41 5.49 5.3 -129.73 133.41 -5.49 0 0 -5.3zm5.49 5.3l-2.75 2.82 -2.75 -2.82 5.49 0z"/>
   </g>
   <g>
    <polygon class="fil0" points="1350.63,180.73 1363.28,193.38 1357.88,198.79 1345.22,186.14 "/>
   </g>
   <g>
    <polygon class="fil0" points="1413.11,180.73 1418.52,186.14 1405.87,198.79 1400.46,193.38 "/>
   </g>
   <g>
    <polygon class="fil0" points="1328.47,203.52 1341.12,216.18 1335.72,221.59 1323.06,208.93 "/>
   </g>
   <g>
    <polygon class="fil0" points="1435.27,203.52 1440.68,208.93 1428.03,221.59 1422.62,216.18 "/>
   </g>
   <g>
    <polygon class="fil0" points="1306.31,226.31 1318.96,238.97 1313.55,244.38 1300.9,231.72 "/>
   </g>
   <g>
    <polygon class="fil0" points="1457.43,226.31 1462.84,231.72 1450.19,244.38 1444.78,238.97 "/>
   </g>
   <g>
    <polygon class="fil0" points="1284.15,249.1 1296.8,261.76 1291.39,267.17 1278.74,254.51 "/>
   </g>
   <g>
    <polygon class="fil0" points="1479.6,249.1 1485.01,254.51 1472.35,267.17 1466.94,261.76 "/>
   </g>
   <g>
    <polygon class="fil0" points="1261.99,271.89 1274.64,284.55 1269.23,289.96 1256.58,277.3 "/>
   </g>
   <g>
    <polygon class="fil0" points="1501.76,271.89 1507.17,277.3 1494.51,289.96 1489.1,284.55 "/>
   </g>
   <g>
    <polygon class="fil0" points="1350.63,434.61 1345.22,429.2 1357.88,416.55 1363.28,421.96 "/>
   </g>
   <g>
    <polygon class="fil0" points="1413.11,434.61 1400.46,421.96 1405.87,416.55 1418.52,429.2 "/>
   </g>
   <g>
    <polygon class="fil0" points="1328.47,411.82 1323.06,406.41 1335.72,393.76 1341.12,399.17 "/>
   </g>
   <g>
    <polygon class="fil0" points="1435.27,411.82 1422.62,399.17 1428.03,393.76 1440.68,406.41 "/>
   </g>
   <g>
    <polygon class="fil0" points="1306.31,389.03 1300.9,383.62 1313.55,370.97 1318.96,376.38 "/>
   </g>
   <g>
    <polygon class="fil0" points="1457.43,389.03 1444.78,376.38 1450.19,370.97 1462.84,383.62 "/>
   </g>
   <g>
    <polygon class="fil0" points="1284.15,366.24 1278.74,360.83 1291.39,348.18 1296.8,353.59 "/>
   </g>
   <g>
    <polygon class="fil0" points="1479.6,366.24 1466.94,353.59 1472.35,348.18 1485.01,360.83 "/>
   </g>
   <g>
    <polygon class="fil0" points="1261.99,343.45 1256.58,338.04 1269.23,325.39 1274.64,330.79 "/>
   </g>
   <g>
    <polygon class="fil0" points="1501.76,343.45 1489.1,330.79 1494.51,325.39 1507.17,338.04 "/>
   </g>
   <g>
    <path class="fil0" d="M1298.66 88.3l84.43 86.83 -2.85 2.76 -84.43 -86.83 0 -2.76 2.85 0zm-2.85 2.76l-1.34 -1.38 1.34 -1.38 0 2.76zm87.28 -86.83l-84.43 86.83 -2.85 -2.76 84.43 -86.83 2.85 0 0 2.76zm-2.85 -2.76l1.43 -1.46 1.43 1.46 -2.85 0zm84.43 89.59l-84.43 -86.84 2.85 -2.76 84.43 86.84 0 2.76 -2.85 0zm2.85 -2.76l1.34 1.38 -1.34 1.38 0 -2.76zm-87.28 86.82l84.43 -86.82 2.85 2.76 -84.43 86.82 -2.85 0 0 -2.76zm2.85 2.76l-1.43 1.46 -1.43 -1.46 2.85 0z"/>
   </g>
   <g>
    <polygon class="fil0" points="1361.11,7.32 1369.35,15.56 1366.54,18.36 1358.31,10.13 "/>
   </g>
   <g>
    <polygon class="fil0" points="1402.49,7.32 1405.29,10.13 1397.06,18.36 1394.26,15.56 "/>
   </g>
   <g>
    <polygon class="fil0" points="1346.69,22.15 1354.92,30.38 1352.12,33.19 1343.88,24.96 "/>
   </g>
   <g>
    <polygon class="fil0" points="1416.91,22.15 1419.72,24.96 1411.49,33.19 1408.68,30.38 "/>
   </g>
   <g>
    <polygon class="fil0" points="1332.27,36.99 1340.5,45.22 1337.69,48.03 1329.46,39.79 "/>
   </g>
   <g>
    <polygon class="fil0" points="1431.34,36.99 1434.14,39.79 1425.91,48.03 1423.1,45.22 "/>
   </g>
   <g>
    <polygon class="fil0" points="1317.84,51.82 1326.08,60.05 1323.27,62.86 1315.04,54.63 "/>
   </g>
   <g>
    <polygon class="fil0" points="1445.76,51.82 1448.57,54.63 1440.33,62.86 1437.52,60.05 "/>
   </g>
   <g>
    <polygon class="fil0" points="1303.42,66.65 1311.66,74.88 1308.85,77.69 1300.61,69.46 "/>
   </g>
   <g>
    <polygon class="fil0" points="1460.18,66.65 1462.99,69.46 1454.75,77.69 1451.95,74.88 "/>
   </g>
   <g>
    <polygon class="fil0" points="1361.11,171.84 1358.31,169.03 1366.54,160.79 1369.35,163.6 "/>
   </g>
   <g>
    <polygon class="fil0" points="1402.49,171.84 1394.26,163.6 1397.06,160.79 1405.29,169.03 "/>
   </g>
   <g>
    <polygon class="fil0" points="1346.69,157.01 1343.88,154.2 1352.12,145.96 1354.92,148.77 "/>
   </g>
   <g>
    <polygon class="fil0" points="1416.91,157.01 1408.68,148.77 1411.49,145.96 1419.72,154.2 "/>
   </g>
   <g>
    <polygon class="fil0" points="1332.27,142.17 1329.46,139.37 1337.69,131.13 1340.5,133.94 "/>
   </g>
   <g>
    <polygon class="fil0" points="1431.34,142.17 1423.1,133.94 1425.91,131.13 1434.14,139.37 "/>
   </g>
   <g>
    <polygon class="fil0" points="1317.84,127.34 1315.04,124.53 1323.27,116.3 1326.08,119.1 "/>
   </g>
   <g>
    <polygon class="fil0" points="1445.76,127.34 1437.52,119.1 1440.33,116.3 1448.57,124.53 "/>
   </g>
   <g>
    <polygon class="fil0" points="1303.42,112.51 1300.61,109.7 1308.85,101.46 1311.66,104.27 "/>
   </g>
   <g>
    <polygon class="fil0" points="1460.18,112.51 1451.95,104.27 1454.75,101.46 1462.99,109.7 "/>
   </g>
   <g>
    <path class="fil0" d="M1513.12 306.43l72.93 75 -2.85 2.76 -72.93 -75 0 -2.76 2.85 0zm-2.85 2.76l-1.34 -1.38 1.34 -1.38 0 2.76zm75.78 -75l-72.93 75 -2.85 -2.76 72.93 -75 2.85 0 0 2.76zm-2.85 -2.76l1.43 -1.46 1.43 1.46 -2.85 0zm72.93 77.76l-72.93 -75.01 2.85 -2.76 72.93 75.01 0 2.76 -2.85 0zm2.85 -2.76l1.34 1.38 -1.34 1.38 0 -2.76zm-75.78 75l72.93 -75 2.85 2.76 -72.93 75 -2.85 0 0 -2.76zm2.85 2.76l-1.43 1.46 -1.43 -1.46 2.85 0z"/>
   </g>
   <g>
    <polygon class="fil0" points="1567.06,236.48 1574.17,243.6 1571.36,246.4 1564.26,239.29 "/>
   </g>
   <g>
    <polygon class="fil0" points="1602.42,236.48 1605.23,239.29 1598.11,246.4 1595.31,243.6 "/>
   </g>
   <g>
    <polygon class="fil0" points="1554.6,249.29 1561.71,256.41 1558.91,259.21 1551.79,252.1 "/>
   </g>
   <g>
    <polygon class="fil0" points="1614.88,249.29 1617.68,252.1 1610.57,259.21 1607.76,256.41 "/>
   </g>
   <g>
    <polygon class="fil0" points="1542.14,262.11 1549.25,269.22 1546.45,272.03 1539.33,264.91 "/>
   </g>
   <g>
    <polygon class="fil0" points="1627.34,262.11 1630.14,264.91 1623.03,272.03 1620.22,269.22 "/>
   </g>
   <g>
    <polygon class="fil0" points="1529.68,274.92 1536.79,282.03 1533.99,284.84 1526.87,277.73 "/>
   </g>
   <g>
    <polygon class="fil0" points="1639.8,274.92 1642.6,277.73 1635.49,284.84 1632.68,282.03 "/>
   </g>
   <g>
    <polygon class="fil0" points="1517.22,287.73 1524.34,294.85 1521.53,297.65 1514.42,290.54 "/>
   </g>
   <g>
    <polygon class="fil0" points="1652.26,287.73 1655.07,290.54 1647.95,297.65 1645.15,294.85 "/>
   </g>
   <g>
    <polygon class="fil0" points="1567.06,378.98 1564.26,376.17 1571.36,369.06 1574.17,371.87 "/>
   </g>
   <g>
    <polygon class="fil0" points="1602.42,378.98 1595.31,371.87 1598.11,369.06 1605.23,376.17 "/>
   </g>
   <g>
    <polygon class="fil0" points="1554.6,366.17 1551.79,363.36 1558.91,356.25 1561.71,359.05 "/>
   </g>
   <g>
    <polygon class="fil0" points="1614.88,366.17 1607.76,359.05 1610.57,356.25 1617.68,363.36 "/>
   </g>
   <g>
    <polygon class="fil0" points="1542.14,353.35 1539.33,350.54 1546.45,343.43 1549.25,346.24 "/>
   </g>
   <g>
    <polygon class="fil0" points="1627.34,353.35 1620.22,346.24 1623.03,343.43 1630.14,350.54 "/>
   </g>
   <g>
    <polygon class="fil0" points="1529.68,340.54 1526.87,337.74 1533.99,330.62 1536.79,333.43 "/>
   </g>
   <g>
    <polygon class="fil0" points="1639.8,340.54 1632.68,333.43 1635.49,330.62 1642.6,337.74 "/>
   </g>
   <g>
    <polygon class="fil0" points="1517.22,327.73 1514.42,324.92 1521.53,317.81 1524.34,320.62 "/>
   </g>
   <g>
    <polygon class="fil0" points="1652.26,327.73 1645.15,320.62 1647.95,317.81 1655.07,324.92 "/>
   </g>
   <g>
    <path class="fil0" d="M1107.2 306.43l72.93 75 -2.85 2.76 -72.93 -75 0 -2.76 2.85 0zm-2.85 2.76l-1.34 -1.38 1.34 -1.38 0 2.76zm75.78 -75l-72.93 75 -2.85 -2.76 72.93 -75 2.85 0 0 2.76zm-2.85 -2.76l1.43 -1.46 1.43 1.46 -2.85 0zm72.93 77.76l-72.93 -75.01 2.85 -2.76 72.93 75.01 0 2.76 -2.85 0zm2.85 -2.76l1.34 1.38 -1.34 1.38 0 -2.76zm-75.78 75l72.93 -75 2.85 2.76 -72.93 75 -2.85 0 0 -2.76zm2.85 2.76l-1.43 1.46 -1.43 -1.46 2.85 0z"/>
   </g>
   <g>
    <polygon class="fil0" points="1161.15,236.48 1168.26,243.6 1165.45,246.4 1158.34,239.29 "/>
   </g>
   <g>
    <polygon class="fil0" points="1196.51,236.48 1199.31,239.29 1192.2,246.4 1189.39,243.6 "/>
   </g>
   <g>
    <polygon class="fil0" points="1148.69,249.29 1155.8,256.41 1152.99,259.21 1145.88,252.1 "/>
   </g>
   <g>
    <polygon class="fil0" points="1208.96,249.29 1211.77,252.1 1204.66,259.21 1201.85,256.41 "/>
   </g>
   <g>
    <polygon class="fil0" points="1136.23,262.11 1143.34,269.22 1140.53,272.03 1133.42,264.91 "/>
   </g>
   <g>
    <polygon class="fil0" points="1221.42,262.11 1224.23,264.91 1217.12,272.03 1214.31,269.22 "/>
   </g>
   <g>
    <polygon class="fil0" points="1123.77,274.92 1130.88,282.03 1128.07,284.84 1120.96,277.73 "/>
   </g>
   <g>
    <polygon class="fil0" points="1233.88,274.92 1236.69,277.73 1229.58,284.84 1226.77,282.03 "/>
   </g>
   <g>
    <polygon class="fil0" points="1111.31,287.73 1118.42,294.85 1115.62,297.65 1108.5,290.54 "/>
   </g>
   <g>
    <polygon class="fil0" points="1246.34,287.73 1249.15,290.54 1242.04,297.65 1239.23,294.85 "/>
   </g>
   <g>
    <polygon class="fil0" points="1161.15,378.98 1158.34,376.17 1165.45,369.06 1168.26,371.87 "/>
   </g>
   <g>
    <polygon class="fil0" points="1196.51,378.98 1189.39,371.87 1192.2,369.06 1199.31,376.17 "/>
   </g>
   <g>
    <polygon class="fil0" points="1148.69,366.17 1145.88,363.36 1152.99,356.25 1155.8,359.05 "/>
   </g>
   <g>
    <polygon class="fil0" points="1208.96,366.17 1201.85,359.05 1204.66,356.25 1211.77,363.36 "/>
   </g>
   <g>
    <polygon class="fil0" points="1136.23,353.35 1133.42,350.54 1140.53,343.43 1143.34,346.24 "/>
   </g>
   <g>
    <polygon class="fil0" points="1221.42,353.35 1214.31,346.24 1217.12,343.43 1224.23,350.54 "/>
   </g>
   <g>
    <polygon class="fil0" points="1123.77,340.54 1120.96,337.74 1128.07,330.62 1130.88,333.43 "/>
   </g>
   <g>
    <polygon class="fil0" points="1233.88,340.54 1226.77,333.43 1229.58,330.62 1236.69,337.74 "/>
   </g>
   <g>
    <polygon class="fil0" points="1111.31,327.73 1108.5,324.92 1115.62,317.81 1118.42,320.62 "/>
   </g>
   <g>
    <polygon class="fil0" points="1246.34,327.73 1239.23,320.62 1242.04,317.81 1249.15,324.92 "/>
   </g>
   <path class="fil1" d="M1381.67 81.48c4.53,0 8.2,3.67 8.2,8.2 0,4.53 -3.67,8.2 -8.2,8.2 -4.53,0 -8.2,-3.67 -8.2,-8.2 0,-4.53 3.67,-8.2 8.2,-8.2z"/>
   <path class="fil1" d="M1178.71 299.61c4.53,0 8.2,3.67 8.2,8.2 0,4.53 -3.67,8.2 -8.2,8.2 -4.53,0 -8.2,-3.67 -8.2,-8.2 0,-4.53 3.67,-8.2 8.2,-8.2z"/>
   <path class="fil1" d="M1584.63 299.61c4.53,0 8.2,3.67 8.2,8.2 0,4.53 -3.67,8.2 -8.2,8.2 -4.53,0 -8.2,-3.67 -8.2,-8.2 0,-4.53 3.67,-8.2 8.2,-8.2z"/>
   <g>
    <path class="fil0" d="M1298.06 305.89l85.6 88.03 -4 3.86 -85.6 -88.03 0 -3.86 4 0zm-4 3.86l-1.88 -1.93 1.88 -1.93 0 3.86zm89.6 -88.03l-85.6 88.03 -4 -3.86 85.6 -88.03 4 0 0 3.86zm-4 -3.86l2 -2.05 2 2.05 -4 0zm85.6 91.9l-85.6 -88.04 4 -3.86 85.6 88.04 0 3.86 -4 0zm4 -3.86l1.88 1.93 -1.88 1.93 0 -3.86zm-89.6 88.03l85.6 -88.03 4 3.86 -85.6 88.03 -4 0 0 -3.86zm4 3.86l-2 2.05 -2 -2.05 4 0z"/>
   </g>
   <path class="fil1" d="M1381.67 290.29c9.68,0 17.53,7.85 17.53,17.53 0,9.68 -7.85,17.53 -17.53,17.53 -9.68,0 -17.53,-7.84 -17.53,-17.53 0,-9.68 7.84,-17.53 17.53,-17.53z"/>
   <path class="fil0" d="M229.65 470.35c2.09,-24.25 3.6,-44.63 4.39,-60.93 1.44,-25.92 2.67,-55.72 3.75,-89.58 1.01,-33.78 1.73,-65.99 2.17,-96.37 13.83,0.34 24.13,0.5 31.05,0.5 6.34,0 16.64,-0.16 30.83,-0.5 -1.94,28.15 -3.53,55.06 -4.68,80.55 -1.23,25.59 -2.09,54.9 -2.6,87.93 -0.58,33.04 -0.87,59.11 -0.87,78.41 -12.82,-0.33 -23.13,-0.5 -30.83,-0.5 -7.35,0 -18.45,0.16 -33.21,0.5zm650.62 -193.39c0,-10.36 3.75,-18.65 3.75,-24.87 0,-4.15 0,-10.37 3.75,-20.73 18.73,-4.15 33.71,-8.29 48.7,-10.36 14.98,-2.08 29.97,-2.08 41.21,-2.08 18.73,0 29.97,2.08 44.95,6.22 11.23,4.14 22.47,10.36 29.96,18.65 7.5,8.29 11.24,22.8 11.24,39.39 0,8.29 0,33.16 -3.75,70.47 -3.75,37.31 -3.75,76.69 -3.75,116.08 -11.24,0 -18.73,0 -29.97,0 -7.49,0 -18.73,0 -29.97,0 3.75,-18.66 3.75,-41.46 3.75,-66.33l3.75 -62.18c-3.75,4.15 -11.24,8.29 -11.24,10.36 -3.74,0 -7.49,2.07 -11.23,4.15 -3.75,0 -7.49,2.07 -18.73,6.22 -7.49,2.07 -14.98,4.15 -22.48,6.22 -3.75,2.07 -7.49,6.22 -11.24,8.29 -7.49,2.08 -11.24,6.22 -11.24,8.29 -3.75,4.15 -7.49,6.22 -7.49,10.37 0,4.15 -3.75,8.29 -3.75,12.43 0,6.22 3.75,12.44 7.49,16.59 3.75,6.21 7.49,8.29 11.24,10.36 7.49,2.08 11.24,4.15 18.73,4.15 3.75,0 11.24,0 14.98,-2.07 3.75,0 11.24,-2.08 18.73,-6.22 0,10.37 -3.75,22.8 -7.49,41.46 -11.24,2.08 -18.73,4.14 -26.22,4.14 -3.75,0 -11.24,0 -14.98,0 -18.73,0 -33.71,-2.07 -44.95,-8.29 -11.24,-4.15 -18.73,-14.51 -26.22,-24.88 -3.75,-12.43 -7.49,-24.87 -7.49,-37.31 0,-6.21 3.75,-14.51 3.75,-20.73 3.75,-6.22 7.49,-12.43 11.24,-18.65 3.75,-6.22 7.49,-10.36 14.98,-16.59 7.49,-4.14 14.98,-10.36 26.22,-14.51 14.98,-4.15 29.97,-10.36 48.7,-14.51 7.49,-2.08 11.24,-4.15 18.73,-6.22 3.75,0 11.24,-2.07 11.24,-4.15 3.75,-2.07 7.49,-4.15 11.23,-8.29 3.75,-2.07 3.75,-4.15 3.75,-8.29 3.75,-2.07 3.75,-6.22 3.75,-8.29 0,-6.21 -3.75,-12.43 -7.49,-16.58 -3.75,-4.15 -7.49,-8.29 -11.23,-10.36 -7.49,-2.08 -14.98,-2.08 -18.73,-2.08 -26.22,0 -56.19,6.22 -86.16,20.73zm-67.43 138.88c0,10.36 -3.75,26.94 -7.49,51.82 -14.98,2.08 -26.22,6.22 -37.46,6.22 -11.23,2.07 -22.48,2.07 -33.71,2.07 -18.73,0 -33.71,-2.07 -48.7,-6.21 -14.98,-4.15 -26.22,-12.44 -37.46,-22.81 -11.24,-10.36 -18.73,-24.87 -26.22,-41.45 -3.75,-16.58 -7.49,-33.16 -7.49,-51.82 0,-18.66 3.75,-39.38 11.24,-58.04 3.75,-18.66 14.98,-33.17 26.22,-45.61 7.49,-10.36 22.48,-18.65 37.46,-24.87 11.24,-4.15 26.22,-6.22 41.21,-6.22 14.98,0 29.96,2.08 41.2,6.22 14.98,4.14 22.48,10.36 33.71,18.65 7.49,10.36 14.98,20.73 18.73,35.24 7.49,12.43 7.49,26.94 7.49,43.53 0,8.29 0,14.51 0,22.8l-157.32 0c0,6.22 0,12.43 0,14.51 0,10.36 3.75,20.73 3.75,31.1 3.75,8.29 11.24,16.58 14.98,22.8 7.49,6.22 14.98,10.37 22.48,12.43 7.49,4.15 18.73,6.22 26.22,6.22 11.24,0 18.73,-2.08 29.97,-4.15 11.24,-2.08 26.22,-6.22 41.21,-12.43zm-134.85 -97.42l97.39 0c0,-8.29 0,-14.51 0,-16.59 0,-4.15 0,-8.29 -3.75,-14.51 0,-4.14 -3.75,-8.29 -3.75,-12.43 -3.75,-2.08 -7.49,-6.22 -11.23,-8.29 -3.75,-2.08 -7.49,-4.15 -11.24,-6.22 -3.75,0 -7.49,-2.07 -14.98,-2.07 -3.75,0 -11.24,2.07 -14.98,4.14 -7.49,2.08 -11.24,4.15 -14.98,8.3 -7.49,4.15 -11.24,8.29 -11.24,14.51 -3.75,4.15 -7.49,10.37 -7.49,14.51 -3.75,4.15 -3.75,10.36 -3.75,18.65zm-333.38 151.32c0,-35.24 3.75,-76.7 7.49,-122.3 0,-47.67 3.75,-87.06 3.75,-124.37 11.23,0 22.47,0 29.97,0 11.24,0 18.73,0 29.96,0l-3.75 41.45c3.75,-6.22 7.49,-12.43 11.24,-16.58 3.75,-4.15 7.49,-8.29 14.99,-12.44 3.75,-4.14 11.23,-6.22 14.98,-10.36 7.49,-2.08 11.24,-4.15 18.73,-4.15 7.49,-2.08 14.98,-2.08 22.48,-2.08 14.98,0 26.22,0 37.45,4.15 11.24,4.15 18.73,10.36 26.23,18.65 7.49,6.22 11.23,16.59 14.98,24.88 3.75,10.36 3.75,18.65 3.75,29.02 0,6.21 0,12.44 0,20.73l-3.75 107.79c-3.75,14.51 -3.75,29.02 -3.75,45.6 -11.23,0 -18.73,0 -26.22,0 -11.24,0 -22.48,0 -33.71,0 0,-12.44 3.75,-37.31 3.75,-72.55 3.75,-35.23 3.75,-58.04 3.75,-70.47 0,-12.43 -3.75,-22.79 -7.49,-31.09 0,-6.22 -7.49,-12.43 -14.98,-16.58 -7.5,-4.15 -14.98,-6.22 -22.48,-6.22 -11.24,0 -18.73,2.08 -26.22,6.22 -7.49,2.07 -11.24,8.29 -18.73,14.51 -3.75,8.29 -7.49,16.58 -11.24,26.95 -3.75,12.43 -7.49,31.09 -7.49,58.04 0,22.8 -3.74,53.89 -3.74,91.21 -11.24,0 -18.73,0 -29.97,0 -7.49,0 -18.73,0 -29.96,0zm-344.62 0c3.75,-47.68 7.49,-101.57 11.24,-161.68 0,-60.12 3.75,-116.08 3.75,-169.98 14.98,2.08 26.22,2.08 33.71,2.08 7.49,0 18.73,0 33.71,-2.08 -3.75,31.1 -3.75,62.19 -7.49,99.5l-3.75 97.42c0,29.02 0,55.97 -3.75,82.91l37.46 2.08c33.71,0 56.19,0 67.42,-2.08 11.24,0 22.48,0 29.97,0 0,14.51 0,33.17 0,51.83 -37.45,0 -71.17,0 -97.39,0l-67.43 0 -37.46 0zm243.92 -279.06l7.78 -22.35c1.51,-4.89 3.38,-10.76 5.62,-17.55 2.23,-6.79 4.39,-13.24 6.48,-19.21 11.38,0.33 21.9,0.5 31.49,0.5 7.85,0 18.37,-0.17 31.62,-0.5 -9.36,13.49 -16.43,24.01 -21.04,31.63l-17.43 27.49c-7.42,-0.34 -15.06,-0.5 -22.76,-0.5 -6.92,0 -14.2,0.16 -21.76,0.5z"/>
   <path class="fil1" d="M1595.65 482.18l-41.01 0 -75.13 209.34 41.34 0 15.09 -47.65 74.8 0 18.7 47.65 41.34 0 -75.13 -209.34zm-127.3 0l-37.4 0 0 140.95 -78.74 -140.95 -37.4 0 0 209.34 -78.74 -209.34 -41.01 0 -71.19 209.34 41.01 0 15.09 -47.65 74.8 0 18.7 47.65 41.34 0 37.4 0 0 -136.79 74.8 136.79 41.34 0 0 -209.34zm-348.42 0l-37.4 0 0 116.05c0,16.6 0,29.04 -3.61,35.27 0,8.3 -3.94,12.45 -7.55,18.67 -7.54,4.15 -15.09,6.23 -26.24,6.23 -11.16,0 -18.7,-2.08 -26.25,-6.23 -3.61,-6.22 -7.55,-12.45 -11.16,-20.74 0,-6.22 0,-18.67 0,-35.27l0 -113.97 -37.4 0 0 58.03c0,-12.45 -3.94,-22.76 -11.48,-31.06 -3.61,-10.37 -11.16,-16.6 -22.31,-20.74 -7.54,-4.15 -22.63,-6.23 -41.34,-6.23l-82.35 0 0 209.34 37.4 0 0 -87.07 7.55 0c11.16,0 15.09,0 22.31,2.08 3.94,2.08 7.55,4.15 11.48,8.3 3.61,4.15 7.55,14.52 18.7,31.12l26.25 45.58 48.55 0 -26.24 -41.42c-7.55,-16.6 -14.76,-26.97 -18.7,-33.2 -7.54,-6.22 -14.76,-12.45 -22.31,-18.67 18.7,-2.08 29.86,-8.24 37.4,-18.61 7.55,-10.37 15.1,-22.82 15.1,-39.41l0 53.87c0,22.82 0,41.49 3.61,53.94 0,8.3 3.61,14.52 11.15,22.76 3.94,6.23 11.16,12.45 18.7,16.6 11.48,6.22 26.24,8.3 41.34,8.3 15.09,0 29.86,-2.08 37.4,-6.22 11.16,-4.15 18.7,-10.38 22.64,-16.6 7.22,-8.3 11.15,-16.53 11.15,-26.91 3.61,-10.37 3.61,-29.05 3.61,-53.88l0 -109.89zm-314.63 0l-138.45 0 0 209.34 142.39 0 0 -35.2 -104.99 0 0 -56.01 93.51 0 0 -35.21 -93.51 0 0 -47.65 101.05 0 0 -35.27zm-223.42 0l-4.92 0 -60.04 0 0 209.34 37.4 0 0 -78.77 26.25 0c18.7,0 29.86,-2.08 41.34,-2.08 3.61,-2.08 11.16,-6.23 18.7,-10.37 7.55,-6.23 11.16,-12.39 14.76,-20.68 3.94,-8.3 7.55,-20.74 7.55,-33.19 0,-16.6 -3.61,-28.98 -11.16,-39.35 -7.55,-12.45 -15.09,-18.67 -26.25,-20.74 -7.22,-1.95 -20.34,-3.9 -43.63,-4.15zm1017.7 126.42l-26.25 -76.7 -26.24 76.7 52.49 0zm-1045.26 -91.15l0 60.1 22.64 0c14.76,0 26.25,-2.07 29.86,-4.15 3.61,-2.08 7.54,-4.15 11.16,-10.37 3.94,-4.15 3.94,-10.38 3.94,-16.6 0,-6.22 0,-12.45 -3.94,-18.67 -3.61,-4.15 -11.16,-8.3 -14.76,-8.3 -7.55,-2.01 -15.09,-2.01 -30.19,-2.01l-18.7 0zm295.93 53.88l29.86 0c19.03,0 30.18,-2.08 33.8,-2.08 3.94,-2.08 7.54,-6.22 11.48,-10.37 3.61,-4.15 3.61,-8.3 3.61,-14.52 0,-8.3 0,-12.45 -3.61,-18.67 -3.94,-4.15 -11.48,-6.23 -15.09,-6.23 -3.94,-2.01 -15.09,-2.01 -30.18,-2.01l-29.86 0 0 53.88zm393.37 37.28l-26.25 -76.7 -26.25 76.7 52.49 0z"/>
  </g>
 </g>
</svg>
