<?xml version="1.0" encoding="UTF-8"?>
<!DOCTYPE svg PUBLIC "-//W3C//DTD SVG 1.1//EN" "http://www.w3.org/Graphics/SVG/1.1/DTD/svg11.dtd">
<!-- Creator: CorelDRAW 2019 (64-Bit) -->
<svg xmlns="http://www.w3.org/2000/svg" xml:space="preserve" width="9.8861mm" height="7.3514mm" version="1.1" style="shape-rendering:geometricPrecision; text-rendering:geometricPrecision; image-rendering:optimizeQuality; fill-rule:evenodd; clip-rule:evenodd"
viewBox="0 0 53.61 39.86"
 xmlns:xlink="http://www.w3.org/1999/xlink">
 <defs>
  <style type="text/css">
   <![CDATA[
    .fil0 {fill:#373435}
   ]]>
  </style>
 </defs>
 <g id="Capa_x0020_1">
  <metadata id="CorelCorpID_0Corel-Layer"/>
  <path class="fil0" d="M20.82 39.86l32.79 0 0 -8.99c0,-4.94 -4.04,-8.99 -8.99,-8.99l-14.82 0c-4.94,0 -8.99,4.04 -8.99,8.99l0 8.99zm-14.28 -6.24l0 -6.47 -6.54 0 0 -4.46 6.54 0 0 -6.47 4.35 0 0 6.47 6.54 0 0 4.46 -6.54 0 0 6.47 -4.35 0zm30.67 -33.62c5.07,0 9.18,4.11 9.18,9.18 0,5.07 -4.11,9.18 -9.18,9.18 -5.07,0 -9.18,-4.11 -9.18,-9.18 0,-5.07 4.11,-9.18 9.18,-9.18z"/>
 </g>
</svg>
