<?xml version="1.0" encoding="UTF-8"?>
<!DOCTYPE svg PUBLIC "-//W3C//DTD SVG 1.1//EN" "http://www.w3.org/Graphics/SVG/1.1/DTD/svg11.dtd">
<!-- Creator: CorelDRAW 2019 (64-Bit) -->
<svg xmlns="http://www.w3.org/2000/svg" xml:space="preserve" width="14.7668mm" height="12.8365mm" version="1.1" style="shape-rendering:geometricPrecision; text-rendering:geometricPrecision; image-rendering:optimizeQuality; fill-rule:evenodd; clip-rule:evenodd"
viewBox="0 0 154.07 133.93"
 xmlns:xlink="http://www.w3.org/1999/xlink">
 <defs>
  <style type="text/css">
   <![CDATA[
    .fil0 {fill:#A1A1A1}
   ]]>
  </style>
 </defs>
 <g id="Capa_x0020_1">
  <metadata id="CorelCorpID_0Corel-Layer"/>
  <path class="fil0" d="M32.37 68.82c2.71,-0.9 28.29,-1.11 31.32,-0.13 1.85,1.4 1.25,52.81 0.89,58.36l-32.65 0.25c-0.61,-6.69 -0.67,-55.19 0.44,-58.48zm11.46 25.76c5.21,0 10.07,0.6 13.84,-1.03 1.47,-6.76 -2.58,-5.31 -14.52,-5.31 -6.95,0 -6.57,6.34 0.68,6.34zm43.57 3.85c0,-36.8 -5.96,-30.01 28.34,-30.19 11.45,-0.06 9.52,-0.28 9.52,19.57 0,31.65 3.85,26.59 -20.48,26.59 -17.28,0 -17.38,2.32 -17.38,-9.76 5.82,0 14.42,1.03 18.95,-1l-0.2 -4.25c-4.45,-1.91 -12.86,-1.01 -18.75,-0.96zm2.21 -36.29c-9.37,1.58 -8.47,9.28 -8.47,18.82 0,30.41 -4.03,39.88 14.74,39.81 6.99,-0.03 21.17,0.81 27.29,-0.19 9.24,-1.5 8.4,-9.65 8.4,-19.08 -0,-9.12 0.11,-18.31 0.02,-27.42 -0.11,-10.7 -5.17,-12.13 -15.17,-12.1 -6.61,0.02 -21.31,-0.78 -26.81,0.15zm-64.36 65.18c-12.15,-0.11 -9.26,-2.19 -9.26,-31.3 0,-13.48 -0.44,-27.7 0.06,-41.09 1.38,-0.89 4.73,-2.62 5.95,-3.31 2.88,2.38 3.82,3.09 8.82,3.11 5.8,0.02 6.04,-1.07 9.62,-3.11 6.89,5.96 13.34,2.73 18.46,0 4.85,4.33 13.04,4.42 17.84,-0.01 3.44,1.75 3.26,2.99 8.88,3.11 5.17,0.11 6.68,-0.52 9.57,-3.1 5.86,3.37 11.9,5.46 18.45,0 5.79,3.26 11.74,5.57 18.46,0 1.34,0.78 4.48,2.37 5.95,3.31 0.27,7.13 0.53,66.83 -0.37,69.24 -1.73,4.6 -9.13,3.13 -13.71,3.13 -9.97,-0 -48.47,0.69 -52.89,-0.3 -0.92,-13.29 -0.09,-29.68 -0.09,-43.31 0,-23.61 0.46,-21.71 -23.02,-21.71 -22.36,0 -22.46,-1.71 -22.46,21.03 0,12.02 1.26,33.4 -0.23,44.31zm122.36 -88.51c0.46,5.64 0.18,9.68 -5.86,9.71 -6.28,0.04 -6.61,-3.84 -5.98,-9.86l11.83 0.14zm-18.47 -0.02c0.48,5.59 -0.06,9.69 -5.87,9.74 -6.23,0.06 -6.54,-3.86 -5.96,-9.85l11.83 0.11zm-18.46 -0.03c0.51,5.65 -0.07,9.73 -5.9,9.77 -6.16,0.04 -6.54,-3.89 -5.94,-9.84l11.84 0.07zm-18.49 0c0.53,5.67 -0.02,9.76 -5.9,9.76 -6.13,0.01 -6.5,-3.93 -5.91,-9.83l11.82 0.07zm-18.48 -0.01c0.59,5.83 0.2,9.77 -5.91,9.77 -6.09,0 -6.45,-3.96 -5.9,-9.83l11.82 0.06zm-18.46 -0.02c0.6,5.87 0.21,9.8 -5.94,9.8 -5.88,-0.01 -6.41,-4.1 -5.9,-9.83l11.84 0.03zm-18.46 -0.03c0.58,5.93 0.23,9.86 -5.96,9.82 -5.83,-0.04 -6.36,-4.11 -5.87,-9.82l11.83 -0zm-18.47 -0.02c0.63,5.97 0.22,9.9 -5.98,9.84 -5.81,-0.05 -6.3,-4.15 -5.85,-9.81l11.83 -0.03zm62.1 -32.14l8.34 0.15 3.1 25.64 -11.65 -0.1 0.21 -25.69zm-14.97 0.04l8.41 0.02 -0 25.68 -11.69 0.03 3.29 -25.73zm29.97 -0.04l8.06 -0.06 6.29 25.87 -11.54 -0.32 -2.81 -25.49zm-44.69 -0.01l8.21 0.05 -3.08 25.56 -3.12 0.18 -5.48 -0 -3.11 0.02 6.58 -25.8zm67.58 0.01l9.44 25.7 -11.35 0.07 -6.03 -25.78 7.93 0.02zm-82.44 0.01l8.08 0.03 -6.33 25.76 -11.29 -0.31 9.54 -25.48zm109.74 25.69l-10.02 0.07c-2.1,-1.07 -2.5,-4.08 -3.3,-6.27 -1.62,-4.47 -6.5,-16.48 -6.88,-19.52l7.62 -0.09 12.57 25.8zm-124.4 -25.72l7.46 -0c-0.39,3.15 -3.43,10.27 -4.66,13.53 -5.55,14.78 -1.87,12.33 -15.52,12.04l12.72 -25.57zm-21.2 27.81l0 11.29c1.71,3.26 0.44,3.02 3.43,5.89 2.27,2.18 5.25,2.56 6.16,4.1 0,10.72 -1.36,65.88 1.11,71.45 4.05,9.16 18.68,6.49 29.7,6.49l90.42 0.02c5.25,0.01 9.82,-1.09 12.32,-6.05 2.83,-5.6 1.35,-60.85 1.35,-71.91 1.21,-2.05 3.36,-1.33 5.87,-3.73 2.98,-2.85 1.93,-2.86 3.72,-6.27l0 -11.29c-2.42,-3.47 -5.1,-10.29 -7.35,-14.53 -12.24,-23.07 -5.12,-19.53 -23.46,-19.53 -17.34,0 -98.87,-0.89 -106.35,0.49l-16.91 33.57z"/>
 </g>
</svg>
