<?xml version="1.0" encoding="UTF-8"?>
<!DOCTYPE svg PUBLIC "-//W3C//DTD SVG 1.1//EN" "http://www.w3.org/Graphics/SVG/1.1/DTD/svg11.dtd">
<!-- Creator: CorelDRAW 2019 (64-Bit) -->
<svg xmlns="http://www.w3.org/2000/svg" xml:space="preserve" width="18.1505mm" height="14.5204mm" version="1.1" style="shape-rendering:geometricPrecision; text-rendering:geometricPrecision; image-rendering:optimizeQuality; fill-rule:evenodd; clip-rule:evenodd"
viewBox="0 0 188.97 151.17"
 xmlns:xlink="http://www.w3.org/1999/xlink">
 <defs>
  <style type="text/css">
   <![CDATA[
    .fil1 {fill:none}
    .fil0 {fill:#373435}
   ]]>
  </style>
 </defs>
 <g id="Capa_x0020_1">
  <metadata id="CorelCorpID_0Corel-Layer"/>
  <path class="fil0" d="M82.99 113.85l62.95 0 0 -17.26c0,-9.49 -7.76,-17.25 -17.25,-17.25l-28.45 0c-9.49,0 -17.25,7.76 -17.25,17.25l0 17.26zm-27.41 -11.98l0 -12.43 -12.56 0 0 -8.55 12.56 0 0 -12.43 8.35 0 0 12.43 12.56 0 0 8.55 -12.56 0 0 12.43 -8.35 0zm58.89 -64.55c9.74,0 17.63,7.89 17.63,17.63 0,9.74 -7.89,17.63 -17.63,17.63 -9.74,0 -17.63,-7.89 -17.63,-17.63 0,-9.74 7.89,-17.63 17.63,-17.63z"/>
  <rect class="fil1" x="0" y="-0" width="188.97" height="151.17"/>
 </g>
</svg>
