<?xml version="1.0" encoding="UTF-8"?>
<!DOCTYPE svg PUBLIC "-//W3C//DTD SVG 1.1//EN" "http://www.w3.org/Graphics/SVG/1.1/DTD/svg11.dtd">
<!-- Creator: CorelDRAW 2019 (64-Bit) -->
<svg xmlns="http://www.w3.org/2000/svg" xml:space="preserve" width="87.3591mm" height="40.1067mm" version="1.1" style="shape-rendering:geometricPrecision; text-rendering:geometricPrecision; image-rendering:optimizeQuality; fill-rule:evenodd; clip-rule:evenodd"
viewBox="0 0 4260.4 1955.95"
 xmlns:xlink="http://www.w3.org/1999/xlink">
 <defs>
  <style type="text/css">
   <![CDATA[
    .str0 {stroke:#D2AE6D;stroke-width:48.43;stroke-miterlimit:22.9256}
    .fil1 {fill:#C13437}
    .fil0 {fill:#D2AE6D;fill-rule:nonzero}
   ]]>
  </style>
 </defs>
 <g id="Capa_x0020_1">
  <metadata id="CorelCorpID_0Corel-Layer"/>
  <path class="fil0 str0" d="M1636.28 1336.66c-39.25,-36.64 -88.96,-57.56 -141.29,-78.48 13.07,-44.51 20.92,-91.6 18.31,-141.32 -5.23,-107.27 -49.71,-206.69 -143.91,-266.89 -18.31,-10.46 -39.25,-20.92 -60.18,-28.79 99.42,-41.84 191.01,-102.04 259.05,-188.39 65.4,-88.96 104.65,-206.72 49.71,-311.37 -52.33,-94.19 -157.01,-146.52 -256.43,-170.08 -47.1,-10.46 -96.81,-15.69 -146.52,-15.69 20.92,-39.25 60.17,-102.07 39.23,-109.91 -13.08,-7.85 -34,15.71 -41.87,23.56 -26.15,26.15 -49.71,54.94 -68.02,86.35 -44.48,2.61 -88.96,7.84 -130.83,13.07 -219.8,26.17 -439.59,99.42 -625.36,227.64 -75.89,49.71 -151.77,112.52 -198.87,191.03 -23.57,41.87 -41.87,91.58 -23.57,138.67 20.95,44.48 70.66,68.02 117.76,52.33 10.46,-2.61 49.71,-23.54 20.95,-31.41 -20.95,-7.84 -44.48,-2.61 -65.43,-10.46 -60.17,-23.54 -36.64,-99.42 -13.07,-141.29 57.56,-99.42 154.37,-164.85 248.58,-227.64 102.04,-70.66 225.02,-115.14 345.37,-146.55 102.06,-28.76 209.34,-41.86 314.01,-47.1 -222.41,384.65 -442.21,766.68 -662,1153.94 -104.68,39.25 -209.34,88.96 -295.69,159.6 -75.88,60.2 -157.01,146.55 -151.77,248.59 5.23,112.52 109.91,175.31 209.33,198.87 107.3,26.15 225.03,18.31 334.93,0 219.8,-34.02 436.97,-122.99 614.9,-256.43 125.6,-94.19 253.82,-227.66 306.15,-382.03 36.64,13.08 78.5,28.79 109.88,49.71 7.87,5.23 70.66,54.94 73.28,54.94 2.61,-5.23 -31.41,-39.25 -36.64,-44.48zm-520.71 303.53c-180.54,141.31 -397.72,235.51 -625.36,261.66 -104.65,10.49 -222.41,13.1 -321.83,-31.38 -39.25,-15.71 -75.89,-41.86 -99.45,-78.5 -31.38,-47.1 -31.38,-104.68 -10.46,-154.39 39.25,-91.58 130.83,-162.24 214.56,-214.57 54.94,-34 117.75,-60.17 180.54,-86.35 -44.48,88.96 -115.14,209.33 -170.08,314.01 -10.46,23.54 -23.54,47.1 -34.02,73.25 0,2.62 -5.23,20.95 2.61,13.08 15.72,-13.08 28.79,-34 39.25,-49.71 83.73,-122.96 157.01,-248.56 235.51,-376.78 20.92,-7.84 41.86,-13.1 60.17,-18.33 217.18,-62.79 452.69,-88.96 677.72,-62.79 54.94,5.23 109.88,13.07 164.82,28.79 -60.17,151.75 -188.39,282.58 -313.99,382.01zm374.19 -1412.96c44.48,28.79 78.5,68.02 96.81,117.75 18.31,52.33 10.46,107.27 -10.46,156.98 -41.86,99.42 -128.21,188.39 -214.56,248.58 -31.41,20.92 -65.43,39.25 -99.42,54.94 -120.37,-28.79 -266.89,-26.15 -371.57,39.25 -10.46,7.85 -15.69,20.95 -5.23,31.41 13.07,10.46 54.94,15.69 78.5,15.69 104.65,0 211.95,-20.92 311.37,-57.56 23.54,7.85 44.48,18.31 65.4,31.41 99.45,60.17 128.22,172.67 115.14,285.19 -2.62,28.79 -10.46,60.18 -20.92,88.96 -94.22,-26.17 -191.03,-36.64 -287.84,-39.25 -201.49,-5.23 -410.8,20.94 -601.83,81.12 225.02,-371.54 436.97,-750.96 656.77,-1127.76 99.45,2.61 204.1,18.33 287.84,73.28zm-259.05 591.34c-57.56,23.56 -120.37,41.86 -180.54,49.73 -52.32,5.23 -117.75,10.46 -154.39,-5.25 2.61,-7.85 31.4,-20.92 36.64,-23.54 26.17,-10.46 54.94,-18.33 83.73,-23.56 68.04,-13.07 143.91,-13.07 214.56,2.62zm1025.7 -494.53c-34,23.56 -60.17,65.43 -81.09,99.42 -125.6,227.67 -253.82,457.92 -376.8,688.18 -104.65,198.87 -217.18,392.49 -311.37,596.59 -10.46,20.92 -18.33,54.94 -13.07,70.63 7.85,20.95 28.77,15.72 44.48,10.49 34,-15.71 65.4,-41.87 94.2,-65.43 91.58,-78.5 185.77,-164.85 269.51,-251.2 10.46,-10.46 130.83,-125.57 122.99,-133.45 -5.23,-5.23 -183.16,172.7 -198.87,185.8 -81.12,75.86 -162.24,154.36 -253.82,217.18 -5.23,2.61 -31.38,20.92 -44.48,20.92 -2.61,0 10.49,-31.41 15.72,-41.87 83.73,-151.75 172.7,-306.14 251.17,-457.89 159.62,-293.07 319.25,-586.13 478.84,-879.2 2.61,-7.85 36.64,-81.09 2.61,-60.18zm389.9 1028.34l-15.72 15.69c-20.92,18.3 -39.22,36.64 -60.17,57.56 -39.25,39.25 -78.5,81.12 -117.75,120.37 -47.1,47.1 -94.2,91.58 -143.91,136.06 -23.56,20.94 -47.1,41.86 -73.28,60.2 -18.3,13.07 -39.25,31.38 -60.17,31.38 0,-5.23 2.61,-15.69 5.23,-20.92 49.71,-120.37 130.83,-225.02 198.87,-334.93 10.46,-15.69 26.15,-36.64 28.77,-57.56 0,-23.56 -31.38,-13.07 -41.87,-7.85 -20.92,13.07 -36.61,28.77 -49.71,44.48 2.62,0 -2.61,10.46 -5.23,15.69 -23.54,31.4 -49.71,60.17 -75.89,88.96 -81.12,96.81 -261.66,261.66 -379.39,272.12 -62.81,5.23 -23.56,-96.81 -10.49,-125.6 36.64,-83.71 86.35,-172.7 146.55,-243.33 57.56,-65.43 125.6,-128.22 206.72,-162.24 75.86,-34.02 177.93,-49.71 230.25,28.79 5.23,10.46 13.08,36.64 28.77,31.41 15.71,-5.26 7.87,-31.41 5.25,-41.87 -15.71,-36.64 -54.96,-57.58 -91.6,-62.81 -107.27,-20.92 -219.79,34.02 -306.14,91.58 -88.96,60.2 -167.44,151.77 -222.41,245.97 -26.15,47.1 -49.71,99.42 -57.56,154.36 -7.85,47.1 -2.61,115.14 60.17,115.14 104.68,0 316.63,-191 384.65,-259.05 -18.31,31.41 -34.02,62.81 -49.71,94.2 -18.3,39.25 -39.25,86.35 -36.64,130.83 2.61,54.96 60.2,20.94 83.73,2.61 88.96,-65.4 170.09,-149.14 248.59,-227.64 36.64,-39.25 75.88,-78.5 112.5,-115.14 23.56,-26.15 49.73,-49.71 68.04,-78.48 5.23,-10.49 -7.85,-2.61 -10.46,0zm494.53 18.31c-15.69,15.69 -31.41,34.02 -47.1,49.71 -34.02,36.64 -70.66,73.28 -107.27,107.3 -81.12,78.48 -164.85,156.98 -261.66,211.95 -44.48,26.15 -96.84,49.71 -149.16,41.86 -60.18,-10.48 -70.64,-68.04 -62.79,-120.37 18.31,-107.3 86.35,-211.95 159.6,-290.45 52.35,-57.56 109.91,-115.14 183.18,-146.52 31.38,-13.1 70.64,-23.56 104.66,-13.1 39.25,10.48 57.56,47.12 49.71,86.35 -10.46,52.35 -52.32,94.22 -99.42,117.76 -13.07,5.23 -31.4,7.84 -41.86,18.33 -13.08,15.69 2.61,23.54 13.07,23.54 54.94,2.61 102.06,-36.64 128.21,-83.74 26.18,-44.48 36.64,-107.27 2.62,-149.13 -31.38,-36.64 -83.74,-39.25 -128.22,-28.79 -104.65,23.56 -198.85,99.42 -272.12,175.31 -73.28,78.5 -143.91,177.93 -151.75,287.83 -2.64,39.25 2.61,83.74 28.77,115.12 36.64,41.87 96.81,41.87 146.55,28.79 62.78,-18.3 117.73,-57.56 167.44,-94.19 54.97,-41.87 107.29,-86.35 157.01,-133.45 65.43,-60.2 128.21,-125.6 188.39,-193.64 10.49,-13.07 28.79,-41.87 28.79,-41.87 -5.23,0 -26.17,20.95 -36.64,31.41zm128.21 88.96c78.5,-75.89 170.09,-136.06 266.89,-183.16 20.95,-10.46 44.48,-20.94 65.43,-31.4 18.31,-10.46 47.1,-20.92 60.17,-41.87 13.1,-18.31 -18.3,-15.69 -28.76,-13.07 -18.33,2.61 -39.25,10.46 -57.58,18.3 -125.6,57.58 -230.26,154.39 -327.06,248.59 -54.94,52.32 -104.68,107.29 -151.78,167.46l-70.63 86.35c-162.84,162.84 226.69,-497.41 243.33,-528.55 112.52,-206.72 227.67,-410.82 342.78,-617.51 47.1,-81.12 99.42,-170.08 141.29,-251.2 5.25,-10.46 15.71,-28.79 13.1,-39.25 -7.85,-15.69 -36.64,15.69 -47.1,26.17 -41.87,41.87 -68.04,88.96 -96.84,136.06 -120.35,209.31 -235.48,418.65 -350.62,633.21 -54.94,107.3 -112.5,211.95 -164.83,321.86 -52.35,104.65 -109.91,209.31 -146.55,321.83 -5.23,15.69 -29.06,76.47 7.85,86.35 28.26,7.58 62.81,-54.94 75.88,-73.27 68.04,-94.2 141.29,-185.77 225.02,-266.89zm507.63 -120.37c-7.85,-7.85 -151.75,164.85 -164.85,180.57 -75.89,81.09 -136.06,162.21 -230.26,222.41 -52.32,34 -75.88,2.61 -81.12,-41.87 -5.23,-62.81 5.23,-128.21 20.95,-188.41 2.61,-15.69 10.46,-36.64 5.23,-52.32 -7.87,-23.54 -34.02,-7.85 -44.48,2.61 -15.72,13.07 -23.57,34.02 -28.79,52.33 -15.69,65.42 -23.56,143.93 -5.23,209.33 7.84,28.79 26.15,57.58 57.56,68.04 44.48,13.08 91.58,-20.94 122.99,-47.1 78.5,-65.43 143.91,-146.55 206.72,-222.41 13.07,-15.71 151.75,-175.31 141.29,-183.18z"/>
  <g id="_1654729914480">
   <circle class="fil1" cx="4179.55" cy="1322.03" r="80.85"/>
   <circle class="fil1" cx="4179.55" cy="1528.63" r="80.85"/>
   <circle class="fil1" cx="4179.55" cy="1735.24" r="80.85"/>
   <circle class="fil1" cx="3961.72" cy="1735.24" r="80.85"/>
   <circle class="fil1" cx="3743.88" cy="1735.24" r="80.85"/>
   <circle class="fil1" cx="3968.45" cy="1508.43" r="80.85"/>
  </g>
 </g>
</svg>
