<?xml version="1.0" encoding="UTF-8"?>
<!DOCTYPE svg PUBLIC "-//W3C//DTD SVG 1.1//EN" "http://www.w3.org/Graphics/SVG/1.1/DTD/svg11.dtd">
<!-- Creator: CorelDRAW 2019 (64-Bit) -->
<svg xmlns="http://www.w3.org/2000/svg" xml:space="preserve" width="88.6522mm" height="49.7147mm" version="1.1" style="shape-rendering:geometricPrecision; text-rendering:geometricPrecision; image-rendering:optimizeQuality; fill-rule:evenodd; clip-rule:evenodd"
viewBox="0 0 3807.75 2135.32"
 xmlns:xlink="http://www.w3.org/1999/xlink">
 <defs>
  <style type="text/css">
   <![CDATA[
    .str0 {stroke:#373435;stroke-width:21.48;stroke-linecap:round;stroke-linejoin:round;stroke-miterlimit:22.9256}
    .fil0 {fill:#373435}
    .fil1 {fill:#C13437}
   ]]>
  </style>
 </defs>
 <g id="Capa_x0020_1">
  <metadata id="CorelCorpID_0Corel-Layer"/>
  <path class="fil0 str0" d="M2305.74 1459.16c-5.78,21.85 -70.75,93.24 -86.25,108.07 -15.93,15.23 -33.86,28.97 -55.72,40.67 -12.02,6.43 -58.44,27.09 -72.71,13.12 -32.86,-32.17 101.95,-160.84 214.68,-161.86zm859.74 -326.11c-26.29,11.6 -41.54,54.06 -6.4,44.36 26.88,-7.43 40.85,-59.56 6.4,-44.36zm305.96 481.58c2.79,-19.99 67.53,-129.55 82.02,-156.49l166.39 -306.97c17.41,-30.76 78.45,-132.54 77.16,-161.64 -26.9,6.11 -47.47,48.86 -63.93,78.29 -17.56,31.38 -31.11,54.57 -49.37,88.27 -33.55,61.97 -63.04,116.89 -96.1,179.47 -59.65,112.92 -31.49,74.71 -115.3,159.89 -22.56,22.93 -117.11,118.4 -150.55,125.52 1.24,-34.36 74.83,-138.03 97.15,-173.46 12.68,-20.13 32.33,-41.96 25.68,-59.11 -31.49,-6.94 -49.93,34.59 -57.29,44.1 -20.6,26.6 -58.44,65.63 -81.7,89 -16.21,16.28 -128.52,116.32 -170.58,97.59 -27.77,-16.54 24.21,-107.57 35.77,-127.78 41.45,-72.42 105.53,-145.88 188.75,-169.89 102.15,-29.48 98.45,54.88 116.23,39.9 10.72,-9.03 1.81,-47.59 -53.12,-55.82 -86.19,-12.91 -179.35,55.98 -229.81,108.8 -40.56,42.46 -76.35,75.12 -117.25,111.22 -21.26,18.77 -100.37,89.79 -137.85,93.63 14.88,-61.45 171.02,-271.51 170.52,-313.09 -36.81,-1.44 -54.1,40.65 -69.51,67.09l-95.87 168.38c-9.73,18.39 -47.56,75.44 -17.79,93.96 40.58,15.3 197.82,-141.46 222.95,-162.68 -4.45,12.28 -17.48,31.73 -24.78,48.09 -26.65,59.67 -33.45,147.71 53.14,108.41 40.28,-18.28 95.19,-59.91 126.58,-88.4 8.07,-7.32 30.16,-29.37 39.39,-33.74 -3.03,11.45 -130.47,245.74 78.87,52.86 16,-14.75 33.82,-33.82 48.17,-48.2l48.03 -47.5c-10.69,39.94 -77.58,125.69 -63.85,165.59 29.23,9.17 69.82,-32.1 85.68,-45.48 38.34,-32.35 189.06,-172.23 201.23,-197.93 -23.73,7.38 -217.44,220.77 -269.08,228.1zm-2034.94 -327.78c-20.9,2.72 -37.29,30.35 -70.96,16.18 -56.29,-23.7 3.14,-114.65 87.06,-158.44 68.39,-35.68 215.53,-83.07 293.38,-92.47 -5.91,8.96 -27.03,19.8 -41.34,30.54 -39.25,29.44 -77.27,65.02 -108.93,103.14 -116.96,140.8 -251.85,349.42 -419.54,428.6 -54.88,25.91 -172.1,57.27 -224.95,11.99 -39.15,-33.55 19.36,-69.01 31.66,-87.02 26.86,-39.36 -2.11,-79.15 -50.93,-73.2 -69.65,8.49 -101.55,116.1 -22.52,166.17 62.41,39.54 163.68,35.6 242.58,17.78 104.32,-23.56 193.86,-85.9 267.47,-153.19 25.64,-23.43 46.43,-47.92 70.15,-73.02 90.42,-95.66 180.09,-283.17 274.84,-358.51 4.22,-3.35 43.26,-28.28 43.45,-28.54 6.78,-9.15 4.83,-18.68 -8.11,-18.57 -5.85,0.05 -20.36,7.19 -25.96,9.44 -16.87,6.79 -36.92,12.04 -54.98,15.98 -115.44,25.19 -330.86,67.12 -394.42,168.08 -21.75,34.55 -21.41,77.04 11.88,98.26 31.03,19.78 91.93,9.68 100.17,-23.22zm1006.66 165.98c52.76,-99.83 201.49,-188.4 200.09,-118.55 -1.27,63.41 -137.06,146.87 -217.2,148.6l9.11 -19.8 20.84 1.36c-3.38,-5.89 -10.83,-8.69 -11.27,-10.28 -0.25,-0.89 -1.15,-0.79 -1.57,-1.34zm-395.17 71.2c5.83,-17.01 47.09,-90.8 59.06,-113.22 12.76,-23.9 55.12,-95.7 56.62,-118.68 -29.7,1.6 -57.55,67.47 -72.58,94.23 -14.17,25.22 -19.34,30.27 -35.62,47.15 -15.19,15.74 -24.77,26.85 -39.95,42.64 -19.86,20.66 -140.56,153.61 -179.35,149.06 -3.68,-31.99 76.85,-146.2 98.54,-180.14 16.26,-25.43 39.37,-61.94 49.44,-91.45 19.64,-57.49 -23.07,-56.28 -62.68,-34.98 -79.13,42.56 -176.69,173.34 -240.08,250.23 -7.44,9.03 -22.91,27.85 -32.47,34.71 10.65,-28.22 186.29,-268.67 134.49,-297.82 -35.23,-14.05 -128.12,78.77 -142.4,93.31 -20.12,20.47 -38.25,39.25 -56.96,61.48 -16.37,19.45 -36.81,46.49 -54.13,63.06l61.7 -99.66c7.33,-11.31 63.39,-91.15 53.45,-99.74 -14.62,-6.28 -36.53,12.14 -42.22,20.2 -7.64,10.82 -17.15,29.52 -24.25,41.76 -28.17,48.62 -139.23,216.09 -136.47,250.44 24.19,-9.24 235.05,-305.48 328.49,-314.98 -5.82,26.54 -65.57,126.25 -80.84,153.71 -13.98,25.13 -78.44,133.16 -66.59,156.27 19.31,11.06 38.13,-19.2 47.13,-29.75 66.5,-77.94 112.02,-147.3 186.92,-220.59 19.97,-19.54 62.18,-60.65 105.51,-58.43 -0.97,27.6 -65.51,121.93 -80.47,144.07 -16.68,24.68 -77.04,115.66 -66.12,155.84 10.32,37.98 54.18,0.97 68.87,-10.01 55.01,-41.15 106.09,-98.4 153.95,-148.89l14.95 -14.06c-3.05,13.96 -36.91,71.82 -44.75,86.11l-135.54 249.77c-31.16,57.64 -60.87,113.47 -88.94,167.58 -14.63,28.22 -86.07,148.09 -84.38,171.35 26.11,-3.18 53.81,-63.52 67.7,-89.08l166.35 -301.85c46.17,-82.97 56.02,-115.58 115.01,-196.14 47.38,-64.71 91.21,-113.1 147.93,-163.24 85.93,-75.96 192.38,-77.84 134.49,40.88 -14.68,30.1 -8.53,31.11 -44,36.53 -20.65,3.15 -41.74,9.49 -60.44,16.12 -39.57,14.04 -71.33,35 -96.71,57.35 -86.14,75.87 -73.67,160.78 60.63,85.59 48.22,-26.99 92.63,-68.72 124.57,-109.67 11.75,-15.06 19.9,-28.93 31.62,-44.77 10.18,-1.29 19.95,-0.76 30.31,-0.19 4.04,0.22 8.23,0.3 12.19,1.08l10.81 3.9c-17.73,38.93 -54.83,95.71 -30.32,147.79 25.08,53.28 94.37,30.64 133.52,8.76 66.01,-36.89 107.31,-75.26 157.73,-123.19 15.09,-14.35 28.65,-31.88 45.7,-46.37l-49.39 94.97c-10.3,20.67 -41.86,80.53 -43.59,99.96 15.96,-7.61 65.9,-86.1 83.7,-112.09 28.18,-41.15 54.72,-72.61 85.31,-107.51 25.63,-29.24 63.51,-64.61 107.83,-87.65 112.07,-58.25 115.86,31.65 134.47,12.44 15.17,-15.66 -23.89,-103.61 -152.75,-16.85 -59.68,40.18 -84.72,74.18 -128.31,120.9 10.19,-29.41 75.92,-114.97 64.31,-127.66 -26.43,-28.89 -57.09,49.18 -76.75,80.81 -7.19,11.56 -15.2,18.25 -24.38,27.8 -34.76,36.14 -70.8,74.84 -110.69,106.85 -35.23,28.28 -84.71,66.91 -139.1,78.21 -90.69,18.84 -64.69,-81.15 -37.29,-125.1 61.78,-6.79 112.35,-25.72 157.43,-51.77 29.31,-16.94 105.94,-66.73 79.13,-119.22 -37.87,-74.18 -214.22,69.12 -245.69,126.22l-54.86 -2.59c-1.04,-10.09 8.21,-21.02 12.65,-31.49 44.9,-105.89 -46.14,-147.57 -146.71,-75.2 -73.56,52.93 -120.87,123.16 -174.73,184.92z"/>
  <g id="_1655066361232">
   <circle class="fil1" cx="974.15" cy="570.04" r="118.34"/>
   <circle class="fil1" cx="753.11" cy="596.68" r="71.7"/>
   <circle class="fil1" cx="820.06" cy="488.64" r="34.19"/>
   <circle class="fil1" cx="1151.92" cy="650.92" r="57.64"/>
   <circle class="fil1" cx="1264.07" cy="651.89" r="34.19"/>
   <circle class="fil1" cx="1340.22" cy="667.35" r="22.46"/>
   <circle class="fil1" cx="1407.78" cy="674.36" r="14.24"/>
   <circle class="fil1" cx="907.35" cy="799.9" r="104.13"/>
   <circle class="fil1" cx="1065.14" cy="729.83" r="34.19"/>
   <circle class="fil1" cx="769.35" cy="722.78" r="34.19"/>
   <circle class="fil1" cx="914.68" cy="995.46" r="74.71"/>
   <circle class="fil1" cx="768.63" cy="1076.6" r="74.71"/>
   <circle class="fil1" cx="897.59" cy="1139.76" r="49.91"/>
   <circle class="fil1" cx="610.39" cy="1148.27" r="74.71"/>
   <circle class="fil1" cx="783.32" cy="1223.78" r="49.91"/>
   <circle class="fil1" cx="668.1" cy="1317.77" r="74.71"/>
   <circle class="fil1" cx="472.14" cy="1261.22" r="88.85"/>
   <circle class="fil1" cx="547.33" cy="1401.21" r="49.91"/>
   <circle class="fil1" cx="607.2" cy="1490.82" r="36.98"/>
   <circle class="fil1" cx="632.6" cy="1568.71" r="23.23"/>
   <circle class="fil1" cx="508.8" cy="1581.59" r="23.23"/>
   <circle class="fil1" cx="561.75" cy="1637.71" r="36.98"/>
   <circle class="fil1" cx="642.9" cy="1706.84" r="49.91"/>
   <circle class="fil1" cx="746.57" cy="1781.97" r="58.6"/>
   <circle class="fil1" cx="859.26" cy="1850.49" r="58.6"/>
   <circle class="fil1" cx="607.73" cy="801.07" r="49.91"/>
   <circle class="fil1" cx="668.59" cy="870.35" r="27.21"/>
   <circle class="fil1" cx="531.49" cy="697.78" r="62.14"/>
   <circle class="fil1" cx="469.21" cy="601.99" r="34.56"/>
   <circle class="fil1" cx="307.08" cy="459.82" r="62.14"/>
   <circle class="fil1" cx="405.2" cy="530.76" r="39.04"/>
   <circle class="fil1" cx="159.23" cy="357.95" r="90.15"/>
   <circle class="fil1" cx="37.65" cy="281.72" r="37.65"/>
   <circle class="fil1" cx="105.02" cy="226.06" r="30.19"/>
   <circle class="fil1" cx="34.69" cy="191.8" r="30.19"/>
   <circle class="fil1" cx="579.35" cy="133.43" r="50.49"/>
   <circle class="fil1" cx="564.03" cy="33.36" r="33.36"/>
   <circle class="fil1" cx="584.76" cy="231.7" r="27.05"/>
   <circle class="fil1" cx="426.09" cy="166.34" r="27.05"/>
   <circle class="fil1" cx="426.09" cy="260.1" r="50.49"/>
   <circle class="fil1" cx="463.96" cy="350.25" r="33.36"/>
   <circle class="fil1" cx="502.73" cy="415.17" r="23.89"/>
   <circle class="fil1" cx="649.68" cy="410.66" r="50.49"/>
   <circle class="fil1" cx="607.81" cy="488.3" r="23.89"/>
   <circle class="fil1" cx="659.59" cy="320.06" r="27.05"/>
   <circle class="fil1" cx="663.43" cy="256.94" r="18.61"/>
   <circle class="fil1" cx="182.22" cy="634.2" r="56.35"/>
   <circle class="fil1" cx="364.79" cy="709.98" r="23.89"/>
   <circle class="fil1" cx="298.11" cy="666.71" r="42.37"/>
   <circle class="fil1" cx="28.74" cy="514.26" r="23.89"/>
   <circle class="fil1" cx="86.7" cy="576.1" r="42.37"/>
   <circle class="fil1" cx="322.8" cy="846.13" r="46.49"/>
   <circle class="fil1" cx="411.94" cy="848.14" r="31.78"/>
   <circle class="fil1" cx="230.02" cy="833.92" r="32.92"/>
   <circle class="fil1" cx="166.92" cy="801.91" r="20.72"/>
   <circle class="fil1" cx="489" cy="983.91" r="37.21"/>
   <circle class="fil1" cx="407.28" cy="985.36" r="23.92"/>
   <circle class="fil1" cx="562.4" cy="966.01" r="16.36"/>
   <circle class="fil1" cx="480.91" cy="1120.61" r="31.37"/>
  </g>
 </g>
</svg>
