<?xml version="1.0" encoding="UTF-8"?>
<!DOCTYPE svg PUBLIC "-//W3C//DTD SVG 1.1//EN" "http://www.w3.org/Graphics/SVG/1.1/DTD/svg11.dtd">
<!-- Creator: CorelDRAW 2019 (64-Bit) -->
<svg xmlns="http://www.w3.org/2000/svg" xml:space="preserve" width="114.64mm" height="49.7652mm" version="1.1" style="shape-rendering:geometricPrecision; text-rendering:geometricPrecision; image-rendering:optimizeQuality; fill-rule:evenodd; clip-rule:evenodd"
viewBox="0 0 7330.32 3182.1"
 xmlns:xlink="http://www.w3.org/1999/xlink">
 <defs>
  <style type="text/css">
   <![CDATA[
    .fil0 {fill:#373435;fill-rule:nonzero}
    .fil1 {fill:#CC2129;fill-rule:nonzero}
   ]]>
  </style>
 </defs>
 <g id="Capa_x0020_1">
  <metadata id="CorelCorpID_0Corel-Layer"/>
  <g id="_1654729917392">
   <path class="fil0" d="M960.04 2443.02c205.06,0 371.18,-72.37 500.03,-216.57 128.3,-144.75 195.19,-314.17 199.58,-508.81 4.94,-194.09 -52.64,-361.86 -173.26,-502.77 -120.62,-140.9 -270.3,-211.09 -449.04,-211.09l-719.34 0c-212.18,0 -318,93.21 -318,279.63l0 1603.17c0,185.87 105.82,279.08 318,279.08 211.64,0 318,-93.21 318,-279.08l0 -443.56 324.03 0zm-140.91 -1008.83c179.84,0 269.75,82.79 269.75,247.27 0,165.04 -89.92,247.82 -269.75,247.82l-183.12 0 0 -495.09 183.12 0z"/>
   <path class="fil0" d="M2431.58 2886.58c0,185.87 -106.37,279.08 -318,279.08 -212.18,0 -318,-93.21 -318,-279.08l0 -1609.75c0,-186.42 105.82,-279.63 318,-279.63 211.64,0 318,93.21 318,279.63l0 1609.75z"/>
   <path class="fil0" d="M3960.47 2692.15c0,165.84 -70.69,288.99 -211.63,369.46 -141.38,80.03 -301.88,120.49 -481.5,120.49 -179.62,0 -340.12,-40.46 -481.06,-120.49 -141.38,-80.47 -211.63,-203.62 -211.63,-369.46l0 -1055.04c0,-151.17 85.81,-226.75 257.87,-226.75 171.61,0 257.87,75.59 257.87,226.75l0 979.46c0,99.14 59.13,148.49 176.95,148.49 118.27,0 177.4,-49.35 177.4,-148.49l0 -979.46c0,-151.17 85.81,-226.75 257.87,-226.75 171.61,0 257.87,75.59 257.87,226.75l0 1055.04z"/>
   <path class="fil0" d="M4719.94 3174.1c-167.17,0 -329.45,-26.24 -486.4,-79.58 -157.39,-52.91 -235.64,-147.61 -235.64,-283.66 0,-136.49 61.35,-204.52 184.95,-204.52 18.23,0 90.7,23.57 217.41,71.58 126.71,47.57 236.53,71.58 329.01,71.58 92.48,0 138.72,-39.13 138.72,-117.38 0,-51.13 -32.01,-93.81 -95.15,-128.04 -63.58,-34.23 -152.05,-70.25 -264.98,-107.6 -113.38,-37.34 -184.51,-65.36 -212.97,-84.47 -132.05,-88.03 -198.29,-215.63 -198.29,-383.69 0,-168.06 55.13,-304.11 165.39,-408.59 107.6,-102.26 235.19,-153.38 381.91,-153.38 146.72,0 274.32,16 382.8,48.01 203.18,64.47 284.99,159.17 245.42,284.55 -39.57,125.38 -111.6,184.06 -216.97,175.17 -9.34,0 -61.36,-17.78 -156.06,-53.35 -94.7,-35.56 -178.73,-53.35 -252.09,-53.35 -73.36,0 -110.26,36.01 -110.26,108.04 0,46.24 31.12,85.81 93.36,119.15 62.25,33.79 149.39,70.25 262.32,109.37 112.93,39.57 184.51,69.81 215.19,90.7 133.38,90.25 200.52,224.52 200.52,403.25 0,178.29 -57.36,319.67 -172.06,423.71 -110.26,101.82 -248.98,152.5 -416.15,152.5z"/>
   <path class="fil1" d="M5066.81 1320.57c-227.63,0 -342.18,-113.09 -342.18,-339.99 0,-226.18 114.55,-339.26 342.18,-339.26l299.13 0 0 -299.86c0,-227.63 113.82,-341.45 339.99,-341.45 226.91,0 339.99,113.82 339.99,341.45l0 299.86 299.13 0c228.37,0 342.19,113.09 342.19,339.26 0,226.91 -113.82,339.99 -342.19,339.99l-299.13 0 0 299.13c0,228.36 -113.09,342.18 -339.99,342.18 -226.18,0 -339.99,-113.82 -339.99,-342.18l0 -299.13 -299.13 0z"/>
   <path class="fil1" d="M6053.99 2623.05c-179.29,0 -269.52,-89.07 -269.52,-267.79 0,-178.15 90.23,-267.23 269.52,-267.23l235.61 0 0 -236.18c0,-179.3 89.65,-268.95 267.8,-268.95 178.72,0 267.8,89.65 267.8,268.95l0 236.18 235.61 0c179.87,0 269.52,89.08 269.52,267.23 0,178.72 -89.65,267.79 -269.52,267.79l-235.61 0 0 235.61c0,179.88 -89.08,269.52 -267.8,269.52 -178.15,0 -267.8,-89.65 -267.8,-269.52l0 -235.61 -235.61 0z"/>
  </g>
 </g>
</svg>
