<?xml version="1.0" encoding="UTF-8"?>
<!DOCTYPE svg PUBLIC "-//W3C//DTD SVG 1.1//EN" "http://www.w3.org/Graphics/SVG/1.1/DTD/svg11.dtd">
<!-- Creator: CorelDRAW 2019 (64-Bit) -->
<svg xmlns="http://www.w3.org/2000/svg" xml:space="preserve" width="86.7266mm" height="36.858mm" version="1.1" style="shape-rendering:geometricPrecision; text-rendering:geometricPrecision; image-rendering:optimizeQuality; fill-rule:evenodd; clip-rule:evenodd"
viewBox="0 0 1620.73 688.8"
 xmlns:xlink="http://www.w3.org/1999/xlink">
 <defs>
  <style type="text/css">
   <![CDATA[
    .fil0 {fill:#FEFEFE}
    .fil1 {fill:#FEFEFE;fill-rule:nonzero}
   ]]>
  </style>
 </defs>
 <g id="Capa_x0020_1">
  <metadata id="CorelCorpID_0Corel-Layer"/>
  <g id="_1821329177680">
   <path class="fil0" d="M181.94 0c64.6,-0.19 117.12,54.35 117.32,121.82 0.2,67.47 -52.01,122.31 -116.61,122.5 -64.6,0.19 -117.12,-54.35 -117.32,-121.82 -0.2,-67.47 52.01,-122.31 116.61,-122.5z"/>
   <path class="fil0" d="M80.21 237.26c44.43,-0.13 80.56,36.12 80.69,80.97 0.13,44.85 -35.78,81.31 -80.21,81.44 -44.43,0.13 -80.56,-36.12 -80.69,-80.97 -0.13,-44.85 35.78,-81.31 80.21,-81.44z"/>
   <path class="fil0" d="M104.09 420.87c34.14,-0.1 61.91,28.47 62.01,63.82 0.1,35.35 -27.49,64.08 -61.64,64.18 -34.14,0.1 -61.91,-28.47 -62.01,-63.82 -0.1,-35.35 27.49,-64.08 61.64,-64.18z"/>
   <path class="fil0" d="M183.52 543.12c26.5,-0.08 48.06,22.1 48.14,49.54 0.08,27.44 -21.34,49.75 -47.85,49.82 -26.5,0.08 -48.06,-22.1 -48.14,-49.54 -0.08,-27.44 21.34,-49.75 47.85,-49.82z"/>
   <path class="fil0" d="M276.21 619.45c17.67,-0.05 32.04,15.43 32.1,34.58 0.06,19.15 -14.22,34.72 -31.89,34.77 -17.67,0.05 -32.04,-15.43 -32.09,-34.58 -0.06,-19.15 14.22,-34.71 31.89,-34.77z"/>
   <path class="fil0" d="M387 276.86l-6.09 42.8 -122.14 0.36 -1.32 20.7c36.34,-0.1 72.68,-0.21 109.02,-0.32 38.74,9.87 22.39,133.73 -34.83,123.62l-143.53 0.42 6.78 -41.42 135.25 0.99 6.09 -42.8c-35.19,0.1 -70.39,0.21 -105.58,0.31 -43.74,3.34 -27.17,-103.43 16.94,-104.94l139.39 0.28z"/>
   <path class="fil0" d="M409.18 308.54l51.06 -0.15 -17.62 111.84 84.88 -0.25 17.62 -111.15 50.37 -0.15 -25.77 155.34 -47.61 0.14 2.04 -11.05c-4.82,3.46 -9.64,6.93 -14.46,10.39 -85.34,0.3 -119.91,14.16 -118.78,-32.09l18.27 -122.88z"/>
   <polygon class="fil0" points="612.47,276.03 662.15,275.89 632.68,463.67 583,463.82 "/>
   <polygon class="fil0" points="674.22,276.55 721.84,276.41 694.77,463.15 645.09,463.3 "/>
   <path class="fil0" d="M746.07 307.75c-2.03,14.5 -4.05,28.99 -6.08,43.49 39.68,0.23 79.36,0.46 119.04,0.69 -0.1,3.45 -0.21,6.9 -0.31,10.35 -36.11,0.11 -72.23,0.21 -108.34,0.32 -43.26,15.43 -51.59,98.6 -11.09,100.78 50.83,-0.15 101.67,-0.3 152.5,-0.44 5.98,-38.89 11.96,-77.78 17.94,-116.67 3.54,-23.59 -9.12,-35.96 -34.96,-39.23 -42.9,0.24 -85.8,0.48 -128.7,0.72zm19.37 97.55l85.56 -0.25 -3.75 16.92 -85.56 0.25 3.75 -16.92z"/>
   <path class="fil0" d="M905.69 464.58c8.13,-52.24 16.25,-104.48 24.38,-156.71 52.21,-0.15 104.43,-0.3 156.64,-0.46 18.73,1 24.68,15.9 18.78,51.01 -5.19,34.52 -10.38,69.03 -15.57,103.55 -16.33,0.05 -32.66,0.1 -48.99,0.14 5.64,-37.05 11.28,-74.1 16.93,-111.15 -28.29,0.08 -56.58,0.17 -84.87,0.25 -6.63,37.74 -13.26,75.48 -19.9,113.23 -15.8,0.05 -31.6,0.09 -47.4,0.14z"/>
   <path class="fil0" d="M1139.53 306.6c-2.03,14.5 -4.06,29 -6.08,43.49 39.68,0.23 79.36,0.46 119.04,0.69 -0.1,3.45 -0.21,6.9 -0.31,10.35 -36.11,0.1 -72.23,0.21 -108.34,0.32 -43.26,15.43 -51.59,98.6 -11.09,100.78 50.83,-0.15 101.67,-0.3 152.5,-0.45 5.98,-38.89 11.96,-77.78 17.94,-116.67 3.54,-23.59 -9.12,-35.96 -34.96,-39.23 -42.9,0.24 -85.8,0.48 -128.7,0.72zm19.37 97.55l85.56 -0.25 -3.75 16.92 -85.56 0.25 3.75 -16.92z"/>
   <path class="fil1" d="M349.41 242.29l9.62 -45.84 -16.32 0.05 1.96 -9.32 43.73 -0.13 -1.96 9.32 -16.24 0.05 -9.62 45.84 -11.16 0.03zm40.39 -0.12l-10.55 0.03 8.39 -39.98 9.78 -0.03 -1.19 5.67c2.24,-2.69 4.13,-4.45 5.65,-5.29 1.52,-0.84 3.13,-1.25 4.84,-1.26 2.41,-0.01 4.59,0.65 6.55,1.97l-5.21 9.23c-1.54,-1.15 -3.07,-1.72 -4.6,-1.72 -1.49,0 -2.83,0.42 -4.03,1.23 -1.2,0.83 -2.32,2.29 -3.35,4.43 -1.04,2.13 -2.27,6.6 -3.7,13.39l-2.59 12.32zm33.54 -27.74l-9.19 -1.67c1.9,-3.91 4.36,-6.8 7.39,-8.68 3.02,-1.88 7.13,-2.83 12.32,-2.85 4.71,-0.01 8.11,0.53 10.18,1.64 2.06,1.11 3.4,2.52 3.97,4.24 0.58,1.72 0.39,4.86 -0.58,9.46l-2.74 12.32c-0.74,3.51 -1.11,6.1 -1.13,7.77 -0.02,1.67 0.24,3.45 0.76,5.35l-10.47 0.03c-0.13,-0.69 -0.26,-1.72 -0.37,-3.08 -0.03,-0.63 -0.08,-1.04 -0.11,-1.23 -2.17,1.78 -4.37,3.11 -6.61,4 -2.24,0.89 -4.51,1.35 -6.84,1.35 -4.09,0.01 -7.09,-1.1 -8.98,-3.32 -1.89,-2.21 -2.48,-5.04 -1.77,-8.45 0.47,-2.25 1.44,-4.26 2.88,-6.04 1.45,-1.76 3.23,-3.13 5.38,-4.07 2.13,-0.94 5.1,-1.77 8.91,-2.49 5.12,-0.94 8.73,-1.82 10.8,-2.62l0.22 -1.07c0.43,-2.05 0.24,-3.52 -0.58,-4.4 -0.83,-0.87 -2.64,-1.3 -5.42,-1.29 -1.89,0.01 -3.43,0.38 -4.64,1.14 -1.22,0.75 -2.35,2.07 -3.4,3.96zm12.37 8.51c-1.44,0.45 -3.7,1 -6.77,1.64 -3.06,0.64 -5.11,1.26 -6.14,1.85 -1.58,0.99 -2.53,2.23 -2.85,3.73 -0.31,1.49 -0.03,2.76 0.85,3.83 0.88,1.07 2.16,1.61 3.87,1.61 1.9,-0.01 3.85,-0.64 5.85,-1.89 1.47,-0.97 2.56,-2.12 3.25,-3.51 0.46,-0.9 0.96,-2.62 1.49,-5.15l0.44 -2.11zm53.13 18.94l-10.55 0.03 4.28 -20.38c0.91,-4.31 1.26,-7.1 1.08,-8.36 -0.2,-1.27 -0.72,-2.24 -1.6,-2.95 -0.88,-0.7 -2.04,-1.05 -3.47,-1.04 -1.85,0.01 -3.61,0.51 -5.28,1.52 -1.69,1.01 -2.97,2.34 -3.85,3.99 -0.9,1.66 -1.81,4.71 -2.75,9.18l-3.79 18.08 -10.55 0.03 8.39 -39.98 9.78 -0.03 -1.23 5.87c4.44,-4.49 9.31,-6.74 14.64,-6.75 2.33,-0.01 4.39,0.41 6.15,1.24 1.77,0.84 3.01,1.9 3.73,3.2 0.73,1.31 1.11,2.78 1.15,4.44 0.05,1.66 -0.25,4.02 -0.9,7.1l-5.21 24.82zm9.28 -11.27l10.96 -1.65c0.02,2.04 0.6,3.59 1.77,4.64 1.15,1.06 2.98,1.58 5.45,1.58 2.73,-0.01 4.89,-0.52 6.49,-1.52 1.07,-0.71 1.73,-1.66 1.98,-2.84 0.17,-0.8 0.05,-1.46 -0.34,-1.99 -0.42,-0.5 -1.5,-0.97 -3.23,-1.39 -8.14,-1.86 -13.18,-3.57 -15.14,-5.11 -2.71,-2.16 -3.66,-5.16 -2.86,-9 0.73,-3.48 2.72,-6.4 5.94,-8.77 3.23,-2.37 7.71,-3.56 13.45,-3.58 5.47,-0.02 9.34,0.87 11.63,2.65 2.28,1.79 3.56,4.43 3.82,7.93l-10.32 1.88c-0.1,-1.57 -0.66,-2.77 -1.68,-3.6 -1.02,-0.83 -2.64,-1.24 -4.86,-1.23 -2.8,0.01 -4.88,0.4 -6.26,1.19 -0.93,0.56 -1.47,1.27 -1.66,2.15 -0.16,0.76 0.05,1.4 0.65,1.92 0.81,0.7 3.9,1.68 9.28,2.95 5.38,1.27 8.99,2.82 10.83,4.68 1.83,1.87 2.38,4.5 1.67,7.86 -0.77,3.66 -2.96,6.82 -6.58,9.46 -3.61,2.64 -8.41,3.97 -14.42,3.99 -5.44,0.01 -9.52,-1.08 -12.24,-3.26 -2.71,-2.18 -4.16,-5.16 -4.34,-8.93zm52.31 -28.87l9.85 -0.03 -1.23 5.87c1.7,-2.01 3.76,-3.63 6.2,-4.88 2.44,-1.24 5,-1.86 7.65,-1.87 4.63,-0.01 8.19,1.8 10.66,5.43 2.47,3.63 3.02,8.7 1.66,15.2 -1.4,6.69 -4.12,11.88 -8.16,15.6 -4.04,3.72 -8.38,5.58 -13.02,5.6 -2.21,0.01 -4.12,-0.42 -5.73,-1.31 -1.6,-0.87 -3.18,-2.36 -4.71,-4.49l-4.2 20 -10.55 0.03 11.58 -55.16zm6.33 19.35c-0.95,4.51 -0.76,7.83 0.57,9.98 1.32,2.14 3.26,3.21 5.8,3.2 2.45,-0.01 4.7,-1 6.74,-2.98 2.04,-1.98 3.53,-5.22 4.48,-9.73 0.89,-4.21 0.7,-7.33 -0.55,-9.37 -1.24,-2.04 -3.1,-3.04 -5.58,-3.04 -2.58,0.01 -4.93,1.01 -7.05,3.02 -2.13,2.01 -3.6,4.97 -4.42,8.9zm34.45 0.03c0.74,-3.52 2.31,-6.92 4.73,-10.21 2.43,-3.31 5.4,-5.82 8.93,-7.56 3.53,-1.74 7.25,-2.63 11.16,-2.64 6.04,-0.02 10.57,1.93 13.61,5.85 3.03,3.93 3.92,8.88 2.66,14.89 -1.27,6.06 -4.28,11.09 -9,15.08 -4.74,3.99 -10.06,6 -15.97,6.01 -3.66,0.01 -6.97,-0.81 -9.95,-2.46 -2.96,-1.65 -4.98,-4.07 -6.04,-7.27 -1.06,-3.19 -1.1,-7.09 -0.14,-11.69zm10.74 0.53c-0.83,3.97 -0.53,7.01 0.9,9.11 1.44,2.11 3.53,3.16 6.29,3.15 2.75,-0.01 5.28,-1.07 7.58,-3.19 2.3,-2.11 3.88,-5.18 4.73,-9.2 0.82,-3.92 0.52,-6.93 -0.9,-9.03 -1.41,-2.11 -3.5,-3.16 -6.25,-3.15 -2.76,0.01 -5.29,1.07 -7.62,3.19 -2.31,2.11 -3.89,5.16 -4.72,9.12zm44.54 19.77l-10.55 0.03 8.39 -39.98 9.78 -0.03 -1.19 5.68c2.24,-2.69 4.13,-4.45 5.65,-5.29 1.52,-0.84 3.13,-1.26 4.84,-1.26 2.41,-0.01 4.6,0.65 6.55,1.97l-5.21 9.23c-1.54,-1.15 -3.07,-1.72 -4.6,-1.72 -1.49,0.01 -2.83,0.42 -4.03,1.23 -1.2,0.82 -2.32,2.29 -3.35,4.42 -1.04,2.13 -2.27,6.6 -3.7,13.39l-2.59 12.32zm46.51 -40.09l-1.76 8.4 -7.24 0.02 -3.4 16.19c-0.69,3.29 -1.03,5.2 -1,5.74 0.03,0.54 0.24,0.99 0.67,1.34 0.41,0.35 0.97,0.53 1.67,0.52 0.99,-0 2.47,-0.34 4.47,-1.03l-0.84 8.21c-2.67,1.06 -5.55,1.6 -8.66,1.61 -1.9,0 -3.54,-0.31 -4.93,-0.95 -1.39,-0.64 -2.33,-1.47 -2.83,-2.48 -0.5,-1.03 -0.7,-2.4 -0.62,-4.14 0.04,-1.23 0.45,-3.72 1.24,-7.48l3.67 -17.5 -4.85 0.01 1.76 -8.4 4.85 -0.01 1.67 -7.93 11.86 -6.27 -2.98 14.17 7.24 -0.02zm24.75 27.26l10.18 1.74c-2.16,3.87 -4.92,6.82 -8.26,8.85 -3.35,2.03 -7.22,3.05 -11.59,3.06 -6.94,0.02 -11.61,-2.24 -13.98,-6.77 -1.87,-3.64 -2.22,-8.23 -1.05,-13.79 1.39,-6.63 4.21,-11.83 8.45,-15.59 4.24,-3.77 9.01,-5.66 14.3,-5.68 5.93,-0.02 10.2,1.93 12.81,5.85 2.6,3.92 2.98,9.93 1.12,18.05l-26.41 0.08c-0.58,3.13 -0.25,5.57 1.02,7.31 1.25,1.74 3.09,2.61 5.51,2.6 1.65,-0 3.13,-0.46 4.44,-1.36 1.32,-0.9 2.47,-2.35 3.47,-4.36zm2.86 -10.71c0.57,-3.07 0.27,-5.4 -0.89,-6.99 -1.16,-1.6 -2.82,-2.39 -4.97,-2.39 -2.3,0.01 -4.37,0.86 -6.23,2.55 -1.85,1.69 -3.07,3.99 -3.65,6.88l15.74 -0.05zm12.8 12.05l10.96 -1.65c0.02,2.04 0.6,3.59 1.77,4.64 1.15,1.06 2.98,1.58 5.45,1.58 2.73,-0.01 4.89,-0.52 6.49,-1.52 1.07,-0.71 1.73,-1.66 1.98,-2.84 0.17,-0.8 0.05,-1.46 -0.34,-1.99 -0.42,-0.5 -1.5,-0.97 -3.23,-1.39 -8.14,-1.86 -13.18,-3.57 -15.14,-5.11 -2.71,-2.16 -3.66,-5.16 -2.86,-9 0.73,-3.48 2.72,-6.4 5.94,-8.77 3.23,-2.37 7.71,-3.56 13.45,-3.58 5.47,-0.01 9.34,0.87 11.63,2.65 2.28,1.79 3.56,4.43 3.82,7.93l-10.32 1.88c-0.09,-1.56 -0.66,-2.77 -1.68,-3.6 -1.02,-0.83 -2.64,-1.24 -4.86,-1.23 -2.8,0.01 -4.88,0.4 -6.26,1.19 -0.93,0.56 -1.47,1.27 -1.66,2.15 -0.16,0.76 0.05,1.4 0.65,1.92 0.81,0.7 3.9,1.68 9.28,2.95 5.38,1.27 8.99,2.82 10.83,4.68 1.83,1.87 2.38,4.5 1.67,7.86 -0.77,3.66 -2.96,6.82 -6.58,9.46 -3.61,2.64 -8.41,3.98 -14.42,3.99 -5.44,0.02 -9.52,-1.07 -12.24,-3.26 -2.71,-2.19 -4.16,-5.16 -4.34,-8.93z"/>
   <path class="fil1" d="M900.47 614l7.5 -0.02 -0.94 4.47c1.3,-1.53 2.87,-2.76 4.73,-3.72 1.86,-0.94 3.8,-1.42 5.83,-1.42 3.53,-0.01 6.23,1.37 8.11,4.14 1.88,2.76 2.3,6.63 1.26,11.57 -1.07,5.09 -3.14,9.05 -6.21,11.88 -3.07,2.83 -6.38,4.25 -9.92,4.26 -1.68,0 -3.13,-0.32 -4.36,-0.99 -1.22,-0.66 -2.42,-1.8 -3.59,-3.42l-3.2 15.23 -8.03 0.02 8.82 -42zm4.82 14.73c-0.72,3.43 -0.58,5.96 0.44,7.6 1.01,1.63 2.48,2.45 4.42,2.44 1.87,-0 3.58,-0.76 5.14,-2.27 1.56,-1.51 2.69,-3.97 3.41,-7.41 0.67,-3.21 0.54,-5.58 -0.42,-7.13 -0.94,-1.55 -2.36,-2.32 -4.25,-2.31 -1.96,0.01 -3.76,0.77 -5.37,2.3 -1.62,1.53 -2.74,3.79 -3.37,6.78zm32.51 15.59l-8.03 0.02 6.39 -30.44 7.45 -0.02 -0.91 4.32c1.71,-2.05 3.14,-3.39 4.3,-4.03 1.16,-0.64 2.39,-0.95 3.69,-0.96 1.84,-0.01 3.5,0.5 4.99,1.5l-3.97 7.02c-1.17,-0.88 -2.34,-1.31 -3.5,-1.31 -1.13,0 -2.15,0.32 -3.07,0.94 -0.91,0.63 -1.76,1.75 -2.55,3.37 -0.79,1.62 -1.73,5.03 -2.81,10.2l-1.97 9.39zm16.53 -15.63c0.56,-2.68 1.76,-5.27 3.6,-7.78 1.85,-2.52 4.11,-4.43 6.8,-5.76 2.69,-1.32 5.52,-2 8.5,-2.01 4.6,-0.01 8.05,1.47 10.36,4.46 2.31,2.99 2.98,6.76 2.02,11.33 -0.97,4.61 -3.26,8.44 -6.85,11.48 -3.6,3.04 -7.66,4.56 -12.16,4.58 -2.78,0.01 -5.31,-0.62 -7.57,-1.87 -2.26,-1.25 -3.79,-3.09 -4.6,-5.54 -0.81,-2.43 -0.84,-5.4 -0.1,-8.9zm8.17 0.41c-0.63,3.02 -0.41,5.34 0.68,6.93 1.1,1.61 2.69,2.41 4.79,2.4 2.09,-0.01 4.02,-0.81 5.77,-2.43 1.75,-1.61 2.96,-3.95 3.6,-7.01 0.63,-2.98 0.39,-5.28 -0.69,-6.88 -1.08,-1.61 -2.67,-2.41 -4.76,-2.4 -2.1,0.01 -4.03,0.81 -5.8,2.43 -1.76,1.61 -2.96,3.93 -3.6,6.95zm29.11 -15.36l4.46 -0.01 0.48 -2.3c0.54,-2.56 1.21,-4.48 2.03,-5.74 0.81,-1.27 2.04,-2.3 3.67,-3.1 1.64,-0.8 3.58,-1.2 5.83,-1.21 2.29,-0.01 4.48,0.33 6.54,1.01l-2.2 5.6c-1.25,-0.3 -2.47,-0.45 -3.69,-0.45 -1.19,0 -2.1,0.28 -2.73,0.83 -0.63,0.55 -1.12,1.61 -1.45,3.17l-0.45 2.17 6.04 -0.02 -1.33 6.34 -6.04 0.02 -5.06 24.11 -8.03 0.02 5.06 -24.11 -4.46 0.01 1.33 -6.34zm36.25 20.7l7.75 1.32c-1.64,2.95 -3.74,5.19 -6.28,6.74 -2.55,1.54 -5.5,2.32 -8.83,2.33 -5.28,0.01 -8.84,-1.7 -10.64,-5.16 -1.42,-2.77 -1.69,-6.27 -0.8,-10.5 1.06,-5.04 3.21,-9.01 6.44,-11.87 3.23,-2.87 6.86,-4.31 10.88,-4.32 4.51,-0.01 7.77,1.47 9.76,4.46 1.98,2.98 2.27,7.56 0.85,13.74l-20.11 0.06c-0.44,2.38 -0.19,4.24 0.78,5.57 0.95,1.32 2.35,1.98 4.19,1.98 1.26,-0 2.39,-0.35 3.38,-1.04 1,-0.69 1.88,-1.79 2.64,-3.32zm2.18 -8.16c0.43,-2.34 0.21,-4.11 -0.68,-5.32 -0.89,-1.22 -2.15,-1.82 -3.79,-1.82 -1.75,0.01 -3.33,0.66 -4.74,1.94 -1.41,1.28 -2.34,3.03 -2.78,5.23l11.99 -0.04zm9.74 9.18l8.35 -1.26c0.02,1.55 0.46,2.73 1.35,3.53 0.87,0.81 2.26,1.2 4.15,1.2 2.08,-0.01 3.72,-0.39 4.94,-1.16 0.82,-0.54 1.32,-1.27 1.51,-2.16 0.13,-0.61 0.04,-1.11 -0.26,-1.51 -0.32,-0.38 -1.14,-0.74 -2.46,-1.06 -6.2,-1.42 -10.04,-2.72 -11.52,-3.89 -2.07,-1.65 -2.79,-3.93 -2.18,-6.85 0.56,-2.65 2.07,-4.87 4.53,-6.68 2.46,-1.81 5.87,-2.71 10.24,-2.73 4.16,-0.01 7.11,0.66 8.85,2.02 1.73,1.36 2.71,3.37 2.91,6.04l-7.86 1.43c-0.07,-1.19 -0.5,-2.11 -1.28,-2.74 -0.78,-0.63 -2.01,-0.94 -3.7,-0.94 -2.13,0.01 -3.72,0.3 -4.77,0.9 -0.7,0.42 -1.12,0.97 -1.26,1.64 -0.12,0.58 0.04,1.07 0.49,1.46 0.62,0.54 2.97,1.28 7.07,2.25 4.09,0.97 6.84,2.15 8.25,3.56 1.39,1.42 1.81,3.42 1.27,5.99 -0.58,2.78 -2.25,5.19 -5.01,7.2 -2.75,2.01 -6.41,3.03 -10.98,3.04 -4.14,0.01 -7.25,-0.82 -9.32,-2.48 -2.06,-1.67 -3.17,-3.93 -3.31,-6.8zm40.93 -26.09l1.56 -7.45 8.03 -0.02 -1.56 7.45 -8.03 0.02zm-7.25 34.55l6.39 -30.44 8.03 -0.02 -6.39 30.44 -8.03 0.02zm17.68 -15.63c0.56,-2.68 1.76,-5.27 3.6,-7.78 1.85,-2.52 4.11,-4.43 6.8,-5.75 2.69,-1.33 5.52,-2 8.5,-2.01 4.6,-0.01 8.05,1.47 10.36,4.46 2.31,2.99 2.98,6.76 2.02,11.34 -0.97,4.61 -3.26,8.44 -6.85,11.48 -3.6,3.04 -7.66,4.57 -12.16,4.58 -2.78,0.01 -5.31,-0.62 -7.57,-1.87 -2.26,-1.25 -3.79,-3.1 -4.6,-5.54 -0.81,-2.43 -0.84,-5.4 -0.1,-8.9zm8.18 0.41c-0.64,3.02 -0.41,5.34 0.68,6.94 1.1,1.61 2.69,2.41 4.79,2.4 2.09,-0.01 4.02,-0.81 5.77,-2.43 1.75,-1.61 2.96,-3.95 3.6,-7 0.63,-2.98 0.39,-5.28 -0.69,-6.88 -1.08,-1.61 -2.67,-2.41 -4.76,-2.4 -2.1,0.01 -4.03,0.81 -5.8,2.43 -1.76,1.61 -2.96,3.92 -3.6,6.95zm53.9 15l-8.03 0.02 3.26 -15.51c0.69,-3.29 0.96,-5.4 0.82,-6.36 -0.15,-0.97 -0.55,-1.71 -1.22,-2.24 -0.67,-0.53 -1.55,-0.8 -2.64,-0.79 -1.41,0.01 -2.75,0.39 -4.02,1.15 -1.28,0.77 -2.26,1.79 -2.93,3.04 -0.69,1.26 -1.38,3.59 -2.09,6.99l-2.89 13.76 -8.03 0.02 6.39 -30.44 7.44 -0.02 -0.94 4.47c3.38,-3.42 7.09,-5.13 11.15,-5.14 1.78,-0.01 3.34,0.31 4.68,0.94 1.35,0.64 2.29,1.45 2.84,2.43 0.55,0.99 0.84,2.12 0.87,3.38 0.04,1.26 -0.19,3.06 -0.69,5.4l-3.97 18.9zm18.54 -21.1l-7 -1.27c1.44,-2.98 3.32,-5.18 5.63,-6.61 2.3,-1.43 5.43,-2.16 9.38,-2.17 3.59,-0.01 6.17,0.4 7.75,1.25 1.57,0.84 2.59,1.92 3.02,3.23 0.44,1.31 0.3,3.7 -0.44,7.2l-2.09 9.39c-0.56,2.67 -0.85,4.64 -0.86,5.91 -0.01,1.27 0.18,2.63 0.58,4.07l-7.97 0.02c-0.09,-0.53 -0.19,-1.31 -0.28,-2.35 -0.03,-0.48 -0.06,-0.79 -0.09,-0.94 -1.65,1.35 -3.33,2.36 -5.03,3.04 -1.7,0.68 -3.44,1.03 -5.21,1.03 -3.12,0.01 -5.4,-0.83 -6.84,-2.53 -1.44,-1.69 -1.89,-3.83 -1.35,-6.43 0.36,-1.71 1.09,-3.25 2.2,-4.6 1.1,-1.34 2.46,-2.38 4.1,-3.1 1.62,-0.72 3.89,-1.35 6.78,-1.9 3.9,-0.71 6.65,-1.39 8.22,-2l0.17 -0.81c0.33,-1.56 0.18,-2.68 -0.44,-3.35 -0.63,-0.66 -2.01,-0.99 -4.13,-0.98 -1.44,0 -2.61,0.29 -3.53,0.87 -0.93,0.57 -1.79,1.58 -2.59,3.02zm9.42 6.48c-1.1,0.35 -2.82,0.76 -5.15,1.25 -2.33,0.48 -3.89,0.96 -4.67,1.41 -1.21,0.76 -1.93,1.7 -2.17,2.84 -0.24,1.13 -0.02,2.1 0.65,2.92 0.67,0.82 1.65,1.23 2.95,1.22 1.45,-0 2.93,-0.49 4.45,-1.44 1.12,-0.74 1.95,-1.62 2.47,-2.67 0.35,-0.69 0.73,-2 1.14,-3.92l0.34 -1.61zm12.78 14.5l8.82 -42 8.03 -0.02 -8.82 42 -8.03 0.02zm22.09 -30.49l7.39 -0.02 -0.87 4.16c3.32,-3.2 6.81,-4.82 10.47,-4.83 1.95,-0.01 3.55,0.39 4.81,1.19 1.27,0.8 2.19,2.01 2.75,3.63 1.68,-1.63 3.38,-2.84 5.09,-3.65 1.71,-0.81 3.45,-1.21 5.21,-1.22 2.23,-0.01 4.02,0.44 5.38,1.34 1.35,0.9 2.23,2.23 2.62,3.99 0.29,1.29 0.12,3.39 -0.49,6.29l-4.08 19.44 -8.03 0.02 3.65 -17.37c0.63,-3.02 0.77,-4.96 0.39,-5.83 -0.5,-1.14 -1.53,-1.72 -3.08,-1.71 -1.12,0 -2.26,0.35 -3.4,1.04 -1.13,0.7 -2.07,1.71 -2.78,3.03 -0.72,1.33 -1.37,3.42 -1.97,6.29l-3.06 14.6 -8.03 0.02 3.5 -16.66c0.62,-2.95 0.88,-4.87 0.77,-5.72 -0.1,-0.86 -0.41,-1.5 -0.93,-1.92 -0.51,-0.42 -1.28,-0.62 -2.31,-0.62 -1.24,0 -2.43,0.34 -3.55,1.01 -1.14,0.68 -2.04,1.64 -2.74,2.9 -0.7,1.26 -1.35,3.36 -1.96,6.27l-3.1 14.77 -8.03 0.02 6.39 -30.44zm65.92 20.62l7.75 1.33c-1.64,2.95 -3.74,5.19 -6.29,6.74 -2.55,1.54 -5.49,2.32 -8.83,2.33 -5.28,0.01 -8.84,-1.7 -10.64,-5.16 -1.42,-2.77 -1.69,-6.27 -0.8,-10.5 1.06,-5.04 3.21,-9.01 6.43,-11.87 3.23,-2.87 6.86,-4.31 10.89,-4.32 4.51,-0.01 7.76,1.47 9.76,4.46 1.98,2.98 2.27,7.56 0.85,13.74l-20.11 0.06c-0.44,2.38 -0.19,4.24 0.78,5.57 0.95,1.32 2.36,1.99 4.19,1.98 1.26,-0 2.39,-0.35 3.38,-1.04 1,-0.69 1.88,-1.79 2.64,-3.32zm2.18 -8.15c0.43,-2.34 0.21,-4.11 -0.68,-5.32 -0.89,-1.22 -2.15,-1.82 -3.79,-1.82 -1.75,0 -3.33,0.65 -4.74,1.94 -1.41,1.28 -2.34,3.04 -2.78,5.23l11.99 -0.03zm38.48 17.65l-8.03 0.02 3.26 -15.51c0.69,-3.29 0.96,-5.4 0.82,-6.36 -0.15,-0.97 -0.55,-1.71 -1.22,-2.24 -0.67,-0.54 -1.55,-0.8 -2.65,-0.79 -1.41,0 -2.75,0.39 -4.02,1.15 -1.28,0.77 -2.26,1.78 -2.93,3.04 -0.68,1.26 -1.38,3.59 -2.09,6.99l-2.89 13.76 -8.03 0.02 6.39 -30.44 7.45 -0.02 -0.94 4.47c3.38,-3.42 7.09,-5.13 11.15,-5.14 1.78,-0.01 3.34,0.31 4.69,0.94 1.35,0.64 2.29,1.45 2.84,2.44 0.55,0.99 0.84,2.12 0.87,3.38 0.04,1.26 -0.19,3.06 -0.69,5.4l-3.97 18.9zm28.42 -30.51l-1.34 6.39 -5.51 0.02 -2.59 12.33c-0.53,2.5 -0.78,3.96 -0.76,4.37 0.02,0.41 0.19,0.75 0.51,1.02 0.32,0.26 0.74,0.4 1.27,0.4 0.75,-0 1.88,-0.26 3.4,-0.78l-0.64 6.25c-2.03,0.81 -4.23,1.21 -6.59,1.22 -1.45,0.01 -2.69,-0.24 -3.75,-0.72 -1.06,-0.48 -1.78,-1.12 -2.15,-1.89 -0.38,-0.78 -0.53,-1.83 -0.47,-3.15 0.03,-0.94 0.34,-2.83 0.94,-5.7l2.8 -13.32 -3.69 0.01 1.34 -6.39 3.69 -0.01 1.27 -6.04 9.03 -4.77 -2.27 10.79 5.51 -0.02zm18.84 20.75l7.75 1.32c-1.64,2.95 -3.75,5.19 -6.29,6.74 -2.55,1.54 -5.5,2.32 -8.83,2.33 -5.28,0.02 -8.84,-1.7 -10.64,-5.16 -1.42,-2.77 -1.69,-6.27 -0.8,-10.5 1.06,-5.04 3.21,-9.01 6.44,-11.87 3.23,-2.87 6.86,-4.31 10.89,-4.32 4.51,-0.01 7.76,1.47 9.76,4.46 1.98,2.98 2.27,7.56 0.86,13.74l-20.11 0.06c-0.44,2.38 -0.19,4.24 0.78,5.57 0.95,1.32 2.36,1.98 4.19,1.98 1.26,-0 2.39,-0.35 3.38,-1.04 1,-0.69 1.88,-1.79 2.64,-3.32zm2.18 -8.16c0.43,-2.34 0.21,-4.11 -0.68,-5.32 -0.89,-1.22 -2.15,-1.82 -3.79,-1.82 -1.75,0.01 -3.33,0.66 -4.74,1.94 -1.41,1.28 -2.34,3.03 -2.78,5.23l11.99 -0.04zm32.91 -12.76l7.39 -0.02 -0.87 4.16c3.32,-3.2 6.81,-4.82 10.47,-4.83 1.94,-0.01 3.55,0.39 4.81,1.19 1.27,0.8 2.19,2.01 2.75,3.63 1.68,-1.63 3.38,-2.84 5.09,-3.65 1.71,-0.81 3.45,-1.21 5.2,-1.22 2.23,-0.01 4.02,0.44 5.38,1.34 1.35,0.9 2.23,2.23 2.62,3.99 0.29,1.29 0.12,3.39 -0.49,6.29l-4.08 19.43 -8.03 0.02 3.65 -17.37c0.63,-3.02 0.77,-4.96 0.39,-5.83 -0.5,-1.14 -1.53,-1.72 -3.08,-1.71 -1.12,0 -2.26,0.35 -3.4,1.04 -1.13,0.7 -2.07,1.7 -2.78,3.03 -0.72,1.33 -1.37,3.42 -1.98,6.29l-3.06 14.6 -8.03 0.02 3.5 -16.66c0.62,-2.95 0.87,-4.87 0.77,-5.72 -0.1,-0.86 -0.41,-1.5 -0.92,-1.92 -0.51,-0.42 -1.29,-0.62 -2.31,-0.62 -1.24,0 -2.42,0.34 -3.55,1.01 -1.14,0.68 -2.04,1.64 -2.74,2.9 -0.7,1.26 -1.35,3.36 -1.96,6.27l-3.1 14.77 -8.03 0.02 6.39 -30.44zm65.92 20.62l7.75 1.32c-1.64,2.95 -3.75,5.19 -6.29,6.74 -2.55,1.54 -5.5,2.32 -8.83,2.33 -5.28,0.01 -8.84,-1.7 -10.64,-5.16 -1.42,-2.77 -1.69,-6.27 -0.8,-10.5 1.06,-5.05 3.21,-9.01 6.44,-11.87 3.23,-2.87 6.86,-4.31 10.89,-4.32 4.51,-0.01 7.77,1.47 9.76,4.46 1.98,2.98 2.27,7.57 0.85,13.74l-20.11 0.06c-0.44,2.39 -0.19,4.24 0.77,5.57 0.95,1.32 2.36,1.98 4.19,1.98 1.26,-0 2.39,-0.35 3.38,-1.03 1,-0.69 1.88,-1.79 2.64,-3.32zm2.18 -8.15c0.43,-2.34 0.21,-4.11 -0.68,-5.32 -0.89,-1.22 -2.15,-1.82 -3.79,-1.82 -1.75,0.01 -3.33,0.65 -4.74,1.94 -1.41,1.28 -2.33,3.03 -2.78,5.23l11.99 -0.03zm17.89 -16.82l1.56 -7.45 8.03 -0.02 -1.56 7.45 -8.03 0.02zm7.17 4.08l-6.19 29.47c-0.81,3.87 -1.64,6.61 -2.48,8.2 -0.83,1.6 -2.07,2.85 -3.71,3.74 -1.62,0.9 -3.56,1.36 -5.79,1.36 -0.8,0 -1.65,-0.06 -2.54,-0.21 -0.9,-0.13 -1.85,-0.35 -2.86,-0.64l2.82 -6.85c0.37,0.07 0.71,0.13 1.04,0.18 0.32,0.05 0.63,0.07 0.92,0.07 0.82,-0 1.54,-0.18 2.14,-0.53 0.6,-0.35 1.04,-0.78 1.31,-1.28 0.28,-0.5 0.68,-1.98 1.2,-4.47l6.09 -29.03 8.03 -0.02zm3.44 14.83c0.56,-2.68 1.76,-5.27 3.6,-7.78 1.85,-2.52 4.11,-4.43 6.8,-5.75 2.69,-1.33 5.52,-2 8.5,-2.01 4.6,-0.01 8.05,1.47 10.36,4.46 2.31,2.99 2.98,6.76 2.02,11.34 -0.97,4.61 -3.26,8.44 -6.85,11.48 -3.61,3.04 -7.66,4.57 -12.16,4.58 -2.78,0.01 -5.31,-0.62 -7.57,-1.87 -2.26,-1.25 -3.79,-3.1 -4.6,-5.54 -0.81,-2.43 -0.84,-5.4 -0.1,-8.9zm8.17 0.41c-0.63,3.02 -0.41,5.34 0.68,6.94 1.1,1.61 2.69,2.41 4.79,2.4 2.09,-0.01 4.02,-0.81 5.77,-2.43 1.75,-1.61 2.96,-3.95 3.6,-7.01 0.63,-2.98 0.4,-5.28 -0.68,-6.88 -1.08,-1.61 -2.67,-2.41 -4.76,-2.4 -2.1,0.01 -4.03,0.81 -5.8,2.43 -1.76,1.61 -2.96,3.93 -3.6,6.95zm33.91 15.05l-8.03 0.02 6.39 -30.44 7.45 -0.02 -0.91 4.32c1.71,-2.05 3.14,-3.39 4.3,-4.03 1.16,-0.64 2.39,-0.95 3.69,-0.96 1.84,-0.01 3.5,0.5 4.99,1.5l-3.97 7.03c-1.17,-0.87 -2.34,-1.31 -3.5,-1.31 -1.13,0 -2.15,0.32 -3.07,0.94 -0.91,0.63 -1.76,1.74 -2.55,3.37 -0.79,1.62 -1.73,5.03 -2.81,10.2l-1.97 9.39zm34.74 -9.72l7.75 1.33c-1.64,2.95 -3.75,5.19 -6.29,6.74 -2.55,1.54 -5.5,2.32 -8.83,2.33 -5.28,0.01 -8.84,-1.7 -10.64,-5.16 -1.42,-2.77 -1.69,-6.27 -0.8,-10.5 1.06,-5.04 3.21,-9.01 6.44,-11.87 3.23,-2.87 6.86,-4.31 10.89,-4.32 4.51,-0.01 7.77,1.47 9.76,4.46 1.98,2.98 2.27,7.56 0.86,13.74l-20.11 0.06c-0.44,2.39 -0.19,4.24 0.77,5.57 0.95,1.32 2.36,1.98 4.19,1.98 1.26,-0 2.39,-0.35 3.38,-1.04 1,-0.69 1.88,-1.79 2.64,-3.32zm2.18 -8.15c0.43,-2.34 0.21,-4.11 -0.68,-5.32 -0.89,-1.22 -2.15,-1.82 -3.79,-1.82 -1.75,0.01 -3.33,0.65 -4.74,1.94 -1.41,1.28 -2.33,3.03 -2.78,5.23l11.99 -0.04zm9.74 9.17l8.35 -1.25c0.01,1.55 0.46,2.73 1.35,3.53 0.87,0.81 2.26,1.21 4.15,1.2 2.08,-0.01 3.72,-0.39 4.94,-1.16 0.82,-0.54 1.32,-1.27 1.51,-2.16 0.13,-0.61 0.04,-1.11 -0.26,-1.51 -0.32,-0.38 -1.14,-0.74 -2.46,-1.06 -6.2,-1.42 -10.03,-2.72 -11.52,-3.89 -2.07,-1.64 -2.79,-3.93 -2.17,-6.85 0.56,-2.65 2.07,-4.87 4.53,-6.68 2.46,-1.81 5.87,-2.71 10.24,-2.73 4.16,-0.01 7.11,0.66 8.85,2.02 1.73,1.36 2.71,3.37 2.91,6.04l-7.86 1.43c-0.07,-1.19 -0.5,-2.11 -1.28,-2.74 -0.78,-0.63 -2.01,-0.94 -3.7,-0.94 -2.13,0.01 -3.72,0.3 -4.77,0.9 -0.7,0.42 -1.12,0.97 -1.26,1.64 -0.12,0.58 0.04,1.07 0.49,1.47 0.62,0.53 2.97,1.28 7.07,2.25 4.09,0.96 6.84,2.15 8.25,3.56 1.39,1.42 1.81,3.42 1.27,5.99 -0.58,2.79 -2.25,5.2 -5.01,7.21 -2.75,2.01 -6.41,3.03 -10.98,3.04 -4.14,0.01 -7.25,-0.82 -9.32,-2.48 -2.06,-1.67 -3.17,-3.93 -3.31,-6.8z"/>
   <path class="fil0" d="M1000.15 485.67l-4.07 23.13 -76.94 0.22 -2.04 8.63 69 -0.2 -4.07 24.51 -69.35 0.2 -3.39 21.06 78.66 -0.23 -4.42 23.82c-30.13,0.09 -60.26,0.18 -90.4,0.26 -13.64,0.45 -14.05,-9.98 -12.49,-22.04 2.93,-20.25 5.86,-40.5 8.79,-60.75 2.28,-12.78 10.16,-18.65 23.06,-18.35l87.64 -0.26z"/>
   <polygon class="fil0" points="1034,501.88 1047.9,535.3 1075.4,501.07 1106.11,500.98 1074.14,540.06 1091.52,584.86 1062.88,584.95 1049.33,552.55 1021.13,585.75 989.05,585.85 1022.75,547.11 1004.67,501.96 "/>
   <path class="fil0" d="M1110.94 501.65l-16.61 101.48 27.95 -0.08 4.09 -18.64c20.93,-0.06 41.86,-0.12 62.79,-0.18 11.2,-0.21 16.9,-6.97 18.92,-19.72 2.15,-13.46 4.29,-26.92 6.44,-40.39 2.37,-14.18 -3.39,-22.16 -18.01,-23.41l-85.56 0.94zm74.6 24.28l-6.11 35.21 -51.06 0.15 7.83 -35.22 49.34 -0.14z"/>
   <polygon class="fil0" points="1224.64,502.36 1253.62,502.28 1254.33,507.45 1259.49,501.23 1282.6,501.16 1278.54,526.01 1249.55,526.1 1240.41,585.12 1210.05,585.21 "/>
   <path class="fil0" d="M1388.68 554.33l-79.7 0.23 0.02 8.28 70.73 -0.21 -4.76 22.44c-25.65,0.07 -51.3,0.15 -76.94,0.22 -14.61,-0.18 -19.22,-7.08 -17.99,-17.89 2.83,-15.99 5.66,-31.99 8.49,-47.98 1.85,-10.58 7.95,-17.85 22.72,-18.35 22.08,-0.06 44.16,-0.13 66.24,-0.19 12.18,0.33 17.4,8.21 14.91,24.45l-3.71 28.99zm-74.52 -29.36l50.89 -0.15 0.02 5.87 -50.89 0.15 -0.02 -5.86z"/>
   <path class="fil0" d="M1503.52 501.13l-4.41 24.34 -70.56 0.21 0.01 5 78.15 -0.23c-1.69,10.64 -3.39,21.29 -5.08,31.93 -3.68,16.1 -14.49,23 -30.64,23.03l-81.25 0.24 5.45 -23.65 77.63 -0.23 -0.02 -8.28c-20.01,0.06 -40.02,0.12 -60.03,0.18 -20.04,0.16 -15.83,-50.19 11.4,-52.3l79.36 -0.23z"/>
   <path class="fil0" d="M1616.69 500.8l-4.41 24.34 -70.56 0.21 0.01 5 78.15 -0.23c-1.69,10.64 -3.39,21.29 -5.08,31.93 -3.68,16.1 -14.49,23 -30.64,23.03l-81.25 0.24 5.45 -23.65 77.63 -0.23 -0.02 -8.28c-20.01,0.06 -40.02,0.12 -60.03,0.17 -20.04,0.16 -15.82,-50.19 11.41,-52.3l79.35 -0.23z"/>
  </g>
 </g>
</svg>
