<?xml version="1.0" encoding="UTF-8"?>
<!DOCTYPE svg PUBLIC "-//W3C//DTD SVG 1.1//EN" "http://www.w3.org/Graphics/SVG/1.1/DTD/svg11.dtd">
<!-- Creator: CorelDRAW 2019 (64-Bit) -->
<svg xmlns="http://www.w3.org/2000/svg" xml:space="preserve" width="91.7605mm" height="44.4476mm" version="1.1" style="shape-rendering:geometricPrecision; text-rendering:geometricPrecision; image-rendering:optimizeQuality; fill-rule:evenodd; clip-rule:evenodd"
viewBox="0 0 3870.94 1875.03"
 xmlns:xlink="http://www.w3.org/1999/xlink">
 <defs>
  <style type="text/css">
   <![CDATA[
    .fil0 {fill:#C13437}
    .fil1 {fill:#373435;fill-rule:nonzero}
   ]]>
  </style>
 </defs>
 <g id="Capa_x0020_1">
  <metadata id="CorelCorpID_0Corel-Layer"/>
  <g id="_1655059939792">
   <circle class="fil0" cx="956.77" cy="559.87" r="116.23"/>
   <circle class="fil0" cx="739.68" cy="586.04" r="70.42"/>
   <circle class="fil0" cx="805.43" cy="479.92" r="33.58"/>
   <circle class="fil0" cx="1131.37" cy="639.31" r="56.62"/>
   <circle class="fil0" cx="1241.52" cy="640.26" r="33.58"/>
   <circle class="fil0" cx="1316.31" cy="655.45" r="22.06"/>
   <circle class="fil0" cx="1382.66" cy="662.33" r="13.99"/>
   <circle class="fil0" cx="891.16" cy="785.63" r="102.27"/>
   <circle class="fil0" cx="1046.14" cy="716.81" r="33.58"/>
   <circle class="fil0" cx="755.62" cy="709.89" r="33.58"/>
   <circle class="fil0" cx="898.36" cy="977.7" r="73.38"/>
   <circle class="fil0" cx="754.91" cy="1057.4" r="73.38"/>
   <circle class="fil0" cx="881.57" cy="1119.42" r="49.02"/>
   <circle class="fil0" cx="599.5" cy="1127.79" r="73.38"/>
   <circle class="fil0" cx="769.35" cy="1201.95" r="49.02"/>
   <circle class="fil0" cx="656.18" cy="1294.26" r="73.38"/>
   <circle class="fil0" cx="463.71" cy="1238.72" r="87.27"/>
   <circle class="fil0" cx="537.57" cy="1376.22" r="49.02"/>
   <circle class="fil0" cx="596.37" cy="1464.23" r="36.32"/>
   <circle class="fil0" cx="621.32" cy="1540.73" r="22.81"/>
   <circle class="fil0" cx="499.72" cy="1553.38" r="22.81"/>
   <circle class="fil0" cx="551.72" cy="1608.5" r="36.32"/>
   <circle class="fil0" cx="631.43" cy="1676.39" r="49.02"/>
   <circle class="fil0" cx="733.25" cy="1750.18" r="57.56"/>
   <circle class="fil0" cx="843.94" cy="1817.48" r="57.56"/>
   <circle class="fil0" cx="596.89" cy="786.77" r="49.02"/>
   <circle class="fil0" cx="656.66" cy="854.82" r="26.73"/>
   <circle class="fil0" cx="522" cy="685.33" r="61.03"/>
   <circle class="fil0" cx="460.84" cy="591.25" r="33.95"/>
   <circle class="fil0" cx="301.6" cy="451.62" r="61.03"/>
   <circle class="fil0" cx="397.97" cy="521.3" r="38.35"/>
   <circle class="fil0" cx="156.38" cy="351.56" r="88.54"/>
   <circle class="fil0" cx="36.97" cy="276.69" r="36.97"/>
   <circle class="fil0" cx="103.14" cy="222.03" r="29.65"/>
   <circle class="fil0" cx="34.07" cy="188.38" r="29.65"/>
   <circle class="fil0" cx="569.02" cy="131.05" r="49.59"/>
   <circle class="fil0" cx="553.97" cy="32.76" r="32.76"/>
   <circle class="fil0" cx="574.33" cy="227.57" r="26.56"/>
   <circle class="fil0" cx="418.49" cy="163.37" r="26.56"/>
   <circle class="fil0" cx="418.49" cy="255.46" r="49.59"/>
   <circle class="fil0" cx="455.68" cy="344" r="32.76"/>
   <circle class="fil0" cx="493.76" cy="407.76" r="23.46"/>
   <circle class="fil0" cx="638.09" cy="403.33" r="49.59"/>
   <circle class="fil0" cx="596.97" cy="479.58" r="23.46"/>
   <circle class="fil0" cx="647.82" cy="314.35" r="26.56"/>
   <circle class="fil0" cx="651.59" cy="252.35" r="18.28"/>
   <circle class="fil0" cx="178.97" cy="622.89" r="55.34"/>
   <circle class="fil0" cx="358.28" cy="697.32" r="23.46"/>
   <circle class="fil0" cx="292.79" cy="654.82" r="41.62"/>
   <circle class="fil0" cx="28.23" cy="505.09" r="23.46"/>
   <circle class="fil0" cx="85.15" cy="565.82" r="41.62"/>
   <circle class="fil0" cx="317.04" cy="831.04" r="45.66"/>
   <circle class="fil0" cx="404.59" cy="833.01" r="31.21"/>
   <circle class="fil0" cx="225.92" cy="819.04" r="32.34"/>
   <circle class="fil0" cx="163.94" cy="787.6" r="20.35"/>
   <circle class="fil0" cx="480.27" cy="966.35" r="36.54"/>
   <circle class="fil0" cx="400.01" cy="967.78" r="23.49"/>
   <circle class="fil0" cx="552.37" cy="948.78" r="16.07"/>
   <circle class="fil0" cx="472.33" cy="1100.62" r="30.81"/>
  </g>
  <path class="fil1" d="M1796.99 1453.96c0,49.07 -12.69,93.2 -38.08,132.42 -25.19,39.22 -62.32,69.91 -111.2,92.07 -48.88,22.16 -106.84,33.15 -173.71,33.15 -80.32,0 -146.62,-15.15 -198.72,-45.27 -36.94,-21.78 -66.87,-50.96 -89.98,-87.33 -23.11,-36.37 -34.67,-71.8 -34.67,-106.27 0,-19.89 7.01,-36.94 20.84,-51.34 13.83,-14.2 31.44,-21.21 52.85,-21.21 17.43,0 32.01,5.49 43.95,16.67 12.12,10.99 22.35,27.47 30.88,49.44 10.23,25.76 21.59,47.55 33.53,64.79 12.12,17.43 28.99,31.82 50.77,43.19 21.97,11.18 50.58,16.86 86.19,16.86 48.69,0 88.47,-11.36 118.97,-34.1 30.5,-22.73 45.84,-51.15 45.84,-85.25 0,-27.09 -8.15,-49.06 -24.62,-65.73 -16.48,-16.86 -37.89,-29.74 -64.03,-38.65 -25.95,-8.9 -61,-18.38 -104.57,-28.42 -58.35,-13.64 -107.41,-29.74 -146.62,-47.93 -39.4,-18.38 -70.66,-43.38 -93.77,-75.01 -23.11,-31.64 -34.67,-70.85 -34.67,-118.02 0,-44.71 12.12,-84.49 36.56,-119.34 24.44,-34.67 59.86,-61.38 106.08,-80.14 46.22,-18.75 100.59,-28.04 163.11,-28.04 49.82,0 93.01,6.25 129.58,18.57 36.37,12.5 66.68,28.99 90.74,49.45 23.87,20.46 41.48,42.05 52.66,64.59 10.99,22.54 16.67,44.71 16.67,66.12 0,19.51 -7.01,37.32 -20.84,53.04 -13.83,15.72 -31.26,23.49 -51.91,23.49 -18.94,0 -33.15,-4.73 -43,-14.02 -9.85,-9.47 -20.46,-25 -31.82,-46.41 -14.97,-30.69 -32.58,-54.75 -53.42,-71.99 -20.65,-17.24 -53.99,-25.76 -100.02,-25.76 -42.43,0 -76.91,9.28 -102.86,28.04 -26.14,18.76 -39.22,41.11 -39.22,67.44 0,16.29 4.36,30.31 13.26,42.24 8.9,11.74 21.21,21.97 36.75,30.5 15.53,8.52 31.26,15.15 47.17,20.08 15.91,4.73 42.24,11.74 78.81,21.03 45.84,10.8 87.52,22.54 124.65,35.61 37.13,12.88 68.77,28.61 94.91,47.17 26.14,18.38 46.41,41.86 61,70.09 14.59,28.42 21.98,63.08 21.98,104.19zm522.65 172.2l0 -19.51c-18.19,22.92 -37.13,42.24 -57.21,57.78 -19.89,15.53 -41.67,27.09 -65.35,34.66 -23.68,7.58 -50.58,11.37 -80.89,11.37 -36.75,0 -69.53,-7.58 -98.51,-22.73 -28.99,-15.15 -51.53,-35.99 -67.44,-62.7 -18.75,-32.2 -28.23,-78.43 -28.23,-138.86l0 -300.07c0,-30.5 6.82,-53.04 20.46,-68.01 13.64,-14.96 31.82,-22.54 54.37,-22.54 22.73,0 41.3,7.58 55.32,22.73 14.02,15.16 21.03,37.7 21.03,67.82l0 242.48c0,35.04 3.03,64.6 8.91,88.47 5.87,23.87 16.48,42.62 31.82,56.07 15.34,13.45 36.18,20.27 62.51,20.27 25.57,0 49.63,-7.58 72.17,-22.73 22.54,-15.15 39.03,-35.04 49.44,-59.48 8.53,-21.41 12.69,-68.39 12.69,-140.94l0 -184.13c0,-30.12 7.01,-52.66 21.03,-67.82 14.21,-15.15 32.58,-22.73 55.12,-22.73 22.54,0 40.73,7.58 54.37,22.54 13.83,14.97 20.65,37.51 20.65,68.01l0 438.92c0,28.8 -6.63,50.39 -19.7,64.98 -13.26,14.4 -30.12,21.59 -50.96,21.59 -20.65,0 -37.89,-7.58 -51.34,-22.54 -13.45,-14.96 -20.27,-35.99 -20.27,-62.89zm444.61 -444.61l0 437.98c0,30.31 -7.2,53.23 -21.59,68.77 -14.4,15.53 -32.58,23.3 -54.75,23.3 -22.16,0 -40.16,-7.96 -53.99,-23.87 -13.83,-15.91 -20.84,-38.65 -20.84,-68.2l0 -433.43c0,-30.12 7.01,-52.66 20.84,-67.82 13.83,-15.15 31.82,-22.73 53.99,-22.73 22.16,0 40.35,7.58 54.75,22.73 14.39,15.16 21.59,36.37 21.59,63.27zm-74.83 -156.48c-21.03,0 -39.03,-6.44 -53.99,-19.32 -14.97,-12.88 -22.35,-31.26 -22.35,-54.94 0,-21.21 7.58,-38.83 22.92,-52.66 15.34,-13.83 33.15,-20.84 53.42,-20.84 19.7,0 36.94,6.25 52.09,18.76 15.16,12.69 22.73,30.88 22.73,54.74 0,23.3 -7.39,41.49 -22.16,54.56 -14.78,13.07 -32.2,19.7 -52.66,19.7zm240.02 84.11l16.67 0 0 -91.12c0,-24.44 0.57,-43.57 1.89,-57.4 1.32,-14.02 4.92,-25.96 10.8,-35.81 5.87,-10.42 14.4,-18.94 25.58,-25.38 10.99,-6.44 23.3,-9.66 37.13,-9.66 19.14,0 36.37,7.2 51.9,21.59 10.42,9.66 16.86,21.4 19.7,35.42 2.84,13.83 4.16,33.53 4.16,59.11l0 103.24 55.51 0c21.4,0 37.89,5.11 49.06,15.15 11.37,10.23 17.05,23.3 17.05,39.03 0,20.46 -8.15,34.67 -24.25,42.81 -16.1,8.15 -39.03,12.12 -69.15,12.12l-28.23 0 0 278.47c0,23.68 0.76,42.05 2.46,54.75 1.7,12.69 6.06,23.11 13.26,31.07 7.39,7.96 19.13,11.93 35.42,11.93 8.72,0 20.84,-1.51 35.99,-4.73 15.16,-3.03 27.09,-4.74 35.43,-4.74 12.31,0 23.3,4.93 33.15,14.78 9.85,9.85 14.59,21.97 14.59,36.37 0,24.44 -13.26,43 -39.78,55.88 -26.71,13.07 -64.98,19.51 -114.99,19.51 -47.36,0 -83.16,-7.96 -107.41,-23.87 -24.44,-15.91 -40.35,-37.89 -47.93,-66.11 -7.58,-28.04 -11.36,-65.54 -11.36,-112.52l0 -290.79 -19.89 0c-21.97,0 -38.64,-5.11 -50.01,-15.53 -11.55,-10.23 -17.24,-23.49 -17.24,-39.4 0,-15.72 6.06,-28.8 18,-39.03 12.12,-10.04 29.55,-15.15 52.47,-15.15zm816.66 331.89l-296.47 0c0.38,34.48 7.39,64.78 20.84,91.12 13.45,26.33 31.44,46.04 53.8,59.3 22.35,13.45 47.17,20.08 74.07,20.08 18.19,0 34.67,-2.08 49.64,-6.44 15.15,-4.17 29.55,-10.8 43.57,-19.89 14.21,-9.09 27.09,-18.76 38.84,-29.17 11.93,-10.42 27.28,-24.44 46.22,-42.24 7.77,-6.63 18.75,-10.04 33.15,-10.04 15.54,0 28.23,4.35 37.89,12.88 9.47,8.34 14.4,20.46 14.4,35.99 0,13.64 -5.49,29.55 -16.1,47.93 -10.8,18.19 -26.9,35.81 -48.68,52.47 -21.6,16.86 -48.69,30.88 -81.46,41.87 -32.77,11.17 -70.47,16.67 -112.9,16.67 -97.37,0 -172.96,-27.85 -226.94,-83.35 -53.99,-55.51 -80.89,-130.71 -80.89,-225.81 0,-44.71 6.63,-86.38 19.89,-124.65 13.26,-38.27 32.77,-71.04 58.16,-98.51 25.58,-27.28 57.02,-48.31 94.34,-62.89 37.32,-14.59 78.81,-21.97 124.27,-21.97 59.29,0 110.06,12.5 152.31,37.51 42.43,25.01 74.07,57.21 95.29,96.99 21.03,39.59 31.63,79.94 31.63,121.05 0,38.08 -10.99,62.89 -32.77,74.26 -21.78,11.18 -52.47,16.86 -92.07,16.86zm-296.47 -86.38l274.69 0c-3.6,-51.72 -17.62,-90.36 -41.86,-116.13 -24.25,-25.57 -56.08,-38.46 -95.67,-38.46 -37.89,0 -68.77,13.07 -93.01,39.03 -24.25,26.14 -39.02,64.6 -44.14,115.56z"/>
 </g>
</svg>
